<?xml version="1.0" standalone="no"?>
<!DOCTYPE svg PUBLIC "-//W3C//DTD SVG 1.1//EN" "http://www.w3.org/Graphics/SVG/1.1/DTD/svg11.dtd" >
<svg>
<metadata>
Created by FontForge 20090622 at Sun Jun 24 15:44:44 2018
 By deploy user
Copyright (c) 2013 by Benjamin Critton. All rights reserved.
</metadata>
<defs>
<font id="Lydia-BoldCondensed" horiz-adv-x="829" >
  <font-face 
    font-family="Lydia"
    font-weight="700"
    font-stretch="condensed"
    units-per-em="2048"
    panose-1="2 14 8 6 6 4 2 3 12 2"
    ascent="1638"
    descent="-410"
    x-height="991"
    cap-height="1434"
    bbox="-175 -547 1999 2206"
    underline-thickness="102"
    underline-position="-102"
    unicode-range="U+000D-U+FB04"
  />
<missing-glyph horiz-adv-x="1024" 
 />
    <glyph glyph-name="ff" unicode="ff" horiz-adv-x="997" 
d="M25 797h-37l118 155v191q46 87 108 158q63 72 116 112l51 14q70 17 129 17q144 0 252 -74q32 32 65 55q12 5 27 9q32 10 70 10q25 0 61 -14q7 -5 19 -15l-56 -264q-41 29 -82 35q-20 4 -45 4v-238h131q22 0 66 2l-139 -155h-58q0 -435 2 -539q0 -94 2 -260h-241
q0 80 2 260q0 74 1 257t1 282h-119l119 153v226q-59 32 -125 30q-71 0 -123 -24v-232h131q22 0 66 2l-121 -155h-76q0 -435 2 -539q0 -94 2 -260h-242q0 80 2 260q0 74 1 257t1 282q-17 0 -44.5 -1t-36.5 -1z" />
    <glyph glyph-name="fi" unicode="fi" horiz-adv-x="888" 
d="M25 834h-37l118 155v154q46 87 108 158q63 72 116 112l51 14q70 17 129 17q218 0 358 -172l-26 -29q-17 -20 -60 -65q-9 -9 -57 -66q-9 -11 -27 -31q-100 127 -235 127q-71 0 -123 -24v-195h131q22 0 66 2l-140 -155h-57v-288q0 -107 2 -269q0 -97 2 -279h-242
q0 87 2 279q0 79 1 269t1 288q-17 0 -44.5 -1t-36.5 -1zM831 0h-264q0 48 2 160q0 44 1 163t1 189q0 62 -1 174t-1 154q-2 106 -2 151h264q-2 -96 -2 -151q-2 -61 -2 -328q0 -289 2 -352q0 -58 2 -160z" />
    <glyph glyph-name="fl" unicode="fl" horiz-adv-x="909" 
d="M25 797h-37l118 155v191q46 87 108 158q63 72 116 112l51 14q70 17 129 17q98 0 188 -39l140 29q0 -39 -1.5 -121.5t-2.5 -126.5q-3 -142 -3 -469q0 -412 3 -510q1 -41 2.5 -111t1.5 -96h-271q0 61 2 211q4 175 4 506q0 293 -4 469q-53 23 -106 22q-71 0 -123 -24v-232
h131q22 0 66 2l-140 -155h-57q0 -435 2 -539q0 -94 2 -260h-242q0 80 2 260q0 74 1 257t1 282q-17 0 -44.5 -1t-36.5 -1z" />
    <glyph glyph-name="ffi" unicode="ffi" horiz-adv-x="1370" 
d="M25 834h-37l118 157v152q46 87 108 158q63 72 116 112l51 14q70 17 129 17q144 0 252 -74q25 25 49 43l51 14q70 17 129 17q219 0 359 -172q-16 -18 -27 -29q-8 -10 -28.5 -32l-30.5 -33q-12 -12 -33.5 -37.5t-24.5 -28.5l-26 -31q-100 127 -236 127q-71 0 -123 -24v-193
q106 0 131 2q22 0 66 2l-139 -159h-58v-288q0 -107 2 -269q0 -97 2 -279h-241q0 87 2 279q0 79 1 269t1 288h-119l119 155v187q-59 32 -125 30q-71 0 -123 -24v-193q105 0 131 2q22 0 66 2l-121 -159h-76v-288q0 -107 2 -269q0 -97 2 -279h-242q0 87 2 279q0 79 1 269t1 288
q-17 0 -44.5 -1t-36.5 -1zM1313 0h-264q0 48 2 160q0 44 1 163t1 189q0 62 -1 174t-1 154q-2 106 -2 151l264 2q-2 -96 -2 -151q-2 -61 -2 -330q0 -289 2 -352q0 -58 2 -160z" />
    <glyph glyph-name="ffl" unicode="ffl" horiz-adv-x="1390" 
d="M25 797h-37l118 155v191q46 87 108 158q63 72 116 112l51 14q70 17 129 17q144 0 252 -74q25 25 49 43l51 14q70 17 129 17q97 0 189 -39l139 29q0 -39 -1.5 -121.5t-2.5 -126.5q-2 -95 -2 -469q0 -423 2 -510q1 -41 2.5 -111t1.5 -96h-270q0 61 2 211q4 175 4 506
q0 293 -4 469q-53 23 -107 22q-71 0 -123 -24v-232h131q22 0 66 2l-139 -155h-58q0 -435 2 -539q0 -94 2 -260h-241q0 80 2 260q0 74 1 257t1 282h-119l119 153v226q-59 32 -125 30q-71 0 -123 -24v-232h131q22 0 66 2l-121 -155h-76q0 -435 2 -539q0 -94 2 -260h-242
q0 80 2 260q0 74 1 257t1 282q-17 0 -44.5 -1t-36.5 -1z" />
    <glyph glyph-name=".notdef" horiz-adv-x="1024" 
 />
    <glyph glyph-name=".null" horiz-adv-x="0" 
 />
    <glyph glyph-name="nonmarkingreturn" unicode="&#xd;" horiz-adv-x="1024" 
 />
    <glyph glyph-name="null" horiz-adv-x="0" 
 />
    <glyph glyph-name="null" horiz-adv-x="0" 
 />
    <glyph glyph-name="space" unicode=" " horiz-adv-x="460" 
 />
    <glyph glyph-name="exclam" unicode="!" horiz-adv-x="520" 
d="M82 168l192 164q21 -49 70 -105q44 -53 94 -88l-192 -164q-47 33 -94 88t-70 105zM381 420l-254 -21q0 40 2 146q4 121 4 366q0 246 -4 367q-2 106 -2 145l254 21q0 -18 -1.5 -67.5t-2.5 -78.5q-2 -61 -2 -366q0 -306 2 -367q1 -30 2.5 -79.5t1.5 -65.5z" />
    <glyph glyph-name="quotedbl" unicode="&#x22;" horiz-adv-x="598" 
d="M268 969l-186 127q0 9 2 39q0 9 1 52t1 79t-1 80t-1 55q-2 34 -2 43l186 -127q-2 -22 -2 -41q-2 -21 -2 -133q0 -114 2 -133q0 -19 2 -41zM516 969l-186 127q0 9 2 39q0 9 1 52t1 79t-1 80t-1 55q-2 34 -2 43l186 -127q-2 -22 -2 -41q-2 -21 -2 -133q0 -114 2 -133
q0 -19 2 -41z" />
    <glyph glyph-name="numbersign" unicode="#" horiz-adv-x="1622" 
d="M190 438h-88l54 213q46 -2 84 -2q21 0 100 -1t137 -1l29 137q-58 0 -138.5 -1t-103.5 -1h-88l53 213q46 -2 84 -2q22 0 100 -1t134 -1l63 314q14 71 27 129l248 10l-31 -131l-74 -322h176l64 314q14 71 27 129l247 10l-30 -131l-74 -322q58 0 138.5 1t103.5 1q38 0 88 2
l-54 -213h-84q-22 0 -100.5 1t-134.5 1l-29 -137q56 0 136.5 1t103.5 1q38 0 88 2l-53 -213h-84q-22 0 -100 1t-134 1q-12 -55 -23.5 -113.5l-23 -116.5l-16.5 -83l-12.5 -64l-12.5 -63l-248 -10l31 131q8 32 31.5 140l40.5 181h-176l-64 -315l-24 -127l-248 -10l30 129
q11 45 36 159.5l36 161.5q-58 0 -138.5 -1t-103.5 -1zM737 786l-28 -139h178l28 139h-178z" />
    <glyph glyph-name="dollar" unicode="$" horiz-adv-x="698" 
d="M35 274l254 101q1 -41 12 -78q26 -83 86 -96q33 77 33 168q0 45 -5 72.5t-22.5 59.5t-54 59.5t-96.5 57.5q-105 52 -155 133t-50 210q0 164 88 313l180 131q-2 26 -2 94v37l115 31q-2 -18 -2 -35v-92q87 -10 155 -77t76 -194l-244 -120q-1 36 -14 67q-25 69 -88 76
q-31 -77 -31 -162q0 -47 13.5 -80.5t40.5 -56t53.5 -37t67 -34t65.5 -36.5q76 -49 109.5 -118.5t33.5 -175.5q0 -112 -26 -222q-12 -48 -27 -88l-184 -166v-86q0 -14 2 -32l-115 -31v31q0 56 2 77q-40 0 -75.5 7.5t-72 28.5t-63 53t-43 86t-16.5 124z" />
    <glyph glyph-name="percent" unicode="%" horiz-adv-x="1472" 
d="M80 1055q0 65 12 178l12 78q5 7 25 20q47 32 86 55q51 29 84 46l25 12h10q175 0 227 -113q31 -63 31 -237q0 -74 -5 -146q-5 -65 -9 -74q-7 -11 -46.5 -43.5t-66.5 -50.5l-61 -40q-34 -22 -58 -27h-12q-168 0 -221 121q-17 34 -24 99q-9 63 -9 122zM262 1090
q0 -46 3.5 -78.5t13 -65.5t31.5 -50t55 -17q17 0 28 4q19 19 19 190q0 28 -1 46t-3.5 44.5t-10 43.5t-18.5 34t-30 25t-44 8q-18 0 -29 -4q-1 -6 -8 -43q-6 -43 -6 -137zM485 -102l-163 -11q10 16 43 89l84 193l232 556l155 378.5l124 310l48 122.5l159 10l-102 -235
l-229 -543l-128 -309l-112 -281zM881 332q0 65 12 178l12 78q5 8 25 20q48 33 86 56q57 33 84 45l24 12h11q172 0 227 -113q31 -63 31 -237q0 -74 -5 -146q-6 -67 -10 -73q-5 -11 -44.5 -44t-67.5 -51l-62 -40q-34 -23 -57 -27h-12q-166 0 -222 121q-17 35 -24 99
q-8 67 -8 122zM1063 367q0 -46 3.5 -78t13 -65.5t31 -50.5t54.5 -17q17 0 29 4q18 18 18 190q0 29 -0.5 46.5t-3.5 44t-10 43.5t-18 34t-30 25t-44 8q-18 0 -29 -4q-1 -6 -8 -43q-6 -44 -6 -137z" />
    <glyph glyph-name="ampersand" unicode="&#x26;" horiz-adv-x="833" 
d="M51 352q0 156 31 262q66 85 143 136q-26 7 -49.5 21t-48.5 40t-40 72.5t-15 107.5q0 176 53 285q135 114 270 162q37 6 76 6q92 0 161 -42q68 -42 107 -161l-278 -137q-14 67 -50 104t-89 37q-25 -52 -25 -121q0 -84 43 -123q40 -37 112 -46q71 -9 142 -9h84l-86 -217
h-170q-66 -11 -92 -78q-25 -75 -25 -174q0 -55 6.5 -98t23 -83.5t50 -62.5t82.5 -22q25 0 35 4l6 25q6 32 6 69q0 98 -88 119h-109l111 164h395l-94 -143q27 -55 27 -117q0 -76 -43 -146q-117 -128 -271 -204q-29 -7 -63 -7q-152 0 -240 104.5t-88 272.5z" />
    <glyph glyph-name="quotesingle" unicode="'" horiz-adv-x="350" 
d="M268 969l-186 127q0 9 2 39q0 9 1 52t1 79t-1 80t-1 55q-2 34 -2 43l186 -127q-2 -22 -2 -41q-2 -21 -2 -133q0 -114 2 -133q0 -19 2 -41z" />
    <glyph glyph-name="parenleft" unicode="(" horiz-adv-x="618" 
d="M82 504q0 149 10 290q11 157 25 271q18 155 37 276q38 75 113.5 158t135.5 121q4 2 23 8q26 10 68 10q24 0 69 -14q18 -8 25 -12l-64 -266q-45 38 -106 38q-4 0 -9 -1t-8 -1h-4q-7 -51 -15 -154q-6 -82 -13 -223q-15 -270 -15 -497q0 -254 57 -431.5t197 -281.5
q-106 3 -209.5 48t-188 141.5t-108.5 226.5q-20 129 -20 293z" />
    <glyph glyph-name="parenright" unicode=")" horiz-adv-x="620" 
d="M12 1638q62 -1 126 -18t126 -51.5t113 -82.5t88.5 -116t52.5 -147q21 -136 21 -293q0 -136 -11 -290q-10 -129 -26 -271q-21 -180 -35 -277q-38 -74 -114 -157.5t-136 -120.5q-14 -8 -22 -11q-21 -8 -68 -8q-29 0 -70 12q-13 6 -24 15l63 266q46 -39 107 -39h16q4 0 4 2
q9 66 16 155q6 79 13 223q14 285 14 497q0 254 -56.5 430.5t-197.5 281.5z" />
    <glyph glyph-name="asterisk" unicode="*" horiz-adv-x="593" 
d="M20 1229l93 151l28 -10q10 -3 36 -13l42 -16q-2 29 -2 109q0 15 -2 45l172 -41q-2 -16 -2 -31q-2 -14 -2 -82q73 23 102 35q22 7 43 17l15 -174q-13 -2 -29 -9q-10 -3 -38 -12l-44 -14q59 -78 68 -88q12 -17 28 -35l-161 -68q-9 10 -19 27q-6 7 -12.5 17l-16.5 25.5
l-18 27.5l-63 -93q-1 -2 -11 -15.5t-14 -20.5l-115 133q10 10 21 24q30 37 51 68l-54 15.5t-53 15.5q-20 7 -43 12z" />
    <glyph glyph-name="plus" unicode="+" horiz-adv-x="837" 
d="M51 537l74 213q26 -2 47 -2q31 -3 139 -3q0 108 -4 168q-2 52 -2 78h225q0 -13 -1.5 -39t-2.5 -39q-2 -31 -2 -168q156 0 191 3q29 0 71 2l-73 -213q-26 2 -47 2q-100 0 -142 2q0 -139 2 -170q1 -15 2.5 -40.5t1.5 -35.5h-225q0 22 2 76q4 63 4 170q-53 -2 -190 -2
q-28 0 -70 -2z" />
    <glyph glyph-name="comma" unicode="," horiz-adv-x="366" 
d="M41 168l192 164q32 -27 62 -81t31 -114q-18 -78 -83.5 -158.5t-156.5 -121.5q43 89 43 182q-15 70 -88 129z" />
    <glyph glyph-name="hyphen" unicode="-" horiz-adv-x="722" 
d="M41 362l125 199q15 24 32.5 32.5t53.5 8.5h297q52 0 77 4q28 5 56 31l-125 -199q-15 -24 -32.5 -32.5t-53.5 -8.5h-297q-52 0 -76 -4q-29 -5 -57 -31z" />
    <glyph glyph-name="period" unicode="." horiz-adv-x="438" 
d="M41 168l192 164q21 -49 70 -105q44 -53 94 -88l-192 -164q-47 33 -93.5 87.5t-70.5 105.5z" />
    <glyph glyph-name="slash" unicode="/" horiz-adv-x="927" 
d="M246 -102l-246 -11l127 287l121 284l129 310l217 537l92 231l242 10l-103 -235l-229 -543l-128 -309l-112 -281z" />
    <glyph glyph-name="zero" unicode="0" horiz-adv-x="925" 
d="M72 662q0 157 13 299q13 147 36 243q47 60 138.5 134.5t176.5 105.5q75 0 130 -11q51 -12 106 -53q144 -103 172 -389q10 -105 10 -239q0 -197 -23 -379q-7 -77 -20 -150q-50 -54 -125.5 -125t-116.5 -98q-58 -25 -139 -25q-69 0 -124.5 27t-92 69.5t-64 105t-42 122
t-23 132t-10.5 123.5t-2 108zM332 799q0 -110 9.5 -202.5t30.5 -177t63 -133t100 -48.5q23 0 34 6q11 68 21 177q10 104 10 288q0 95 -11 176t-35.5 149.5t-68 108t-102.5 39.5q-18 0 -23 -2q-28 -173 -28 -381z" />
    <glyph glyph-name="one" unicode="1" horiz-adv-x="471" 
d="M369 0h-267q0 68 2 238q5 242 5 520q0 248 -5 456q-2 148 -2 209l267 21q0 -32 -1.5 -104.5t-2.5 -112.5q-3 -131 -3 -469q0 -412 3 -520q1 -46 2.5 -126t1.5 -112z" />
    <glyph glyph-name="two" unicode="2" horiz-adv-x="720" 
d="M31 1180l49 67q51 74 80 109q35 42 77.5 65t106.5 23q87 0 149.5 -37.5t94.5 -138.5q18 -59 27.5 -129.5t11.5 -122t2 -131.5q0 -204 -51 -410q-58 -87 -263 -270h60q65 0 114 4q59 4 117 24q28 8 53 21l-43 -254h-567l14 197q49 9 94.5 30.5t89.5 59.5t74.5 102
t40.5 146q11 118 13 227q0 103 -13 229q-20 217 -176 217q-80 0 -131 -51q-22 4 -24 23z" />
    <glyph glyph-name="three" unicode="3" horiz-adv-x="684" 
d="M41 659l65 82q12 14 36 44.5l40.5 50t30.5 32.5q21 14 70 25q19 4 41 6q26 73 26 162q0 75 -39.5 116.5t-99.5 41.5q-29 0 -53 -8.5t-35.5 -17.5t-26.5 -24q-24 0 -24 25l55 72l29.5 37l30.5 38l18 23q34 44 75.5 62t100.5 18q27 0 52.5 -4.5t58 -21t56 -44t40 -77.5
t16.5 -117q0 -169 -174 -291q52 -13 105 -56q51 -42 69 -114q19 -80 19 -191q0 -94 -10 -174q-10 -76 -25 -133q-112 -112 -244 -215q-46 -31 -135 -31q-109 0 -156 50l25 215q84 -59 190 -60q59 0 109 23q12 61 12 180q0 60 -8 106.5t-28.5 88t-61 64t-98.5 22.5
q-69 0 -134 -29q-18 5 -18 24z" />
    <glyph glyph-name="four" unicode="4" horiz-adv-x="755" 
d="M100 459h-94v200l55 113l117 248l123 276l53 127l246 11q-2 -162 -2 -248q-2 -99 -2 -500q99 0 123 2q23 0 57 2l-78 -231h-30q-8 0 -33 1t-39 1q0 -261 2 -320q0 -55 2 -141h-266q0 41 2 141q0 40 1 148t1 172q-52 0 -132 -1t-106 -1zM338 1139l-207 -451q30 -2 55 -2
h152v59q0 16 1 62t1 74q0 33 -1 92t-1 82v84z" />
    <glyph glyph-name="five" unicode="5" horiz-adv-x="714" 
d="M78 694q0 37 2 127q0 35 1 128t1 147q0 45 -1 124.5t-1 108.5q-2 74 -2 105h545l-109 -220q-41 0 -92 3q-26 0 -99.5 1t-115.5 1q-2 -16 -2 -31v-92v-97q0 -16 2 -34q15 8 33 14q59 14 94 14q340 0 340 -430q0 -184 -58 -348q-33 -42 -110 -111.5t-123 -101.5
q-16 -10 -58 -19q-45 -8 -83 -8q-104 0 -158 50l27 223q96 -68 196 -68q11 0 22 1t19 2.5t19 4.5l16.5 4.5t18.5 6t18 6.5q20 79 20 225q0 301 -223 301q-78 0 -139 -37z" />
    <glyph glyph-name="six" unicode="6" horiz-adv-x="837" 
d="M72 612q0 174 21 344.5t57 272.5q53 56 124 113q74 58 168 96q33 6 78 6q98 0 172 -53l-88 -207q-71 49 -162 49q-44 0 -73 -12q-43 -129 -54 -383q37 31 146 112q44 31 90 31q41 0 92 -23q65 -32 104 -125t39 -235q0 -281 -69 -424q-42 -42 -117 -104.5t-115 -85.5
q-13 -7 -61 -9q-117 0 -182 48q-101 73 -135.5 197.5t-34.5 391.5zM313 729q0 -240 27 -352q37 -160 158 -160q15 0 26 4q8 49 11 62q10 78 10 163q0 56 -6.5 105t-23 98t-49 78t-79.5 29q-44 0 -74 -27z" />
    <glyph glyph-name="seven" unicode="7" horiz-adv-x="649" 
d="M10 1159l88 275h541q-23 -91 -45 -193q-61 -272 -92 -463l-45 -271q-22 -134 -39 -251l-39 -256l-217 -10q1 4 43 221l88 465l61 371q14 97 25 159q-25 4 -78 4q-101 0 -166 -12t-125 -39z" />
    <glyph glyph-name="eight" unicode="8" horiz-adv-x="847" 
d="M74 371q0 109 16 207l18 23t20.5 22.5l20 19.5t22.5 20t20.5 17l22 17.5t19.5 15.5q-48 23 -86.5 64t-52.5 97q-12 51 -12 113q0 78 13 143q13 70 22 95q98 98 207 174q66 45 178 45q132 0 201 -66.5t69 -195.5q0 -94 -29 -195q-61 -68 -135 -115q84 -41 131 -139
t47 -235q0 -111 -16 -215q-2 -12 -14 -78l-250 -223q-1 0 -5.5 -1t-9.5 -2l-10 -2q-13 -2 -98 -2q-84 0 -165.5 47.5t-115.5 143.5q-28 76 -28 205zM307 1135q0 -100 44.5 -152.5t148.5 -71.5q0 1 8 45q10 62 10 111q0 84 -37.5 135t-109.5 51q-25 0 -49 -8
q-15 -45 -15 -110zM342 434q0 -231 133 -231q27 0 41 8q2 11 4.5 35.5t3.5 29.5q8 70 8 191q0 52 -18.5 92.5t-48 63.5t-58 35.5t-57.5 17.5q0 -13 -1.5 -39.5t-2.5 -40.5q-4 -63 -4 -162z" />
    <glyph glyph-name="nine" unicode="9" horiz-adv-x="845" 
d="M61 817q0 192 37 330q15 56 37 106q44 42 123 102t123 83q16 6 49 6q197 0 275.5 -156.5t78.5 -529.5q0 -191 -32 -377q-12 -71 -31 -145q-32 -46 -127 -126t-150 -114q-50 -21 -120 -21q-106 0 -172 43l-2 238q114 -74 237 -74q58 0 113 23q19 100 28 235q3 45 7 135
l-58 -45q-50 -41 -108 -79q-37 -11 -80 -11q-106 0 -167 98.5t-61 278.5zM303 977q0 -46 2.5 -81.5t12 -81.5t26.5 -76t49 -51t76 -21q41 0 66 18q2 18 2 98q0 87 -9.5 160t-30.5 135t-59 97.5t-90 35.5q-19 0 -26 -4l-11 -91q-8 -69 -8 -138z" />
    <glyph glyph-name="colon" unicode=":" horiz-adv-x="458" 
d="M61 547l193 164q21 -49 70 -105q44 -53 94 -88l-193 -164q-47 33 -93.5 87.5t-70.5 105.5zM72 168l192 164q21 -49 70 -105q44 -53 94 -88l-192 -164q-47 33 -94 88t-70 105z" />
    <glyph glyph-name="semicolon" unicode=";" horiz-adv-x="438" 
d="M51 547l193 164q21 -49 70 -105q46 -55 94 -88l-193 -164q-47 33 -93.5 87.5t-70.5 105.5zM82 168l192 164q93 -93 93 -195q-18 -78 -83.5 -158.5t-156.5 -121.5q43 89 43 182q-15 70 -88 129z" />
    <glyph glyph-name="less" unicode="&#x3c;" horiz-adv-x="772" 
d="M82 541v204q378 162 588 267v-205l-379 -123q224 -82 379 -123v-287q-210 105 -588 267z" />
    <glyph glyph-name="equal" unicode="=" horiz-adv-x="837" 
d="M51 393l74 213q58 -2 96 -2q42 -2 246 -2q191 0 229 2q38 0 90 2l-73 -213q-25 0 -97 2q-27 0 -108.5 1t-136.5 1q-51 0 -128.5 -1t-101.5 -1q-68 -2 -90 -2zM51 680l74 213q58 -2 96 -2q42 -2 246 -2q191 0 229 2q38 0 90 2l-73 -213q-25 0 -97 2q-27 0 -108.5 1
t-136.5 1q-51 0 -128.5 -1t-101.5 -1q-68 -2 -90 -2z" />
    <glyph glyph-name="greater" unicode="&#x3e;" horiz-adv-x="772" 
d="M102 274v205l379 123q-224 82 -379 123v287q215 -108 588 -267v-204q-386 -165 -588 -267z" />
    <glyph glyph-name="question" unicode="?" horiz-adv-x="741" 
d="M72 168l192 164q21 -49 70 -105q44 -53 94 -88l-192 -164q-47 33 -94 88t-70 105zM74 1194q36 49 71 88q78 94 117 133q46 29 133 29q93 0 164 -51q70 -51 90 -131q19 -80 19 -191q0 -94 -10 -174q-10 -76 -25 -133q-133 -133 -244 -215q-12 -9 -27 -14q0 -18 1.5 -45.5
t1.5 -36.5q0 -13 2 -33l-250 -21q0 43 2 133q4 101 4 250q102 -57 205 -57q56 0 96 23q7 31 11 68q5 45 5 126q0 266 -204 266q-67 0 -140 -39q-20 8 -22 25z" />
    <glyph glyph-name="at" unicode="@" horiz-adv-x="1222" 
d="M61 655q0 299 104 500l3 6q9 16 70 66t127 94q109 71 163 92q55 29 226 29q191 0 289 -79.5t98 -227.5q0 -21 -2 -165t-2 -225q0 -231 2 -266q0 -37 2 -69l-275 -21q0 9 2 39q2 12 2.5 45.5t1.5 52.5q-34 -38 -47 -51q-61 -61 -75 -69q-40 -23 -103 -23q-46 0 -80.5 13.5
t-63.5 47t-44 97t-15 155.5q0 138 21 222q29 37 137 116q57 45 148 90l16 4q14 3 55 5q33 0 58 -5v9q0 53 -57 77q-60 23 -134 23q-72 0 -146 -17q-75 -18 -108 -40q-30 -53 -62 -168q-34 -115 -34 -299q0 -249 92.5 -366.5t290.5 -117.5q185 0 315 115q2 2 18 -5
q8 -4 11 -6.5t2 -4.5q-6 -19 -44.5 -107.5t-64.5 -138.5q-25 -45 -109 -76t-214 -31q-280 0 -427 182.5t-147 497.5zM690 748q0 -146 129 -146q31 0 55 10q0 20 3 43q0 13 1 44.5t1 48.5v153q-32 27 -97 27q-34 0 -55 -8l-18 -7q-9 -33 -13 -76q-6 -50 -6 -89z" />
    <glyph glyph-name="A" unicode="A" horiz-adv-x="884" 
d="M240 10l-230 -20q14 79 33 160q4 18 72 376l54 314l48 293l49 301l346 10l52 -303l51 -296l57 -319q48 -263 70 -354q29 -150 32 -162l-292 -20q-16 96 -23 145l-43 271h-225q-8 -48 -20.5 -146t-14.5 -115q-2 -23 -7.5 -68t-8.5 -67zM399 1102l-77 -492h165z" />
    <glyph glyph-name="B" unicode="B" horiz-adv-x="886" 
d="M473 0h-391q0 63 2 229q4 188 4 555q0 343 -4 488q-2 128 -2 162q16 0 53 1.5t58 2.5q130 6 227 6q185 0 291 -85t106 -235q0 -60 -15.5 -112t-36.5 -85t-49 -60t-48 -39t-39 -21q37 -13 74 -39t74.5 -66.5t61 -102.5t23.5 -134q0 -66 -19.5 -125t-36 -85t-30.5 -40
q-79 -71 -178 -143t-125 -72zM369 420v-133q0 -24 2 -60q11 -5 22 -6q17 -4 64 -4q46 0 82 16q24 61 24 144q0 35 -5 66.5t-18 64t-34 55.5t-56 38t-81 15v-196zM369 1024v-246q178 37 178 246q0 55 -12.5 96t-29.5 62t-40 33t-38.5 15t-31.5 3q-4 0 -10 -1t-8 -1h-6
q-2 -38 -2 -64v-143z" />
    <glyph glyph-name="C" unicode="C" horiz-adv-x="862" 
d="M61 633q0 147 26 328t40 217q4 15 62.5 65.5t127.5 99.5q145 101 209 101q60 0 124 -14q62 -15 114 -76q59 -74 59 -176v-13l-278 -139q2 14 2 35q0 48 -14.5 81t-38.5 47.5t-44 19.5t-42 5q-4 0 -11.5 -1t-9.5 -1h-6q-15 -72 -23 -149q-20 -169 -20 -350q0 -112 4 -154
q4 -52 13.5 -96t21 -75t30.5 -55.5t34 -40t39.5 -26.5t39 -16t39.5 -8t34.5 -3.5t31.5 -0.5q99 0 178 75q1 1 15 -6q11 -8 11 -11l-17 -32q-80 -147 -116 -194q-41 -56 -93 -75.5t-138 -19.5q-94 0 -172 41t-125 115q-67 103 -87 226q-20 125 -20 276z" />
    <glyph glyph-name="D" unicode="D" horiz-adv-x="948" 
d="M438 0h-356q0 76 2 240q4 185 4 477q0 161 -1 246t-1 231q-2 164 -2 240q9 1 28 2q102 8 296 8q55 0 97 -3.5t87 -15t79.5 -30.5t67 -51.5t56.5 -77.5q78 -141 82 -496q-1 -123 -17.5 -284.5t-30.5 -206.5q-4 -7 -37.5 -44.5t-88 -91t-99.5 -88.5q-41 -32 -72 -43.5
t-94 -11.5zM360 717q0 -308 2 -363q0 -72 3 -125q4 0 14 -1.5t16 -2.5q25 -4 76 -4q49 0 78 6q15 1 29 6q32 256 32 504q0 97 -5 165.5t-20 134.5t-41.5 106t-71 64t-107.5 24q-1 -57 -3 -137q-2 -59 -2 -377z" />
    <glyph glyph-name="E" unicode="E" horiz-adv-x="722" 
d="M588 0h-506q0 67 2 225q4 181 4 492q0 316 -4 493q-2 156 -2 224h608l-133 -220q-27 0 -59 3q-18 0 -64 1t-76 1v-379q169 0 207 2q34 0 94 2l-112 -213q-15 0 -55 2q-16 0 -61 1t-73 1v-420q193 0 236 2q38 0 108 2z" />
    <glyph glyph-name="F" unicode="F" horiz-adv-x="694" 
d="M365 0h-283q0 70 2 236q4 188 4 522q0 289 -4 461q-2 150 -2 215h602l-131 -220q-27 0 -57 3q-16 0 -63 1t-75 1v-379q164 0 201 2q34 0 92 2l-102 -213q-18 0 -62 2q-19 0 -62 1t-67 1q0 -366 2 -445q1 -75 5 -190z" />
    <glyph glyph-name="G" unicode="G" horiz-adv-x="935" 
d="M59 547q0 179 19 344q18 168 59 307q59 59 145 127q87 69 177 113q19 6 67 6q50 0 102 -7q53 -7 97 -42q53 -41 74.5 -93t21.5 -139l-272 -125q0 100 -40 143q-41 42 -87 42q-20 0 -35 -6q-22 -50 -39.5 -189.5t-17.5 -341.5q0 -442 202 -442q26 0 46 6v53q0 15 1 55.5
t1 65.5t-1 65.5t-1 57.5v57q-25 0 -68 -1t-59 -1q-42 -2 -60 -2l158 209h315q-2 -58 -2 -94v-211v-221q0 -37 2 -101q-177 -125 -282 -184q-12 -6 -33 -12q-34 -9 -96 -11q-46 0 -115 20q-67 21 -129 83q-63 63 -106 174q-44 114 -44 295z" />
    <glyph glyph-name="H" unicode="H" horiz-adv-x="974" 
d="M377 0h-295q0 42 2 186q4 164 4 551q0 378 -4 531q-2 130 -2 166h293q0 -15 -1.5 -68.5l-2.5 -87.5q-2 -67 -2 -438h237q0 303 -4 438q-2 118 -2 156h293q0 -8 -1.5 -68l-2.5 -98q-2 -77 -2 -531q0 -468 2 -551l2.5 -109t1.5 -77h-293q0 46 2 176q4 149 4 459h-237
q0 -310 4 -459l2.5 -97t1.5 -79z" />
    <glyph glyph-name="I" unicode="I" horiz-adv-x="446" 
d="M365 0h-283q0 67 2 233q4 188 4 525q0 302 -4 469q-2 148 -2 207h283q-1 -52 -5 -207q-2 -83 -2 -469q0 -430 2 -525q1 -94 5 -233z" />
    <glyph glyph-name="J" unicode="J" horiz-adv-x="452" 
d="M-10 139q25 -9 80 -16q7 -1 19 -2.5t17 -1.5q0 87 3 188q0 51 1 196.5t1 233.5q0 89 -1 251.5t-1 223.5l-3 222h265q-2 -138 -2 -220q-2 -87 -2 -477q0 -81 0.5 -169t1 -157.5t1 -126.5t1 -92t0.5 -38q-29 -56 -102 -158.5t-115 -151.5q-24 -12 -56 -12q-29 0 -50.5 18.5
t-27.5 43.5q-9 34 -18 137q-6 51 -12 108z" />
    <glyph glyph-name="K" unicode="K" horiz-adv-x="882" 
d="M375 0h-293q0 70 2 236q4 188 4 522q0 291 -4 463q-2 150 -2 213h293q0 -21 -1.5 -79t-2.5 -93q-4 -143 -4 -414q18 48 39 98q11 31 40 104t43 111l68 189q5 13 10 27.5l10.5 31l8.5 25.5l252 10l-138 -305q-21 -44 -51.5 -115t-38.5 -88l-41 -88q17 -51 39 -111l94 -262
l115 -313l55 -152l-299 -20l-30 98l-70 213q-8 22 -33.5 102t-38.5 113l-34 96q0 -266 4 -419q1 -35 2.5 -99.5t1.5 -93.5z" />
    <glyph glyph-name="L" unicode="L" horiz-adv-x="677" 
d="M518 0h-436q0 55 2 205q4 171 4 512q0 336 -4 512q-2 150 -2 205h276q0 -30 -1.5 -105t-2.5 -119q-2 -91 -2 -493v-502q97 0 223 10q70 6 103 11z" />
    <glyph glyph-name="M" unicode="M" horiz-adv-x="1363" 
d="M274 10l-233 -20q8 113 18 233q27 346 39 514q27 419 29 477l10 220l316 10q15 -78 41 -193l79 -362q15 -61 37.5 -161t32.5 -136q12 -58 29 -111l28 111q23 87 72 297l82 358q26 112 41 187l354 10q1 -110 6 -225q1 -28 6.5 -204.5t10.5 -277.5q10 -223 26 -501
q8 -128 15 -226l-289 -20q-2 94 -6 192q-3 61 -6.5 195.5t-5.5 195.5q-9 202 -15 295q-8 116 -8 117q-13 -44 -31 -117q-2 -9 -24 -97.5t-31 -133.5l-76 -334l-39 -168l15 -125l-293 -10q-24 121 -35 170l-78 358q-12 59 -34.5 153.5t-26.5 113.5q-11 51 -27 116
q-1 -53 -6 -114q-3 -49 -10 -269q-3 -65 -6 -184.5t-5 -165.5q-2 -114 -2 -168z" />
    <glyph glyph-name="N" unicode="N" horiz-adv-x="1013" 
d="M92 1393l-14 41h344l47 -146q24 -69 104 -321q20 -65 59.5 -179l53.5 -157l53 -154q0 322 -6 672q-5 155 -6 285h205q0 -35 -1.5 -110t-2.5 -116q-2 -89 -2 -471q0 -418 2 -508q1 -42 2.5 -115.5t1.5 -103.5l-316 -20l-57 174q-27 77 -123 377l-108 329l-49 148
q0 -248 1 -369q2 -226 5 -327q2 -171 6 -322h-209q0 69 1.5 221t2.5 234q0 126 3 448t3 490z" />
    <glyph glyph-name="O" unicode="O" horiz-adv-x="993" 
d="M61 584q0 176 33 417q13 92 35 197q34 30 53 45q82 67 119 94q62 46 109 74q26 13 45 27q31 6 71 6q160 0 262 -115q144 -153 144 -477q0 -245 -37 -453q-17 -98 -37 -166q-46 -58 -146 -141q-101 -84 -155 -110q-25 -5 -70 -7q-95 0 -169.5 33.5t-122 89.5t-78.5 135.5
t-43.5 165.5t-12.5 185zM342 662q0 -214 63 -315q62 -101 160 -101q31 0 47 6q9 49 19 129q20 144 20 315q0 68 -3.5 122t-13 112.5t-28.5 101t-48 78.5t-73 54t-102 18q-12 -57 -21 -131q-20 -160 -20 -389z" />
    <glyph glyph-name="P" unicode="P" horiz-adv-x="841" 
d="M377 0h-295q0 78 2 256q4 204 4 543q0 278 -4 438q-2 138 -2 197q17 0 52.5 2t53.5 2q120 6 189 6q87 0 169 -9q82 -11 156 -63q77 -56 99 -133q22 -76 22 -172q0 -103 -24 -205q-12 -53 -25 -88q-46 -61 -136 -134.5t-149 -104.5q-9 -1 -34 -5q-28 -4 -82 -4
q0 -307 2 -370q0 -60 2 -156zM371 991v-184q0 -29 2 -55q38 -9 73 -9q29 0 48 5q8 2 18 6l14 65q15 123 15 164q0 63 -10.5 111t-40.5 82t-78 34q-28 0 -41 -2v-217z" />
    <glyph glyph-name="Q" unicode="Q" horiz-adv-x="993" 
d="M61 584q0 193 33 430q16 101 33 184q34 30 53 45q85 70 119 92q52 36 113 74l47 29q23 6 73 6q145 0 254 -115q144 -155 144 -477q0 -232 -43 -451q-17 -90 -41 -163q35 -27 76 -54q21 -14 34 -20l-178 -240l-37 37l-90 86q-64 -47 -98 -65q-18 -7 -59 -7
q-87 0 -147.5 18.5t-117.5 69.5q-85 77 -126.5 218t-41.5 303zM342 635q0 -113 19.5 -193t53.5 -121t71.5 -58t82.5 -17q29 0 47 6q8 46 19 125q18 178 18 309q0 68 -3.5 122.5t-13.5 114.5t-29.5 103.5t-48.5 80.5t-74 56t-103 19q-12 -57 -21 -142q-18 -152 -18 -405z" />
    <glyph glyph-name="R" unicode="R" horiz-adv-x="890" 
d="M375 0h-291q0 63 2 219q4 177 4 504q0 302 -4 483q-2 158 -2 228q12 0 44.5 1.5t51.5 2.5q120 6 236 6q180 0 268 -58q50 -32 94 -101q43 -67 43 -165q0 -123 -60 -218t-143 -140q12 -51 33 -111q30 -99 90 -266q4 -12 40.5 -109.5t54.5 -140.5l49 -125l-312 -20
l-202 604v-270q0 -179 2 -222q0 -36 2 -102zM371 1214v-452l24 6q6 2 27.5 7t34.5 9q24 6 56 71.5t32 148.5q0 213 -148 213q-15 0 -26 -3z" />
    <glyph glyph-name="S" unicode="S" horiz-adv-x="733" 
d="M57 274l267 107q5 -41 12 -74q21 -74 70 -80q24 71 24 154q0 93 -39 139t-135 84q-62 27 -115 76q-55 49 -73 145q-11 86 -11 117q0 163 68 315l256 187q36 0 70 -5.5t73.5 -23.5t69.5 -47t51.5 -80.5t24.5 -118.5l-264 -131q-5 42 -13 72q-20 71 -69 78
q-11 -86 -13 -174q0 -59 18 -87t58 -48q131 -67 145 -76q80 -46 116 -120t36 -181q0 -109 -29 -219q-13 -54 -28 -97l-232 -206q-22 -7 -59 -7q-42 0 -76 5t-73 23.5t-65.5 49.5t-45 88t-19.5 135z" />
    <glyph glyph-name="T" unicode="T" horiz-adv-x="823" 
d="M-10 1212l102 222h742l-123 -220q-25 0 -52 3q-14 0 -51 1t-59 1q0 -21 -1.5 -77t-2.5 -89q-2 -69 -2 -398q0 -359 2 -442q1 -39 2.5 -110t1.5 -103h-289q0 65 2 213q4 167 4 442q0 259 -4 398q-2 120 -2 166q-119 0 -184 -5q-60 -2 -86 -2z" />
    <glyph glyph-name="U" unicode="U" horiz-adv-x="921" 
d="M82 334q0 5 2 165q2 158 2 279q0 76 -1 226.5t-1 212.5q-2 150 -2 217h285q-2 -230 -2 -351q-2 -206 -2 -335q-1 -121 -1 -351q0 -71 36.5 -111t95.5 -40q42 0 65 12q0 291 -1 432q-1 207 -3 377q-2 260 -2 367h287q0 -31 -1.5 -101.5t-2.5 -109.5q-2 -83 -2 -445
q0 -438 2 -536q1 -45 2.5 -126t1.5 -116h-285v37q0 9 1 36t1 44q-22 -25 -41 -43q-7 -8 -67 -68q-3 -3 -15 -8t-37 -9.5t-55 -4.5q-63 0 -109.5 18t-75 47.5t-45.5 75.5t-23.5 95.5t-6.5 113.5z" />
    <glyph glyph-name="V" unicode="V" horiz-adv-x="806" 
d="M10 1434l289 10l72 -524l14 -108.5l15.5 -118t13.5 -87.5q1 -9 8.5 -61.5l11.5 -79.5q15 82 23 141l19 132t28 182q31 201 51 352q21 145 23 162l231 10l-39 -193l-82 -438l-57.5 -325.5l-38.5 -221.5l-45 -256l-320 -20q-19 144 -37 266q-12 89 -81 557q-26 179 -68 432
z" />
    <glyph glyph-name="W" unicode="W" horiz-adv-x="1347" 
d="M10 1434l289 10q1 -9 20 -139l18.5 -134.5t27.5 -179.5l18.5 -121l20 -133.5l14.5 -101.5l24 -164l127 770l-34 193l299 10q8 -68 18 -141q5 -30 19.5 -138.5t25.5 -173.5q51 -344 53 -356q12 -87 27 -164l27 164l59 356q11 65 26.5 170.5t20.5 136.5q18 126 20 136
l218 10q-13 -70 -41 -201q-59 -300 -84 -444q-51 -275 -95 -539l-43 -250l-311 -20q-10 62 -18 131l-39 258q-20 140 -37 225q-3 23 -16 88l-119 -682l-309 -20q-20 150 -37 260q-16 117 -80 549q-48 299 -74 442z" />
    <glyph glyph-name="X" unicode="X" horiz-adv-x="858" 
d="M252 0l-242 -10l287 688l-262 756l297 10l133 -434l145 424l240 10l-293 -684l266 -760l-303 -10l-125 440z" />
    <glyph glyph-name="Y" unicode="Y" horiz-adv-x="755" 
d="M254 545l-244 889h299l123 -506l109 506h215l-226 -830q0 -361 2 -432q0 -96 3 -172h-287q0 46 2 164q4 135 4 381z" />
    <glyph glyph-name="Z" unicode="Z" horiz-adv-x="663" 
d="M580 0h-574l72 238l139 479q67 227 94 342l37 139q-99 0 -219 -6q-19 -1 -52.5 -2.5t-47.5 -1.5l84 246h522l-66 -215l-133 -441l-106 -375l-43 -157q154 0 250 4q60 1 116 6z" />
    <glyph glyph-name="bracketleft" unicode="[" horiz-adv-x="499" 
d="M444 -307h-362q0 118 2 358q0 102 1 332.5t1 333.5q0 101 -1 332t-1 333q-2 240 -2 359h405l-45 -209q-15 0 -45 2q-12 0 -47.5 1t-56.5 1q0 -102 -1 -391t-1 -428q0 -141 1 -431t1 -388q120 0 143 2q23 0 53 2z" />
    <glyph glyph-name="backslash" unicode="\" horiz-adv-x="919" 
d="M0 1536l233 10l95 -235l219 -543l128 -309l120 -281l125 -280l-238 -11l-113 287l-113 284l-128 310l-230 537z" />
    <glyph glyph-name="bracketright" unicode="]" horiz-adv-x="499" 
d="M10 1532l45 209h363q-2 -238 -2 -359q0 -102 -1 -332.5t-1 -332.5q0 -103 1 -333.5t1 -332.5q0 -120 2 -358h-406l45 209q30 -2 45 -2q18 -2 105 -2q0 101 1 390t1 429t-1 429.5t-1 389.5q-35 0 -82 -1t-62 -1q-42 -2 -53 -2z" />
    <glyph glyph-name="asciicircum" unicode="^" horiz-adv-x="970" 
d="M250 1004l-209 -11q231 344 289 441h307q56 -92 138 -211l155 -219l-279 -11q-129 231 -211 359q-57 -91 -101 -175z" />
    <glyph glyph-name="underscore" unicode="_" horiz-adv-x="974" 
d="M20 -311l136 213q76 -2 123 -2q49 -2 276 -2t276 2q47 0 123 2l-135 -213q-35 0 -123 2q-33 0 -126.5 1t-149.5 1t-149.5 -1t-127.5 -1q-88 -2 -123 -2z" />
    <glyph glyph-name="grave" unicode="`" horiz-adv-x="575" 
d="M117 1217l-66 227q23 -9 60 -19q16 -5 149 -43q87 -23 143 -36q51 -12 56 -13l65 -229l-39 11.5t-30 8.5l-158 45l-76 19.5t-59 15.5q-8 2 -23 6.5z" />
    <glyph glyph-name="a" unicode="a" 
d="M61 352q0 204 12 311q11 105 15 132q34 44 133 116q57 45 148 90q4 1 24 5q32 6 70 6q86 0 184 -33l111 22q-2 -98 -2 -155q-2 -62 -2 -334q0 -291 2 -354q0 -60 2 -158h-271q2 18 2 35q0 63 3 94q-6 -6 -26 -27.5l-30 -31.5l-61 -64q-41 -22 -111 -22q-48 0 -82 14.5
t-63 53t-43.5 113.5t-14.5 187zM309 496q0 -63 4 -107t16 -90t38.5 -70t66.5 -24q37 0 62 10q0 11 2 61q0 15 1 92.5t1 143.5q0 47 -1 112.5t-1 84.5q-2 52 -2 71l-23 13q-36 14 -67 14q-37 0 -58 -8q-11 -4 -20 -6q-19 -131 -19 -297z" />
    <glyph glyph-name="b" unicode="b" horiz-adv-x="831" 
d="M203 31l-131 -41q0 75 2 243q4 197 4 525q0 302 -4 469q-2 148 -2 207h266q0 -25 -1.5 -86.5t-2.5 -96.5q-2 -73 -2 -401l108 111q51 51 127 51q77 0 131 -47q82 -74 82 -260q0 -102 -12 -330l-10 -162q-39 -57 -106 -120.5t-117 -92.5q-50 -16 -121 -16q-86 0 -152 22
q-36 11 -59 25zM332 504v-193q0 -32 2 -86q12 -15 28 -22q34 -23 87 -23q46 0 67 15q0 11 1.5 50l2.5 64q6 146 6 318q0 74 -39.5 107.5t-99.5 33.5q-25 0 -55 -8v-256z" />
    <glyph glyph-name="c" unicode="c" horiz-adv-x="624" 
d="M51 344q0 141 15 301q3 43 14 172q43 50 125 109.5t164 77.5q48 0 88 -17.5t63.5 -42.5t40.5 -57t24 -57t9 -46l-205 -125q-4 59 -24 90t-50 31q-4 -46 -6 -98q-4 -76 -4 -203q0 -48 1.5 -79t7.5 -66.5t17 -55.5t31.5 -33.5t49.5 -13.5q67 0 112 39q21 17 35 39
q17 0 27 -12q-18 -58 -50.5 -140.5t-54.5 -121.5q-18 -17 -45 -27q-57 -24 -145 -24q-108 0 -180 77q-36 40 -48 98.5t-12 184.5z" />
    <glyph glyph-name="d" unicode="d" horiz-adv-x="806" 
d="M51 291q0 125 7 300q6 153 16 214q33 42 118 110.5t136 85.5q5 0 39 5q48 6 112 6q0 62 -1 162.5t-1 134.5q-2 90 -2 125h270q0 -21 -1.5 -81t-2.5 -96q-2 -75 -2 -438v-281q0 -104 2 -266q1 -49 2.5 -140t1.5 -132h-268q0 7 2 33q0 8 1 37t1 51l-53 -51q-15 -13 -41 -38
t-35 -32q-20 -16 -71 -16q-120 0 -175 74t-55 233zM301 455q0 -56 4 -94t16 -77t38.5 -59t68.5 -20q33 0 53 12v72q0 17 1 89t1 126q0 46 -1 116.5t-1 94.5q-2 62 -2 84q-4 1 -12 2.5t-12 1.5q-17 4 -58 4q-31 0 -57 -6q-12 -4 -23 -6q-2 -2 -5.5 -60.5t-7 -141.5t-3.5 -138
z" />
    <glyph glyph-name="e" unicode="e" horiz-adv-x="679" 
d="M61 348q0 101 7 213.5t16 182.5t14 75q52 48 134 101t151 84q93 0 139 -28q48 -30 76 -69q29 -41 35 -95t6 -99q0 -67 -6 -95q-110 -85 -187 -151q-17 0 -44.5 1t-36.5 1h-37q-2 -13 -2 -59q0 -104 32 -139t84 -35q100 0 160 88q17 0 23 -13q-5 -21 -46 -130t-55 -136
q-11 -15 -68 -38q-55 -23 -128 -23q-141 0 -204 91t-63 273zM326 723v-115q64 0 110 6q2 7 2 35q0 50 -22 88q-22 39 -66 39q-4 0 -10 -1t-8 -1h-4q-2 -34 -2 -51z" />
    <glyph glyph-name="f" unicode="f" horiz-adv-x="516" 
d="M25 797h-37l118 155v195q52 86 118 162q71 80 124 118q14 6 23 9q21 8 69 8q28 0 64 -14q14 -7 20 -13l-57 -266q-52 39 -127 39v-238h131q22 0 66 2l-140 -155h-57q0 -435 2 -539q0 -94 2 -260h-242q0 80 2 260q0 74 1 257t1 282q-17 0 -44.5 -1t-36.5 -1z" />
    <glyph glyph-name="g" unicode="g" horiz-adv-x="817" 
d="M61 322q0 88 12 265q5 78 12 143q8 69 13 89q32 35 123 100q81 56 133 85q2 0 10.5 1.5l14.5 2.5q17 4 59 4q61 0 154 -19q21 -5 57 -16l96 27q-2 -122 -2 -191q-2 -77 -2 -403q0 -337 2 -410q0 -68 2 -178q-46 -58 -132 -141.5t-138 -120.5q-38 -9 -72 -9q-96 0 -178 46
t-139 114l203 199q72 -111 194 -115v88q0 22 1 105t1 143q-106 -110 -125 -127q-37 -20 -110 -20q-38 0 -67.5 12t-49 29.5t-33.5 47t-21.5 56t-11.5 64.5t-5 64.5t-1 64.5zM315 506q0 -52 1 -81.5t4.5 -70.5t11.5 -64t21.5 -46t35 -33t51.5 -10q27 0 45 6v104q0 29 1 99.5
t1 103.5q0 38 -1 104.5t-1 90.5v86q-41 12 -84 12q-33 0 -63 -6q-23 -136 -23 -295z" />
    <glyph glyph-name="h" unicode="h" horiz-adv-x="831" 
d="M336 0h-264q0 69 2 229q4 185 4 508q0 302 -4 477q-2 154 -2 220h264q-2 -118 -2 -187q-2 -75 -2 -397l41 41l61 61q20 17 33.5 26t40.5 17.5t61 8.5q88 0 144.5 -65t56.5 -159q0 -22 -2 -149.5t-2 -220.5q0 -228 2 -281q0 -47 2 -129h-270q0 67 2 213q0 59 1 203.5
t1 218.5q0 54 -33.5 87.5t-85.5 33.5q-30 0 -53 -11q0 -427 2 -520q0 -87 2 -225z" />
    <glyph glyph-name="i" unicode="i" horiz-adv-x="421" 
d="M31 1212q17 17 28 33q9 11 30.5 35t31.5 37l74 90l28 -14l66 -33l76 -37q6 -3 18 -8.5t18 -7.5l-26 -29l-60 -66q-14 -14 -57 -65q-9 -11 -27 -31l-30 14q-14 6 -70 35q-10 4 -33.5 16.5t-34.5 16.5q-26 12 -32 14zM344 0h-264q0 48 2 160q0 44 1 163t1 189q0 62 -1 174
t-1 154q-2 106 -2 151h264q-2 -96 -2 -151q-2 -61 -2 -328q0 -289 2 -352q0 -58 2 -160z" />
    <glyph glyph-name="j" unicode="j" horiz-adv-x="421" 
d="M31 1212q17 17 28 33q9 11 30.5 35t31.5 37l74 90l28 -14l66 -33l76 -37q6 -3 18 -8.5t18 -7.5l-26 -29l-60 -66q-14 -14 -57 -65q-9 -11 -27 -31l-30 14q-14 6 -70 35q-10 4 -33.5 16.5t-34.5 16.5q-26 12 -32 14zM35 -422q42 63 51.5 136.5t9.5 240.5q0 255 -1 378
q-1 185 -3 333q-2 230 -2 325h248q-2 -180 -2 -293q-2 -120 -2 -678q0 -230 -23 -256q-152 -142 -248 -213q-25 4 -28 27z" />
    <glyph glyph-name="k" unicode="k" horiz-adv-x="833" 
d="M338 0h-266q0 69 2 229q4 185 4 508q0 302 -4 477q-2 154 -2 220h266q-2 -112 -2 -181q-2 -73 -2 -395q27 29 53 53l86 82q41 19 100 19q35 0 67 -12t63 -40.5t50 -85.5t19 -137q0 -45 -6 -69l-158 -97q82 -8 122 -52t40 -116v-278q0 -49 2 -125h-260v98q0 28 1 96t1 101
q0 57 -36.5 92t-96.5 35q-26 0 -47 -8q0 -228 2 -281q0 -49 2 -133zM334 760v-273l129 74q27 14 35 36.5t8 61.5q0 50 -28 79.5t-85 29.5q-29 0 -59 -8z" />
    <glyph glyph-name="l" unicode="l" horiz-adv-x="413" 
d="M342 0h-270q0 61 2 211q4 175 4 506q0 284 -4 475q-2 164 -2 242h270q0 -39 -1.5 -121.5t-2.5 -126.5q-2 -95 -2 -469q0 -423 2 -510q1 -41 2.5 -111t1.5 -96z" />
    <glyph glyph-name="m" unicode="m" horiz-adv-x="1212" 
d="M336 0h-264q0 44 2 154q0 43 1 163t1 195q0 53 -1 163t-1 156q-2 110 -2 160h266q-2 -24 -2 -41v-88l96 96q24 27 52 36.5t77 9.5q60 0 116.5 -39.5t63.5 -116.5q22 25 41 43l66 67q46 46 113 46q75 0 132.5 -57.5t57.5 -170.5q0 -63 -2 -168t-2 -178q0 -238 2 -293
q0 -51 2 -137h-256q0 42 2 168q0 43 1 192.5t1 253.5q0 71 -24.5 106.5t-81.5 35.5q-27 0 -48 -8q-2 -42 -2 -72v-205q0 -248 2 -309q0 -82 3 -162h-263q0 32 2 154q0 40 1 193t1 267q0 140 -108 142q-27 0 -45 -8q-2 -42 -2 -72q-2 -31 -2 -205q0 -248 2 -309q0 -56 2 -162
z" />
    <glyph glyph-name="n" unicode="n" 
d="M336 0h-264q0 29 2 125q4 108 4 354q0 250 -4 371q-2 106 -2 141h264v-153q21 24 51 61.5t41.5 50t33 29t43.5 21t56 4.5q86 0 146 -60q59 -62 59 -158q0 -57 -2 -172t-2 -204q0 -218 2 -271q1 -25 2.5 -71.5t1.5 -67.5h-260q0 88 2 238q0 71 1 196t1 160q0 168 -117 168
q-23 0 -45 -6q-7 -4 -14 -6q0 -17 -1.5 -59.5t-2.5 -67.5q-2 -51 -2 -267q0 -204 2 -247q1 -20 2.5 -56.5t1.5 -52.5z" />
    <glyph glyph-name="o" unicode="o" horiz-adv-x="815" 
d="M51 426q-2 170 23 343l8 52q1 0 13.5 10.5t49.5 37.5t86 59q32 21 71.5 42t43.5 23q20 7 33 15q2 0 12 2q3 0 14.5 1t18.5 1q220 0 301 -160q34 -64 41 -154q8 -98 8 -188q0 -69 -5 -143t-10.5 -116.5t-8.5 -51.5q-4 -9 -58.5 -54.5t-89.5 -68.5q-48 -34 -83 -56
q-45 -29 -75 -40q-22 -5 -53 -5q-230 0 -301 168q-39 86 -39 283zM305 514q2 -141 17 -195q31 -109 131 -108q27 0 45 8q9 26 15.5 100t6.5 154q0 295 -153 295q-29 0 -43 -6q-8 -40 -11 -68q-8 -70 -8 -180z" />
    <glyph glyph-name="p" unicode="p" 
d="M342 -449h-270q0 66 2 226q4 181 4 487q0 309 -4 496q-2 162 -2 231h270l-4 -131l49 53q36 42 76 74q28 25 82 25q69 0 117 -31q114 -72 114 -260q0 -59 -12 -306q-7 -144 -19 -216q-49 -57 -118.5 -116t-128.5 -95q-15 -4 -60 -4q-41 0 -71 8q-27 7 -29 8q0 -329 2 -371
q0 -48 2 -78zM338 752v-537q45 -33 119 -33q36 0 53 4q0 39 2 133q4 105 4 285q0 152 -137 152q-7 0 -18 -1t-13 -1t-5 -1q-4 -1 -5 -1z" />
    <glyph glyph-name="q" unicode="q" horiz-adv-x="843" 
d="M70 367q0 152 7.5 243.5t28.5 204.5q50 46 137 106.5t134 82.5q5 0 16.5 1.5t18.5 2.5q28 4 75 4q59 0 136 -17l31.5 -8l23.5 -6l94 23q0 -38 -1.5 -116t-2.5 -118q-2 -91 -2 -463q0 -437 2 -530q1 -45 2.5 -121t1.5 -105h-268q0 47 2 173q0 45 1 183t1 224l-49 -51
l-72 -72q-43 -18 -115 -18q-31 -1 -55.5 5t-53 28.5t-47.5 61.5t-32.5 111t-13.5 171zM326 485q0 -57 4.5 -100.5t16.5 -86.5t38.5 -66t65.5 -23q34 0 57 12v561q-37 25 -94 25q-36 0 -68 -12q-5 -27 -10 -78q-10 -104 -10 -232z" />
    <glyph glyph-name="r" unicode="r" horiz-adv-x="593" 
d="M338 0h-266q0 40 2 150q0 41 1 159.5t1 192.5q0 58 -1 170t-1 157q-2 110 -2 162h264l-4 -186l26 47q23 44 60 104q25 48 104 48q26 0 45 -9q7 -4 17 -6l-56 -334q-40 35 -102 35q-58 0 -94 -31q0 -339 2 -426q1 -39 2.5 -117t1.5 -116z" />
    <glyph glyph-name="s" unicode="s" horiz-adv-x="647" 
d="M41 604q0 99 33 178q44 52 133.5 126t148.5 96q65 0 114 -20t74.5 -52t37.5 -63.5t14 -63.5l-211 -141q-12 33 -27 57q-33 55 -75 61q-7 -27 -9 -53q0 -47 28 -75.5t85 -32.5q117 -10 168 -68.5t51 -181.5q0 -95 -18 -160q-37 -61 -129.5 -138.5t-147.5 -88.5
q-9 -2 -37 -2q-53 0 -94.5 17.5t-67.5 48t-41 62.5t-24 70l217 142q5 -36 19 -60q24 -57 88 -57q2 14 2 55q0 64 -22 86q-23 22 -87 27q-104 4 -163.5 62t-59.5 169z" />
    <glyph glyph-name="t" unicode="t" horiz-adv-x="520" 
d="M16 797h-36l118 155q0 29 -1 77.5t-1 66.5v61l250 39q0 -13 -2 -40.5t-2 -41.5q-2 -31 -2 -162h131q22 0 66 2l-140 -155h-57q-2 -158 -2 -219v-279q0 -82 63 -82q39 0 62 21q12 -4 16 -17q-36 -59 -75 -112q-80 -109 -82 -111q-16 -16 -70 -16q-67 0 -113 40
q-47 39 -47 119q0 4 1 135t1 222q0 36 1.5 137t2.5 162q-16 0 -44 -1t-38 -1z" />
    <glyph glyph-name="u" unicode="u" horiz-adv-x="831" 
d="M72 297q0 90 1 148t1 169q0 53 -1 141.5t-1 121.5v114h260q-2 -134 -2 -207q-2 -82 -2 -422q0 -86 28.5 -121.5t83.5 -35.5q28 0 43 4q3 1 13 4v279q0 90 -1 147t-1 164q-2 122 -2 188h268q-2 -106 -2 -162q-2 -64 -2 -333q0 -287 2 -346q0 -60 2 -150h-266v37q0 8 1 39
t1 53l-18 -21.5t-17 -19.5q-31 -38 -78 -84q-24 -20 -98 -20q-52 0 -90.5 16.5t-61.5 43.5t-37 68.5t-19 85t-5 99.5z" />
    <glyph glyph-name="v" unicode="v" horiz-adv-x="823" 
d="M72 375q0 14 1 109t1 171q0 39 -1 116.5t-1 109.5v110h268q-2 -70 -2 -108v-228q0 -231 2 -260q4 -67 33 -106t84 -39q23 0 39 6v74q0 21 1 71.5t1 79.5q0 36 -1 89t-1 79q0 55 -22 81t-75 26q-4 0 -11 -1t-9 -1l-8 -2l202 252h13q174 0 174 -234q0 -208 -1 -281t-1 -196
q-60 -72 -163 -167.5t-169 -141.5q-29 0 -59 6q-73 10 -123 37q-103 52 -138 142q-34 87 -34 206z" />
    <glyph glyph-name="w" unicode="w" horiz-adv-x="1216" 
d="M72 297q0 5 1 128t1 210q0 46 -1 130t-1 116v110h262q0 -34 -1.5 -104t-2.5 -105q-4 -160 -4 -385q0 -63 36.5 -104t100.5 -41q23 0 33 4v66q0 17 1 72.5t1 92.5t-1 81t-1 53v34q0 99 -80 101q-23 0 -47 -6l211 254q60 0 111.5 -46.5t51.5 -134.5v-426q0 -76 37.5 -114.5
t102.5 -38.5q21 0 30 4v69q0 19 1 77t1 98q0 36 -1 78.5t-1 50.5v34q0 51 -23.5 76t-62.5 25q-20 0 -41 -6l207 254q17 0 40 -7t52.5 -24.5t49.5 -57t20 -94.5q-2 -60 -2 -86v-141q0 -59 1 -147.5t1 -114.5q-14 -18 -68 -74l-105 -102l-108 -103q-52 -49 -81 -69
q-55 0 -103 17t-82 46t-55.5 54t-38.5 53q-35 -35 -96 -89.5t-94 -80.5q-96 24 -168 94q-47 42 -65.5 92t-18.5 127z" />
    <glyph glyph-name="x" unicode="x" horiz-adv-x="739" 
d="M10 0l47 285q23 -6 52 -6q53 0 87 22.5t58 69.5l-14 164q-10 110 -40 155t-91 45q-51 0 -97 -33l166 289q25 13 66 13q83 0 141.5 -74.5t71.5 -173.5l14.5 45.5t14.5 42t18 43.5l19.5 36.5t24.5 34l28 23.5t35.5 18t41.5 5q42 0 70 -13l-47 -286q-34 8 -62 8
q-52 0 -84 -24t-55 -81l10 -123q10 -121 41.5 -173t96.5 -52q58 0 106 31l-178 -291q-31 -16 -68 -16q-79 0 -137 69q-58 67 -78 180q-26 -123 -75 -186t-111 -63q-41 0 -72 16z" />
    <glyph glyph-name="y" unicode="y" horiz-adv-x="821" 
d="M74 242q0 18 2 121t2 210q0 50 -1 148t-1 135q-2 94 -2 135h264q-2 -128 -2 -203q-2 -82 -2 -450q0 -62 28.5 -92.5t71.5 -30.5q32 0 60 18q0 120 -1 302.5t-1 240.5q-2 121 -3 215h261q-2 -102 -2 -157v-353v-450q0 -77 2 -211q-40 -56 -129.5 -140.5t-145.5 -119.5
q-38 -9 -72 -9q-104 0 -187 47q-84 49 -130 113l201 195q18 -40 78.5 -79.5t123.5 -39.5v344q-26 -24 -38 -37q-57 -57 -68 -67q-46 -43 -117 -43q-75 0 -121 43q-49 45 -60 108q-11 64 -11 107z" />
    <glyph glyph-name="z" unicode="z" horiz-adv-x="606" 
d="M532 0h-505l49 121q52 123 110 289l84 243l35 103q-125 0 -188 -4q-54 -2 -76 -2l70 241h469q-19 -44 -45 -112l-95 -244q-22 -54 -54 -146.5t-42 -119.5l-43 -123q156 0 191 2q16 1 45 2.5t41 1.5z" />
    <glyph glyph-name="braceleft" unicode="{" horiz-adv-x="608" 
d="M41 629l61 205q34 0 48 2q3 1 8 2.5t6 1.5q2 31 2 114q0 188 -4 279q-2 78 -2 106q45 76 116 156q67 78 136 125q4 2 13 4.5t13 3.5q32 10 70 10q25 0 61 -14q3 -2 9.5 -7t9.5 -7l-56 -264q-50 38 -118 38h-8q-1 -44 -5 -157q-2 -64 -2 -377q-19 -65 -92 -123
q92 -53 92 -176q0 -302 2 -361q1 -63 5 -141h8q69 0 118 39l56 -264q-7 -7 -19 -14q-22 -13 -61 -15q-43 0 -70 8q-18 6 -26 11q-68 47 -136 124q-71 80 -116 156q0 20 2 94q4 84 4 295q0 74 -27.5 108t-97.5 38z" />
    <glyph glyph-name="bar" unicode="|" horiz-adv-x="376" 
d="M295 -154h-213q0 77 2 269q0 75 1 276t1 316q0 109 -1 302t-1 265q-2 182 -2 262h213q-2 -166 -2 -262q-2 -104 -2 -567q0 -483 2 -592q0 -101 2 -269z" />
    <glyph glyph-name="braceright" unicode="}" horiz-adv-x="608" 
d="M20 -176l56 264q51 -39 119 -39h8q0 48 2 168q4 139 4 387q20 70 92 123q-92 53 -92 176q0 238 -4 350q-2 98 -2 131h-8q-68 0 -119 -38l-56 264q5 4 19 14q36 14 61 14q38 0 70 -10q4 -1 13 -3.5t14 -4.5q69 -47 136 -125q69 -80 116 -156q-1 -12 -2.5 -40.5t-2.5 -43.5
q-2 -40 -2 -284q0 -78 27 -110t98 -36l-61 -204q-21 0 -47 -7q-2 0 -7 -2t-8 -2q-2 -33 -2 -110q0 -242 2 -289q1 -52 5 -117q-45 -76 -116 -156q-72 -80 -136 -124q-15 -7 -27 -11q-26 -8 -70 -8q-42 0 -61 15q-7 4 -19 14z" />
    <glyph glyph-name="asciitilde" unicode="~" horiz-adv-x="1007" 
d="M61 756l68 192q19 54 68 56q19 0 43 -7l573 -151q30 -8 49 -8q53 0 84 55l-67 -193q-19 -55 -68 -55q-17 0 -43 6l-573 152q-30 8 -50 8q-53 0 -84 -55z" />
    <glyph glyph-name="uni00A0" unicode="&#xa0;" horiz-adv-x="460" 
 />
    <glyph glyph-name="exclamdown" unicode="&#xa1;" horiz-adv-x="520" 
d="M82 846l192 164q21 -49 70 -105q44 -53 94 -88l-192 -164q-47 33 -94 88t-70 105zM383 -438l-254 -21q0 40 2 146q4 121 4 366q0 246 -4 367q-2 106 -2 145l254 21q0 -18 -1.5 -67.5t-2.5 -78.5q-2 -61 -2 -366q0 -306 2 -367q1 -30 2.5 -79.5t1.5 -65.5z" />
    <glyph glyph-name="cent" unicode="&#xa2;" horiz-adv-x="661" 
d="M55 565q0 162 15 307l8.5 79.5l7.5 68.5q39 49 112 108q73 58 160 91q0 31 -1 77.5t-1 61.5v55l115 31q-2 -36 -2 -64q-2 -27 -2 -166q113 -29 164 -102l-117 -227q-28 34 -47 51v-479q48 6 78 41q15 18 24 34q25 0 35 -16q-18 -55 -52 -137.5t-58 -122.5q-1 -4 -7 -6
q-2 -2 -8.5 -4.5t-9.5 -5.5v-160q0 -26 2 -60l-115 -30v59q0 16 1 69t1 89q-28 -6 -55 -6q-137 0 -192 99q-56 100 -56 265zM295 700q0 -94 9 -150t56 -77v502q-2 0 -8 2q-2 0 -8 1t-10 1q-6 0 -11.5 -1t-7.5 -1q-1 0 -3 -1t-3 -1q-2 -15 -4.5 -44.5l-3.5 -41.5
q-6 -62 -6 -189z" />
    <glyph glyph-name="sterling" unicode="&#xa3;" horiz-adv-x="1007" 
d="M797 0h-766l67 215q64 0 97 8t57 27q2 75 2 446q-40 -2 -154 -2q-27 0 -67 -2l67 213q26 -2 45 -2q11 0 48 -1t61 -1q0 72 -0.5 137.5t-1 104t-0.5 45.5q10 14 75.5 64t131.5 91q134 82 198 101q145 0 233 -64q87 -64 87 -215l-279 -141q2 9 2 35q0 46 -14 79t-36 48
t-43 21.5t-42 6.5q-7 0 -15 -1t-9 -1q-8 -2 -9 -2q-2 -52 -2 -88q-2 -37 -2 -221q129 0 158 2q26 0 70 2l-68 -213h-47q-14 0 -51.5 1t-61.5 1q0 -153 2 -252.5t3.5 -136.5t1.5 -39q-6 -15 -52 -51h148q97 0 223 10q68 6 102 11z" />
    <glyph glyph-name="currency" unicode="&#xa4;" horiz-adv-x="825" 
d="M115 313l-72 142q3 2 7 5t9 7.5t9 7.5l28 25t37 32q-27 66 -27 154q0 118 46 207l-41.5 40.5l-34.5 33.5q-15 12 -27 26l144 74l20 -25q5 -5 23.5 -26.5t31.5 -34.5l11 6l92 51l14.5 7.5t11.5 5.5q139 0 219 -68q44 38 70 66l27 24l69 -141q-14 -14 -22 -21
q-6 -6 -62 -53q17 -54 19 -121q0 -76 -17 -130q-18 -53 -22 -62q-7 -13 -35 -39q51 -50 78 -72q4 -3 14 -11.5l15 -12.5l-144 -76q-5 7 -20 22q-35 35 -58 60q-86 -47 -106 -49q-9 -2 -29 -2q-102 0 -172 49l-29 -28.5l-28.5 -27.5t-20.5 -18q-20 -20 -28 -27zM311 733
q0 -71 34 -126q35 -56 106 -56q15 0 24 2q33 56 33 135q0 72 -35.5 124t-103.5 52h-7q-2 0 -8 -1t-8 -1q-10 -13 -18 -35q-17 -45 -17 -94z" />
    <glyph glyph-name="yen" unicode="&#xa5;" horiz-adv-x="804" 
d="M199 813l-170 621h299l123 -506l108 506h215l-172 -623q26 0 63 1t50 1q17 0 47 2l-68 -213h-43q-12 0 -47 1t-57 1v-59q124 0 149 2q24 0 66 2l-68 -213h-43q-12 0 -47 1t-57 1q0 -166 4 -246q2 -70 2 -92h-287q0 28 2 98q2 32 2.5 113.5t1.5 128.5q-42 -2 -163 -2
q-26 0 -70 -2l67 213q30 -2 50 -2q14 0 53 -1t63 -1l-16 61q-40 -2 -152 -2q-25 0 -65 -2l67 213q16 -2 27 -2h66z" />
    <glyph glyph-name="brokenbar" unicode="&#xa6;" horiz-adv-x="376" 
d="M295 -154h-213q0 58 2 224q0 60 1 243.5t1 300.5h205q0 -451 2 -544q0 -90 2 -224zM82 1536h213q-2 -130 -2 -215q-2 -89 -2 -522h-205q-2 137 -2 522q0 85 -2 215z" />
    <glyph glyph-name="section" unicode="&#xa7;" horiz-adv-x="985" 
d="M61 -150l267 107q5 -41 12 -74q21 -74 70 -80q24 70 24 154q0 41 -8 72t-20.5 52.5t-36 40t-47.5 30.5t-62 28q-102 42 -150.5 118t-48.5 220q0 161 68 316l170 122q5 163 68 301l256 187q275 0 288 -275l-264 -131q-5 39 -12 72q-20 72 -70 78q-12 -86 -12 -174
q0 -59 18 -87t58 -48q131 -67 145 -76q150 -91 150 -301q0 -92 -29 -219q-12 -49 -27 -97l-186 -166q-11 -114 -29 -182q-13 -50 -22 -76l-232 -206q-31 -5 -65 -5q-59 0 -104 13t-84.5 44.5t-61 92.5t-23.5 149zM315 590q0 -59 18 -87t58 -48q118 -59 146 -76
q80 -47 116 -129q17 58 17 145q0 44 -12 77.5t-38 57.5t-52.5 39.5t-69.5 34.5q-62 28 -104 63t-66 95q-11 -81 -13 -172z" />
    <glyph glyph-name="dieresis" unicode="&#xa8;" horiz-adv-x="894" 
d="M61 1210q16 16 29 33q9 11 30.5 35t31.5 37l73 90l29 -14q3 -2 26 -13.5l39 -19.5l76 -37q4 -2 17 -7.5l20 -8.5l-26 -29q-7 -9 -28 -31t-32 -35q-14 -14 -57 -65q-9 -11 -27 -31l-31 14q-20 8 -69 35q-10 4 -33.5 16.5t-34.5 16.5q-22 10 -33 14zM463 1210q16 16 29 33
q7 9 28.5 33t32.5 39l74 90l28 -14l66 -33l76 -37q4 -2 17 -7.5l20 -8.5q-16 -18 -27 -29q-7 -9 -27.5 -31t-31.5 -35q-21 -21 -58 -65l-26 -31l-31 14q-14 6 -70 35q-11 5 -34 17t-33 16q-22 10 -33 14z" />
    <glyph glyph-name="copyright" unicode="&#xa9;" horiz-adv-x="1515" 
d="M41 717q0 193 96 358.5t261.5 262t359.5 96.5q193 0 358.5 -96.5t262 -262t96.5 -358.5q0 -145 -55.5 -277t-154.5 -230q-99 -99 -231 -154.5t-276 -55.5q-145 0 -276.5 55.5t-230.5 154.5t-154.5 230.5t-55.5 276.5zM143 717q0 -124 49 -238t131.5 -196.5t196.5 -131.5
t238 -49q166 0 307.5 82.5t224 224.5t82.5 308t-82.5 307.5t-224 224t-307.5 82.5t-308 -82.5t-224.5 -224t-82.5 -307.5zM551 676q0 72 13 162t20 112q4 9 33 34t63 48q74 51 104 51q40 0 67.5 -8.5t51.5 -36.5q31 -33 31 -88v-6l-139 -70v17q0 51 -26 65q-25 13 -44 13
q-3 0 -6 -1t-4 -1h-4q-8 -50 -11 -76q-10 -94 -10 -174q0 -60 2 -78q3 -46 15.5 -79t26 -48.5t35.5 -24t33.5 -9.5t31.5 -1q49 0 90 39q2 0 8 -4t6 -6q-32 -64 -68 -113q-22 -29 -46.5 -38t-69.5 -9q-98 0 -150 78q-33 49 -43 106t-10 146z" />
    <glyph glyph-name="ordfeminine" unicode="&#xaa;" horiz-adv-x="559" 
d="M178 717l-117 -6l17 77q6 26 18 91t19 98q8 52 26 156.5t25 148.5l24 152l172 6q13 -77 27 -152l55 -311q5 -23 17 -87.5t18 -92.5q5 -32 19 -80l-152 -6q-7 51 -10 71q-3 21 -12 67t-11 66h-110l-9.5 -72.5t-7.5 -58.5t-3.5 -33t-4.5 -34zM256 1266l-39 -248h82z" />
    <glyph glyph-name="guillemotleft" unicode="&#xab;" horiz-adv-x="983" 
d="M72 410v204q224 139 399 267v-246q-123 -57 -225 -123q102 -66 225 -123v-246q-175 128 -399 267zM502 410v204q232 144 399 267v-246q-123 -57 -225 -123q102 -66 225 -123v-246q-167 123 -399 267z" />
    <glyph glyph-name="logicalnot" unicode="&#xac;" horiz-adv-x="915" 
d="M37 551l72 213q90 -2 145 -2q59 -2 315 -2h267q0 -267 2 -326q0 -55 2 -139h-226q2 44 2 74q0 137 2 186h-120q-61 0 -168 -1t-148 -1q-104 -2 -145 -2z" />
    <glyph glyph-name="uni00AD" unicode="&#xad;" horiz-adv-x="722" 
d="M41 362l125 199q15 24 32.5 32.5t53.5 8.5h297q52 0 77 4q28 5 56 31l-125 -199q-15 -24 -32.5 -32.5t-53.5 -8.5h-297q-52 0 -76 -4q-29 -5 -57 -31z" />
    <glyph glyph-name="registered" unicode="&#xae;" horiz-adv-x="1515" 
d="M41 717q0 193 96 358.5t261.5 262t359.5 96.5q193 0 358.5 -96.5t262 -262t96.5 -358.5q0 -145 -55.5 -277t-154.5 -230q-99 -99 -231 -154.5t-276 -55.5q-145 0 -276.5 55.5t-230.5 154.5t-154.5 230.5t-55.5 276.5zM143 717q0 -124 49 -238t131.5 -196.5t196.5 -131.5
t238 -49q166 0 307.5 82.5t224 224.5t82.5 308t-82.5 307.5t-224 224t-307.5 82.5t-308 -82.5t-224.5 -224t-82.5 -307.5zM727 356h-145v109q0 29 1 114.5t1 137.5q0 47 -1 128t-1 113v115q11 0 47 2q13 0 53 1t66 1q92 0 133 -28q29 -17 49 -53t20 -81q0 -68 -32 -112
q-33 -45 -70 -66q15 -51 16 -55q18 -60 45 -133q7 -21 25 -64t24 -61l25 -64l-158 -10l-100 303v-135v-110q0 -18 2 -52zM725 963v-226q2 0 12 2q2 1 12.5 3t18.5 6q13 5 28 36.5t15 73.5q0 70 -25 89q-26 18 -49 18q-6 0 -12 -2z" />
    <glyph glyph-name="overscore" unicode="&#xaf;" horiz-adv-x="819" 
d="M51 1122l68 193q54 -2 94 -2q40 -2 242 -2q188 0 225 2q36 0 88 2l-68 -193q-22 0 -92 2q-25 0 -106.5 1t-136.5 1q-51 0 -127 -1t-99 -1q-66 -2 -88 -2z" />
    <glyph glyph-name="degree" unicode="&#xb0;" horiz-adv-x="604" 
d="M45 1112q0 71 11 132q11 60 14 67q4 3 14.5 11.5l16.5 13.5q13 11 79 50q51 29 84 46l25 12q278 0 278 -293q0 -54 -8.5 -102.5t-15.5 -65.5q-8 -12 -47 -44t-66 -50l-61 -41q-34 -22 -58 -27q-9 -2 -26 -2q-240 0 -240 293zM225 1163q0 -30 4.5 -57.5t15.5 -55.5
t34.5 -44.5t56.5 -16.5q8 0 22 2q19 57 19 123q0 160 -115 160h-6q-2 0 -7 -1t-7 -1q-4 -11 -9 -29q-8 -30 -8 -80z" />
    <glyph glyph-name="plusminus" unicode="&#xb1;" horiz-adv-x="849" 
d="M57 -4l74 213q58 -2 96 -2q42 -2 246 -2q191 0 229 2q37 0 91 2l-74 -213q-26 0 -96 2q-27 0 -109 1t-137 1q-51 0 -128.5 -1t-101.5 -1q-68 -2 -90 -2zM57 537l74 213q26 -2 47 -2q31 -3 139 -3q0 108 -4 168q-2 52 -2 78h226q-1 -26 -5 -78q-2 -31 -2 -168q156 0 191 3
q28 0 72 2l-74 -213q-26 2 -47 2q-99 0 -142 2q0 -139 2 -170q1 -32 5 -76h-226q0 22 2 76q4 63 4 170q-53 -2 -190 -2q-28 0 -70 -2z" />
    <glyph glyph-name="twosuperior" unicode="&#xb2;" horiz-adv-x="450" 
d="M61 1307q16 24 25 36q23 37 39 56q39 45 104 45q103 0 129 -88q23 -69 23 -193q0 -95 -27 -194q-57 -72 -133 -138h31q43 0 57 3q19 0 60 12q4 2 26 10l-22 -139h-301l8 110q46 11 92 54q47 44 57 116q7 62 7 103q0 63 -7 112q-10 109 -88 109q-40 0 -65 -27
q-15 2 -15 13z" />
    <glyph glyph-name="threesuperior" unicode="&#xb3;" horiz-adv-x="417" 
d="M63 1051l33 41q7 7 26 31.5t28 31.5q13 7 34 12l21 4q12 31 12 80q0 39 -18.5 57.5t-48.5 18.5q-34 0 -58 -24q-6 0 -11 6t-5 10l26 37q7 11 21.5 28t17.5 21q30 39 97 39q120 0 120 -131q0 -38 -19 -70.5t-36.5 -46.5t-44.5 -31q34 -7 63.5 -28.5t40.5 -57.5
q13 -37 13 -94q0 -93 -21 -156q-34 -34 -139 -106q-31 -16 -68 -16q-57 0 -77 24l12 117q43 -31 96 -31q34 0 53 12q9 38 9 91q0 55 -19 92t-82 37q-31 0 -61 -15q-4 0 -9.5 6.5t-5.5 10.5z" />
    <glyph glyph-name="acute" unicode="&#xb4;" horiz-adv-x="575" 
d="M51 1104l66 229q28 5 55 13q48 11 143 36q105 28 150 43q29 7 59 19l-65 -227q-24 -6 -45 -13q-129 -33 -135 -35l-158 -45z" />
    <glyph glyph-name="mu" unicode="&#xb5;" horiz-adv-x="835" 
d="M338 -461h-266q0 70 2 236q0 64 1 241.5t1 280.5q0 111 -1 278.5t-1 219.5q-2 146 -2 196h264q-2 -94 -2 -164q-2 -71 -2 -469q0 -153 127 -153q19 0 30 4q2 1 6 2.5t5 1.5v145q0 115 -1 272t-1 197q-2 126 -2 164h268q-2 -106 -2 -162q-2 -64 -2 -333q0 -287 2 -346
q0 -60 2 -150h-266v35q0 8 1 37t1 51q-63 -78 -98 -104q-34 -27 -60 -27t-55.5 21.5t-44.5 47.5q17 -54 54.5 -113t37.5 -81q0 -149 2 -197q0 -41 2 -131z" />
    <glyph glyph-name="paragraph" unicode="&#xb6;" horiz-adv-x="1107" 
d="M51 915q0 115 10 194q10 93 13 110q32 32 141 118q47 36 71 53l64 40q31 4 121 4h627l-45 -209q-9 0 -29 2q-7 0 -27.5 1t-31.5 1q-2 -144 -2 -737v-320q0 -119 2 -305q0 -110 2 -316h-213q0 100 2 316q0 194 1 305t1 320q0 133 -1 390.5t-1 346.5h-66q0 -89 -1 -346.5
t-1 -390.5v-320q0 -119 2 -305q0 -110 2 -316h-213q0 100 2 316q0 194 1 305t1 320v233q-20 -24 -45 -49q-48 -54 -76 -72q-41 -22 -104 -22q-37 0 -65.5 7t-56 28.5t-45.5 57.5t-29 96.5t-11 143.5zM285 995q0 -209 110 -209q42 0 88 25l2 418q-100 0 -137 -4
q-30 -2 -39 -2q-9 -32 -16 -92q-8 -72 -8 -136z" />
    <glyph glyph-name="middot" unicode="&#xb7;" horiz-adv-x="479" 
d="M61 731l193 164q21 -49 70 -105q44 -53 94 -88l-193 -163q-47 33 -94 87t-70 105z" />
    <glyph glyph-name="cedilla" unicode="&#xb8;" horiz-adv-x="372" 
d="M41 -209q62 129 82 176q5 13 19.5 46l21.5 50l22 58l131 10q-10 -17 -18 -41q-34 -73 -37 -82q-21 -40 -41 -100q51 -4 83 -41t32 -100q0 -42 -19 -86l-64 -59q-12 -11 -58 -50q-30 -14 -66 -14q-59 0 -78 24l12 109q40 -31 95 -31q36 0 61 14q2 10 2 25q0 40 -26 67
t-74 27q-29 0 -70 -16q-10 4 -10 14z" />
    <glyph glyph-name="onesuperior" unicode="&#xb9;" horiz-adv-x="356" 
d="M254 717h-152q0 33 2 119q0 32 1 121.5t1 140.5q0 43 -1 121.5t-1 107.5q-2 74 -2 107l152 10q-2 -68 -2 -109q-2 -43 -2 -237q0 -215 2 -262q0 -45 2 -119z" />
    <glyph glyph-name="ordmasculine" unicode="&#xba;" horiz-adv-x="559" 
d="M61 1012q0 82 17 209q8 52 18 98q5 5 27 22l59 48l27.5 19t26.5 17q18 11 22 13q17 4 37 4q76 0 131 -58q72 -81 72 -239q0 -94 -19 -225q-7 -46 -18 -84q-20 -26 -72 -69t-80 -58q-10 -2 -35 -2q-59 0 -101.5 24.5t-66.5 68.5t-34.5 96.5t-10.5 115.5zM203 1051
q0 -105 29.5 -157t80.5 -52q14 0 25 4q2 11 4.5 34t3.5 29q10 78 10 158q0 53 -4.5 90.5t-17.5 75t-41 57t-70 19.5q-5 -23 -10 -66q-10 -88 -10 -192z" />
    <glyph glyph-name="guillemotright" unicode="&#xbb;" horiz-adv-x="983" 
d="M82 143v246q123 57 225 123q-102 66 -225 123v246q167 -123 399 -267v-204q-232 -144 -399 -267zM512 143v246q123 57 225 123q-102 66 -225 123v246q175 -128 399 -267v-204q-224 -139 -399 -267z" />
    <glyph glyph-name="onequarter" unicode="&#xbc;" horiz-adv-x="1265" 
d="M297 717h-152q0 33 2 119q0 32 1.5 121.5t1.5 140.5q0 43 -1.5 121.5t-1.5 107.5q-2 74 -2 107l152 10q-2 -68 -2 -109q-2 -43 -2 -237q0 -215 2 -262q0 -45 2 -119zM317 -102l-163 -11l127 287l121 284l128 310l218 537l92 231l159 10l-102 -235l-229 -543l-128 -309
l-112 -281zM934 219h-174v111l11 22.5t15 32.5l60 125l31.5 69.5t29.5 67.5l27 64l147 6q-2 -78 -2 -123v-252h62q10 0 28 2l-39 -125h-51v-153q0 -28 2 -66h-149v66q0 18 1 69.5t1 83.5zM934 569l-103 -225q14 -2 27 -2h76v31q0 9 1 31t1 36q0 16 -1 46.5t-1 41.5v41z" />
    <glyph glyph-name="onehalf" unicode="&#xbd;" horiz-adv-x="1261" 
d="M297 717h-152q0 33 2 119q0 32 1.5 121.5t1.5 140.5q0 43 -1.5 121.5t-1.5 107.5q-2 74 -2 107l152 10q-2 -68 -2 -109q-2 -43 -2 -237q0 -215 2 -262q0 -45 2 -119zM317 -102l-163 -11l127 287l121 284l128 310l218 537l92 231l159 10l-102 -235l-229 -543l-128 -309
l-112 -281zM805 590q16 24 24 37q21 33 39 55q39 45 105 45q100 0 129 -88q22 -66 22 -193q0 -84 -26 -194q-51 -64 -133 -137h30q45 0 58 2q21 0 59 12q9 4 27 10l-23 -139h-301l8 111q46 11 93 53q46 44 57 117q6 53 6 102q0 59 -6 113q-6 66 -32 87q-25 21 -56 21
q-40 0 -66 -26q-14 0 -14 12z" />
    <glyph glyph-name="threequarters" unicode="&#xbe;" horiz-adv-x="1388" 
d="M150 1051l18 23t14 18q7 7 26 31.5t28 31.5q13 7 34 12l21 4q12 31 12 80q0 39 -18.5 57.5t-48.5 18.5q-34 0 -58 -24q-6 0 -11 6t-5 10l26 37q7 11 21.5 28t17.5 21q30 39 97 39q120 0 120 -131q0 -38 -19 -70.5t-36.5 -46.5t-44.5 -31q34 -7 63.5 -28.5t41.5 -57.5
q12 -34 12 -94q0 -98 -21 -156q-34 -34 -139 -106q-31 -16 -68 -16q-57 0 -77 24l12 117q43 -31 96 -31q34 0 53 12q9 38 9 91q0 55 -19 92t-82 37q-31 0 -61 -15q-4 0 -9 6.5t-5 10.5zM440 -102l-164 -11l127 287l121 284l129 310l217 537l93 231l159 10l-102 -235
l-229 -543l-128 -309l-112 -281zM1059 219h-174v111l11 22.5t15 32.5l60 125l31.5 69.5t29.5 67.5l27 64l147 6q-2 -78 -2 -123v-252h62q10 0 28 2l-39 -125h-51v-153q0 -28 2 -66h-149v66q0 18 1 69.5t1 83.5zM1059 569l-103 -225q14 -2 27 -2h76v31q0 9 1 31t1 36
q0 16 -1 46.5t-1 41.5v41z" />
    <glyph glyph-name="questiondown" unicode="&#xbf;" horiz-adv-x="741" 
d="M74 -76q0 94 10 174q11 86 25 133q144 144 243 215q10 8 27 15q-2 22 -2 82q0 14 -2 32l250 21q0 -22 -1.5 -66t-2.5 -67q-3 -76 -3 -250q-102 57 -204 57q-57 0 -97 -22q-7 -31 -11 -68q-5 -45 -5 -127q0 -266 205 -266q66 0 139 39q20 -8 23 -25l-74 -88l-39.5 -46.5
l-43 -51t-32.5 -35.5q-46 -29 -133 -29q-93 0 -164 51q-70 52 -90 132q-18 76 -18 190zM313 856l193 164q21 -49 70 -105q44 -53 94 -88l-193 -163q-47 33 -94 87t-70 105z" />
    <glyph glyph-name="Agrave" unicode="&#xc0;" horiz-adv-x="884" 
d="M240 10l-230 -20q14 79 33 160q4 18 72 376l54 314l48 293l49 301l346 10l52 -303l51 -296l57 -319q48 -263 70 -354q29 -150 32 -162l-292 -20q-16 96 -23 145l-43 271h-225q-8 -48 -20.5 -146t-14.5 -115q-2 -23 -7.5 -68t-8.5 -67zM238 1618l-66 227q23 -9 60 -19
q16 -5 149 -43q87 -23 143 -36q51 -12 56 -13l65 -229l-39 11.5t-30 8.5l-158 45l-76 19.5t-59 15.5q-8 2 -23 6.5zM399 1102l-77 -492h165z" />
    <glyph glyph-name="Aacute" unicode="&#xc1;" horiz-adv-x="884" 
d="M240 10l-230 -20q14 79 33 160q4 18 72 376l54 314l48 293l49 301l346 10l52 -303l51 -296l57 -319q48 -263 70 -354q29 -150 32 -162l-292 -20q-16 96 -23 145l-43 271h-225q-8 -48 -20.5 -146t-14.5 -115q-2 -23 -7.5 -68t-8.5 -67zM221 1505l66 229q28 5 55 13
q48 11 143 36q105 28 150 43q29 7 59 19l-65 -227q-24 -6 -45 -13q-129 -33 -135 -35l-158 -45zM399 1102l-77 -492h165z" />
    <glyph glyph-name="Acircumflex" unicode="&#xc2;" horiz-adv-x="884" 
d="M240 10l-230 -20q14 79 33 160q4 18 72 376l54 314l48 293l49 301l346 10l52 -303l51 -296l57 -319q48 -263 70 -354q29 -150 32 -162l-292 -20q-16 96 -23 145l-43 271h-225q-8 -48 -20.5 -146t-14.5 -115q-2 -23 -7.5 -68t-8.5 -67zM276 1515l-186 -10q93 133 205 318
h307l95 -150q49 -74 110 -158l-258 -10q-63 117 -144 236q-59 -87 -129 -226zM399 1102l-77 -492h165z" />
    <glyph glyph-name="Atilde" unicode="&#xc3;" horiz-adv-x="884" 
d="M240 10l-230 -20q14 79 33 160q4 18 72 376l54 314l48 293l49 301l346 10l52 -303l51 -296l57 -319q48 -263 70 -354q29 -150 32 -162l-292 -20q-16 96 -23 145l-43 271h-225q-8 -48 -20.5 -146t-14.5 -115q-2 -23 -7.5 -68t-8.5 -67zM100 1565l68 192q19 54 67 56
q19 0 43 -7l379 -100q30 -8 49 -8q53 0 84 55l-67 -192q-19 -54 -68 -56q-19 0 -43 7l-379 100q-26 8 -49 8q-53 0 -84 -55zM399 1102l-77 -492h165z" />
    <glyph glyph-name="Adieresis" unicode="&#xc4;" horiz-adv-x="884" 
d="M240 10l-230 -20q14 79 33 160q4 18 72 376l54 314l48 293l49 301l346 10l52 -303l51 -296l57 -319q48 -263 70 -354q29 -150 32 -162l-292 -20q-16 96 -23 145l-43 271h-225q-8 -48 -20.5 -146t-14.5 -115q-2 -23 -7.5 -68t-8.5 -67zM51 1601q16 16 29 33q9 11 30.5 35
t31.5 37l73 90l29 -14q3 -1 26 -13l39 -20l76 -37q4 -2 17 -7.5l20 -8.5l-26 -29q-7 -9 -28 -31t-32 -35q-14 -14 -57 -65q-9 -11 -27 -31l-31 14q-20 8 -69 35q-10 4 -33.5 16.5t-34.5 16.5q-22 10 -33 14zM399 1102l-77 -492h165zM453 1601q16 16 29 33q7 9 28.5 33
t32.5 39l74 90l28 -14l66 -33l76 -37q4 -2 17 -7.5l20 -8.5q-16 -18 -27 -29q-7 -9 -27.5 -31t-31.5 -35q-21 -21 -58 -65l-26 -31l-31 14q-14 6 -70 35q-11 5 -34 17t-33 16q-22 10 -33 14z" />
    <glyph glyph-name="Aring" unicode="&#xc5;" horiz-adv-x="884" 
d="M240 10l-230 -20q14 79 33 160q4 18 72 376l54 314l48 293l49 301l346 10l52 -303l51 -296l57 -319q48 -263 70 -354q29 -150 32 -162l-292 -20q-16 96 -23 145l-43 271h-225q-8 -48 -20.5 -146t-14.5 -115q-2 -23 -7.5 -68t-8.5 -67zM276 1661q0 112 115 170
q19 12 45 12q51 0 88 -31q57 -51 57 -123q0 -92 -96 -164q-32 -20 -63 -20q-58 0 -102 44t-44 112zM399 1102l-77 -492h165zM356 1695q0 -51 25.5 -81.5t68.5 -30.5q33 0 37 6q19 31 19 70q0 49 -31 80.5t-74 31.5q-18 0 -24 -6q-21 -21 -21 -70z" />
    <glyph glyph-name="AE" unicode="&#xc6;" horiz-adv-x="1038" 
d="M240 6l-230 -16q14 79 33 160q4 18 72 376l54 314l48 293l49 301h740l-134 -220q-30 0 -61 3q-17 0 -63 1t-76 1v-379q171 0 209 2q36 0 94 2l-113 -213q-17 0 -57 2q-16 0 -60.5 1t-72.5 1v-420q194 0 237 2q39 0 109 2l-115 -219h-506q2 68 2 117q0 212 2 289h-110
q-8 -47 -20 -145t-15 -118l-8.5 -72t-7.5 -65zM401 1112l-79 -502h81v107q0 317 -2 395z" />
    <glyph glyph-name="Ccedilla" unicode="&#xc7;" horiz-adv-x="862" 
d="M61 633q0 147 26 328t40 217q4 15 62.5 65.5t127.5 99.5q145 101 209 101q60 0 124 -14q62 -15 114 -76q59 -74 59 -176v-13l-278 -139q2 9 2 35q0 48 -14.5 81t-38.5 47.5t-44 19.5t-42 5q-4 0 -11.5 -1t-9.5 -1h-6q-15 -72 -23 -149q-20 -169 -20 -350q0 -112 4 -154
q4 -52 13.5 -96t21 -75t30.5 -55.5t34 -40t39.5 -26.5t39 -16t39.5 -8t34.5 -3.5t31.5 -0.5q99 0 178 75q1 1 15 -6q13 -7 11 -12l-24 -46t-53.5 -96t-55.5 -83q-57 -78 -153 -90q-22 -42 -29 -72q51 -4 83 -41t32 -100q0 -42 -19 -86l-64 -59q-27 -25 -59 -50
q-30 -14 -65 -14q-58 0 -78 24l12 109q40 -31 95 -31q36 0 61 14q2 10 2 25q0 40 -26 67t-74 27q-29 0 -70 -16q-10 4 -10 14q37 74 86 189q-170 21 -252 151q-67 103 -87 226q-20 125 -20 276z" />
    <glyph glyph-name="Egrave" unicode="&#xc8;" horiz-adv-x="722" 
d="M588 0h-506q0 67 2 225q4 181 4 492q0 316 -4 493q-2 156 -2 224h608l-133 -220q-27 0 -59 3q-18 0 -64 1t-76 1v-379q169 0 207 2q34 0 94 2l-112 -213q-15 0 -55 2q-16 0 -61 1t-73 1v-420q193 0 236 2q38 0 108 2zM176 1618l-66 227q23 -9 60 -19q16 -5 149 -43
q87 -23 143 -36q51 -12 56 -13l65 -229l-39 11.5t-30 8.5l-158 45l-76 19.5t-59 15.5q-8 2 -23 6.5z" />
    <glyph glyph-name="Eacute" unicode="&#xc9;" horiz-adv-x="722" 
d="M588 0h-506q0 67 2 225q4 181 4 492q0 316 -4 493q-2 156 -2 224h608l-133 -220q-27 0 -59 3q-18 0 -64 1t-76 1v-379q169 0 207 2q34 0 94 2l-112 -213q-15 0 -55 2q-16 0 -61 1t-73 1v-420q193 0 236 2q38 0 108 2zM155 1505l66 229q28 5 55 13q48 11 143 36
q105 28 150 43q29 7 59 19l-65 -227q-24 -6 -45 -13q-129 -33 -135 -35l-158 -45z" />
    <glyph glyph-name="Ecircumflex" unicode="&#xca;" horiz-adv-x="722" 
d="M196 1515l-186 -10q93 133 205 318h307l95 -150q49 -74 110 -158l-258 -10q-63 117 -144 236q-59 -87 -129 -226zM588 0h-506q0 67 2 225q4 181 4 492q0 316 -4 493q-2 156 -2 224h608l-133 -220q-27 0 -59 3q-18 0 -64 1t-76 1v-379q169 0 207 2q34 0 94 2l-112 -213
q-15 0 -55 2q-16 0 -61 1t-73 1v-420q193 0 236 2q38 0 108 2z" />
    <glyph glyph-name="Edieresis" unicode="&#xcb;" horiz-adv-x="722" 
d="M-31 1601q16 16 29 33q9 11 30.5 35t31.5 37l73 90l29 -14q3 -1 26 -13l39 -20l76 -37q4 -2 17 -7.5l20 -8.5l-26 -29q-7 -9 -28 -31t-32 -35q-14 -14 -57 -65q-9 -11 -27 -31l-31 14q-20 8 -69 35q-10 4 -33.5 16.5t-34.5 16.5q-22 10 -33 14zM588 0h-506q0 67 2 225
q4 181 4 492q0 316 -4 493q-2 156 -2 224h608l-133 -220q-27 0 -59 3q-18 0 -64 1t-76 1v-379q169 0 207 2q34 0 94 2l-112 -213q-15 0 -55 2q-16 0 -61 1t-73 1v-420q193 0 236 2q38 0 108 2zM371 1601q16 16 29 33q7 9 28.5 33t32.5 39l74 90l28 -14q5 -2 17 -8.5
t24.5 -12.5l24.5 -12l76 -37q4 -2 17 -7.5l20 -8.5q-16 -18 -27 -29q-7 -9 -27.5 -31t-31.5 -35q-21 -21 -58 -65l-26 -31l-31 14q-14 6 -70 35q-11 5 -34 17t-33 16q-22 10 -33 14z" />
    <glyph glyph-name="Igrave" unicode="&#xcc;" horiz-adv-x="446" 
d="M27 1659l-66 227q23 -9 60 -19q16 -5 149 -43q87 -23 143 -36q51 -12 56 -13l65 -229l-39 11.5t-30 8.5l-158 45l-76 19.5t-59 15.5q-8 2 -23.5 6.5t-21.5 6.5zM365 0h-283q0 67 2 233q4 188 4 525q0 302 -4 469q-2 148 -2 207h283q-1 -52 -5 -207q-2 -83 -2 -469
q0 -430 2 -525q1 -94 5 -233z" />
    <glyph glyph-name="Iacute" unicode="&#xcd;" horiz-adv-x="446" 
d="M-10 1505l66 229q28 5 55 13q48 11 143 36q105 28 150 43q29 7 59 19l-65 -227q-24 -6 -45 -13q-129 -33 -135 -35l-158 -45zM365 0h-283q0 67 2 233q4 188 4 525q0 302 -4 469q-2 148 -2 207h283q-1 -52 -5 -207q-2 -83 -2 -469q0 -430 2 -525q1 -94 5 -233z" />
    <glyph glyph-name="Icircumflex" unicode="&#xce;" horiz-adv-x="446" 
d="M67 1515l-186 -10q93 133 205 318h307l95 -150q49 -74 110 -158l-258 -10q-63 117 -144 236q-59 -87 -129 -226zM365 0h-283q0 67 2 233q4 188 4 525q0 302 -4 469q-2 148 -2 207h283q-1 -52 -5 -207q-2 -83 -2 -469q0 -430 2 -525q1 -94 5 -233z" />
    <glyph glyph-name="Idieresis" unicode="&#xcf;" horiz-adv-x="446" 
d="M-158 1601q16 16 29 33q9 11 30.5 35t31.5 37l73 90l29 -14q3 -1 26 -13l39 -20l76 -37q4 -2 17 -7.5l20 -8.5l-26 -29q-7 -9 -28 -31t-32 -35q-14 -14 -57 -65q-9 -11 -27 -31l-31 14q-20 8 -69 35q-10 4 -33.5 16.5t-34.5 16.5q-22 10 -33 14zM365 0h-283q0 67 2 233
q4 188 4 525q0 302 -4 469q-2 148 -2 207h283q-1 -52 -5 -207q-2 -83 -2 -469q0 -430 2 -525q1 -94 5 -233zM244 1601q16 16 29 33q7 9 28.5 33t32.5 39l74 90l28 -14q5 -2 17 -8.5t24.5 -12.5l24.5 -12l76 -37q4 -2 17 -7.5l20 -8.5q-16 -18 -27 -29q-7 -9 -27.5 -31
t-31.5 -35q-21 -21 -58 -65l-26 -31l-31 14q-14 6 -70 35q-11 5 -34 17t-33 16q-22 10 -33 14z" />
    <glyph glyph-name="Eth" unicode="&#xd0;" horiz-adv-x="995" 
d="M-31 610l68 213q16 -2 26 -2q6 0 31 -1t41 -1q-2 99 -2 418q0 71 -2 197q9 1 27 2q108 8 297 8q55 0 97 -3.5t87 -15t79.5 -30.5t67 -51.5t56.5 -77.5q78 -141 82 -496q0 -118 -17 -280t-30 -211q-4 -7 -38 -45t-89 -91t-99 -88q-41 -32 -72 -43.5t-94 -11.5h-356
q0 59 2 197q2 59 2.5 201.5t1.5 215.5q-33 -2 -121 -2q-19 0 -45 -2zM408 612q0 -241 2 -284q0 -43 2 -99q4 0 14 -1.5t16 -2.5q25 -4 76 -4q50 0 78 6q15 1 29 6q32 256 32 504q0 97 -5 165.5t-20 134.5t-41.5 106t-71 64t-107.5 24q-2 -62 -2 -111q-2 -47 -2 -301
q97 0 116 2q19 0 45 2l-67 -213h-27q-6 0 -28.5 1t-38.5 1z" />
    <glyph glyph-name="Ntilde" unicode="&#xd1;" horiz-adv-x="1013" 
d="M92 1393l-14 41h344l47 -146q24 -69 104 -321q20 -65 59.5 -179l53.5 -157l53 -154q0 322 -6 672q-5 155 -6 285h205q0 -35 -1.5 -110t-2.5 -116q-2 -89 -2 -471q0 -418 2 -508q1 -42 2.5 -115.5t1.5 -103.5l-316 -20l-57 174q-27 77 -123 377l-108 329l-49 148
q0 -248 1 -369q2 -226 5 -327q2 -171 6 -322h-209q0 69 1.5 221t2.5 234q0 126 3 448t3 490zM176 1565l68 192q19 54 67 56q19 0 43 -7l379 -100q30 -8 49 -8q53 0 84 55l-67 -192q-19 -54 -68 -56q-19 0 -43 7l-379 100q-26 8 -49 8q-53 0 -84 -55z" />
    <glyph glyph-name="Ograve" unicode="&#xd2;" horiz-adv-x="993" 
d="M61 584q0 176 33 417q13 92 35 197q34 30 53 45q82 67 119 94q62 46 109 74q26 13 45 27q31 6 71 6q160 0 262 -115q144 -153 144 -477q0 -245 -37 -453q-17 -98 -37 -166q-46 -58 -146 -141q-101 -84 -155 -110q-25 -5 -70 -7q-95 0 -169.5 33.5t-122 89.5t-78.5 135.5
t-43.5 165.5t-12.5 185zM307 1618l-66 227q23 -9 60 -19q16 -5 149 -43q87 -23 143 -36q51 -12 56 -13l65 -229l-39 11.5t-30 8.5l-158 45l-76 19.5t-59 15.5q-8 2 -23 6.5zM342 662q0 -214 63 -315q62 -101 160 -101q31 0 47 6q9 49 19 129q20 144 20 315q0 68 -3.5 122
t-13 112.5t-28.5 101t-48 78.5t-73 54t-102 18q-12 -57 -21 -131q-20 -160 -20 -389z" />
    <glyph glyph-name="Oacute" unicode="&#xd3;" horiz-adv-x="993" 
d="M61 584q0 176 33 417q13 92 35 197q34 30 53 45q82 67 119 94q62 46 109 74q26 13 45 27q31 6 71 6q160 0 262 -115q144 -153 144 -477q0 -245 -37 -453q-17 -98 -37 -166q-46 -58 -146 -141q-101 -84 -155 -110q-25 -5 -70 -7q-95 0 -169.5 33.5t-122 89.5t-78.5 135.5
t-43.5 165.5t-12.5 185zM252 1505l66 229q28 5 55 13q48 11 143 36q105 28 150 43q29 7 59 19l-65 -227q-24 -6 -45 -13q-129 -33 -135 -35l-158 -45zM342 662q0 -214 63 -315q62 -101 160 -101q31 0 47 6q9 49 19 129q20 144 20 315q0 68 -3.5 122t-13 112.5t-28.5 101
t-48 78.5t-73 54t-102 18q-12 -57 -21 -131q-20 -160 -20 -389z" />
    <glyph glyph-name="Ocircumflex" unicode="&#xd4;" horiz-adv-x="993" 
d="M61 584q0 176 33 417q13 92 35 197q34 30 53 45q82 67 119 94q62 46 109 74q26 13 45 27q31 6 71 6q160 0 262 -115q144 -153 144 -477q0 -245 -37 -453q-17 -98 -37 -166q-46 -58 -146 -141q-101 -84 -155 -110q-25 -5 -70 -7q-95 0 -169.5 33.5t-122 89.5t-78.5 135.5
t-43.5 165.5t-12.5 185zM327 1515l-186 -10q93 133 205 318h307l95 -150q49 -74 110 -158l-258 -10q-63 117 -144 236q-59 -87 -129 -226zM342 662q0 -214 63 -315q62 -101 160 -101q31 0 47 6q9 49 19 129q20 144 20 315q0 68 -3.5 122t-13 112.5t-28.5 101t-48 78.5
t-73 54t-102 18q-12 -57 -21 -131q-20 -160 -20 -389z" />
    <glyph glyph-name="Otilde" unicode="&#xd5;" horiz-adv-x="993" 
d="M61 584q0 176 33 417q13 92 35 197q34 30 53 45q82 67 119 94q62 46 109 74q26 13 45 27q31 6 71 6q160 0 262 -115q144 -153 144 -477q0 -245 -37 -453q-17 -98 -37 -166q-46 -58 -146 -141q-101 -84 -155 -110q-25 -5 -70 -7q-95 0 -169.5 33.5t-122 89.5t-78.5 135.5
t-43.5 165.5t-12.5 185zM164 1565l68 192q19 54 67 56q19 0 43 -7l379 -100q30 -8 49 -8q53 0 84 55l-67 -192q-19 -54 -68 -56q-19 0 -43 7l-379 100q-26 8 -49 8q-53 0 -84 -55zM342 662q0 -214 63 -315q62 -101 160 -101q31 0 47 6q9 49 19 129q20 144 20 315
q0 68 -3.5 122t-13 112.5t-28.5 101t-48 78.5t-73 54t-102 18q-12 -57 -21 -131q-20 -160 -20 -389z" />
    <glyph glyph-name="Odieresis" unicode="&#xd6;" horiz-adv-x="993" 
d="M61 584q0 176 33 417q13 92 35 197q34 30 53 45q82 67 119 94q62 46 109 74q26 13 45 27q31 6 71 6q160 0 262 -115q144 -153 144 -477q0 -245 -37 -453q-17 -98 -37 -166q-46 -58 -146 -141q-101 -84 -155 -110q-25 -5 -70 -7q-95 0 -169.5 33.5t-122 89.5t-78.5 135.5
t-43.5 165.5t-12.5 185zM120 1601q16 16 29 33q9 11 30.5 35t31.5 37l73 90l29 -14q3 -1 26 -13l39 -20l76 -37q4 -2 17 -7.5l20 -8.5l-26 -29q-7 -9 -28 -31t-32 -35q-14 -14 -57 -65q-9 -11 -27 -31l-31 14q-20 8 -69 35q-10 4 -33.5 16.5t-34.5 16.5q-22 10 -33 14z
M342 662q0 -214 63 -315q62 -101 160 -101q31 0 47 6q9 49 19 129q20 144 20 315q0 68 -3.5 122t-13 112.5t-28.5 101t-48 78.5t-73 54t-102 18q-12 -57 -21 -131q-20 -160 -20 -389zM522 1601q16 16 29 33q7 9 28.5 33t32.5 39l74 90l28 -14q5 -2 17 -8.5t24.5 -12.5
l24.5 -12l76 -37q4 -2 17 -7.5l20 -8.5q-16 -18 -27 -29q-7 -9 -27.5 -31t-31.5 -35q-21 -21 -58 -65l-26 -31l-31 14q-14 6 -70 35q-11 5 -34 17t-33 16q-22 10 -33 14z" />
    <glyph glyph-name="multiply" unicode="&#xd7;" horiz-adv-x="847" 
d="M254 322l-152 151l58 53q43 37 123 117l-123 117q-20 17 -58 53l152 152l53 -58q37 -43 117 -123l117 123q17 20 53 58l151 -152q-30 -30 -57 -53q-72 -66 -123 -117q70 -70 123 -117l57 -53l-151 -151q-30 30 -53 57l-117 123q-80 -80 -117 -123z" />
    <glyph glyph-name="Oslash" unicode="&#xd8;" horiz-adv-x="995" 
d="M279 -111l-246 -10q11 29 35 78q57 133 88 199q-95 161 -95 428q0 176 33 417q13 98 35 197q34 30 53 45q82 67 119 94q62 46 109 74q26 13 45 27q31 6 71 6q77 0 148 -31q16 44 33 84l12 31l242 10q-11 -27 -33 -76l-88 -202q92 -141 92 -408q0 -245 -37 -453
q-17 -98 -37 -166q-46 -58 -146 -141q-101 -84 -155 -110q-25 -5 -70 -7q-90 0 -163 31q-7 -19 -18 -46t-15 -38q-7 -18 -12 -33zM342 662v-66q164 394 211 518q-62 68 -170 68q-12 -57 -21 -131q-20 -160 -20 -389zM440 299q51 -53 125 -53q31 0 47 6q9 49 19 129
q20 144 20 315q0 59 -4 111l-18 -47z" />
    <glyph glyph-name="Ugrave" unicode="&#xd9;" horiz-adv-x="921" 
d="M82 334q0 5 2 165q2 158 2 279q0 76 -1 226.5t-1 212.5q-2 150 -2 217h285q-2 -230 -2 -351q-2 -206 -2 -335q-1 -121 -1 -351q0 -71 36.5 -111t95.5 -40q42 0 65 12q0 291 -1 432q-1 207 -3 377q-2 260 -2 367h287q0 -31 -1.5 -101.5t-2.5 -109.5q-2 -83 -2 -445
q0 -438 2 -536q1 -45 2.5 -126t1.5 -116h-285v37q0 9 1 36t1 44q-22 -25 -41 -43q-7 -8 -67 -68q-3 -3 -15 -8t-37 -9.5t-55 -4.5q-63 0 -109.5 18t-75 47.5t-45.5 75.5t-23.5 95.5t-6.5 113.5zM264 1618l-66 227q23 -9 60 -19q16 -5 149 -43q87 -23 143 -36q51 -12 56 -13
l65 -229l-39 11.5t-30 8.5l-158 45l-76 19.5t-59 15.5q-8 2 -23.5 6.5t-21.5 6.5z" />
    <glyph glyph-name="Uacute" unicode="&#xda;" horiz-adv-x="921" 
d="M82 334q0 5 2 165q2 158 2 279q0 76 -1 226.5t-1 212.5q-2 150 -2 217h285q-2 -230 -2 -351q-2 -206 -2 -335q-1 -121 -1 -351q0 -71 36.5 -111t95.5 -40q42 0 65 12q0 291 -1 432q-1 207 -3 377q-2 260 -2 367h287q0 -31 -1.5 -101.5t-2.5 -109.5q-2 -83 -2 -445
q0 -438 2 -536q1 -45 2.5 -126t1.5 -116h-285v37q0 9 1 36t1 44q-22 -25 -41 -43q-7 -8 -67 -68q-3 -3 -15 -8t-37 -9.5t-55 -4.5q-63 0 -109.5 18t-75 47.5t-45.5 75.5t-23.5 95.5t-6.5 113.5zM246 1505l66 229q28 5 55 13q48 11 143 36q105 28 150 43q29 7 59 19l-65 -227
q-24 -6 -45 -13q-129 -33 -135 -35l-158 -45z" />
    <glyph glyph-name="Ucircumflex" unicode="&#xdb;" horiz-adv-x="921" 
d="M82 334q0 5 2 165q2 158 2 279q0 76 -1 226.5t-1 212.5q-2 150 -2 217h285q-2 -230 -2 -351q-2 -206 -2 -335q-1 -121 -1 -351q0 -71 36.5 -111t95.5 -40q42 0 65 12q0 291 -1 432q-1 207 -3 377q-2 260 -2 367h287q0 -31 -1.5 -101.5t-2.5 -109.5q-2 -83 -2 -445
q0 -438 2 -536q1 -45 2.5 -126t1.5 -116h-285v37q0 9 1 36t1 44q-22 -25 -41 -43q-7 -8 -67 -68q-3 -3 -15 -8t-37 -9.5t-55 -4.5q-63 0 -109.5 18t-75 47.5t-45.5 75.5t-23.5 95.5t-6.5 113.5zM293 1515l-186 -10q93 133 205 318h307l95 -150q49 -74 110 -158l-258 -10
q-63 117 -144 236q-59 -87 -129 -226z" />
    <glyph glyph-name="Udieresis" unicode="&#xdc;" horiz-adv-x="921" 
d="M75 1593q16 16 29 33q9 11 30.5 35t31.5 37l73 90l29 -14q3 -2 26 -13.5l39 -19.5l76 -37q4 -2 17 -7.5l20 -8.5l-26 -29q-7 -9 -28 -31t-32 -35q-14 -14 -57 -65q-9 -11 -27 -31l-31 14q-20 8 -69 35q-10 4 -33.5 16.5t-34.5 16.5q-22 10 -33 14zM82 334q0 5 2 165
q2 158 2 279q0 76 -1 226.5t-1 212.5q-2 150 -2 217h285q-2 -230 -2 -351q-2 -206 -2 -335q-1 -121 -1 -351q0 -71 36.5 -111t95.5 -40q42 0 65 12q0 291 -1 432q-1 207 -3 377q-2 260 -2 367h287q0 -31 -1.5 -101.5t-2.5 -109.5q-2 -83 -2 -445q0 -438 2 -536
q1 -45 2.5 -126t1.5 -116h-285v37q0 9 1 36t1 44q-22 -25 -41 -43q-7 -8 -67 -68q-3 -3 -15 -8t-37 -9.5t-55 -4.5q-63 0 -109.5 18t-75 47.5t-45.5 75.5t-23.5 95.5t-6.5 113.5zM477 1593q16 16 29 33q7 9 28.5 33t32.5 39l74 90l28 -14l66 -33l76 -37q4 -2 17 -7.5
l20 -8.5q-16 -18 -27 -29q-7 -9 -27.5 -31t-31.5 -35q-21 -21 -58 -65l-26 -31l-31 14q-14 6 -70 35q-11 5 -34 17t-33 16q-22 10 -33 14z" />
    <glyph glyph-name="Yacute" unicode="&#xdd;" horiz-adv-x="755" 
d="M254 545l-244 889h299l123 -506l109 506h215l-226 -830q0 -361 2 -432q0 -96 3 -172h-287q0 46 2 164q4 135 4 381zM201 1505l66 229q28 5 55 13q48 11 143 36q105 28 150 43q29 7 59 19l-65 -227q-24 -6 -45 -13q-129 -33 -135 -35l-158 -45z" />
    <glyph glyph-name="Thorn" unicode="&#xde;" horiz-adv-x="827" 
d="M362 0h-280q0 67 2 233q4 188 4 525q0 302 -4 469q-2 148 -2 207h280q-2 -58 -2 -88q-2 -35 -2 -172q88 0 172 -9q85 -11 158 -63q77 -56 99 -133q22 -76 22 -172q0 -112 -25 -199q-10 -45 -24 -84q-46 -61 -135 -134t-150 -106q-17 -5 -35 -6q-32 -6 -82 -6
q0 -44 1 -108t1 -82q0 -28 2 -72zM358 942v-459q32 -6 66 -6q37 0 55 6q11 1 21 6l4 21t5 25.5l5 23.5q14 115 14 152q0 65 -11.5 114t-45.5 85t-88 36q-17 0 -25 -4z" />
    <glyph glyph-name="germandbls" unicode="&#xdf;" horiz-adv-x="940" 
d="M33 797h-37l121 155v195q46 87 111 158q64 71 120 114q65 25 160 25q174 0 260 -87t86 -224q0 -179 -145 -265q50 -12 85.5 -37t55.5 -55t31.5 -73t14.5 -81.5t3 -91.5q0 -142 -33 -309q-14 -14 -49 -52l-56 -60t-52.5 -51t-57.5 -48q-44 -27 -104 -26q-61 0 -94 36
l26 220q16 -20 49.5 -32.5t69.5 -12.5t55 10q8 50 11 88q2 58 2 121q0 111 -33.5 163t-110.5 52q-27 0 -67 -17q-11 0 -13 11l23 86q6 21 17.5 69.5t17.5 67.5q26 15 55 24q9 3 27 7q61 65 61 182q0 82 -47 121q-46 39 -104 39q-70 0 -111 -27q0 -13 -1.5 -59.5l-2.5 -75.5
q-2 -59 -2 -361q0 -427 2 -510l2.5 -105.5t1.5 -80.5h-270q0 80 2 260q4 208 4 539q-17 0 -46 -1t-38 -1z" />
    <glyph glyph-name="agrave" unicode="&#xe0;" 
d="M61 352q0 204 12 311q11 105 15 132q34 44 133 116q57 45 148 90q4 1 24 5q32 6 70 6q86 0 184 -33l111 22q-2 -98 -2 -155q-2 -62 -2 -334q0 -291 2 -354q0 -60 2 -158h-271q2 18 2 35q0 63 3 94q-6 -6 -26 -27.5l-30 -31.5l-61 -64q-41 -22 -111 -22q-48 0 -82 14.5
t-63 53t-43.5 113.5t-14.5 187zM236 1207l-66 227q23 -9 60 -19q16 -5 149 -43q87 -23 143 -36q51 -12 56 -13l65 -229l-39 11.5t-30 8.5l-158 45l-76 19.5t-59 15.5q-8 2 -23.5 6.5t-21.5 6.5zM309 496q0 -63 4 -107t16 -90t38.5 -70t66.5 -24q37 0 62 10q0 11 2 61
q0 15 1 92.5t1 143.5q0 47 -1 112.5t-1 84.5q-2 52 -2 71l-23 13q-36 14 -67 14q-37 0 -58 -8q-11 -4 -20 -6q-19 -131 -19 -297z" />
    <glyph glyph-name="aacute" unicode="&#xe1;" 
d="M61 352q0 204 12 311q11 105 15 132q34 44 133 116q57 45 148 90q4 1 24 5q32 6 70 6q86 0 184 -33l111 22q-2 -98 -2 -155q-2 -62 -2 -334q0 -291 2 -354q0 -60 2 -158h-271q2 18 2 35q0 63 3 94q-6 -6 -26 -27.5l-30 -31.5l-61 -64q-41 -22 -111 -22q-48 0 -82 14.5
t-63 53t-43.5 113.5t-14.5 187zM217 1104l66 229q28 5 55 13q48 11 143 36q105 28 150 43q29 7 59 19l-65 -227q-24 -6 -45 -13q-129 -33 -135 -35l-158 -45zM309 496q0 -63 4 -107t16 -90t38.5 -70t66.5 -24q37 0 62 10q0 11 2 61q0 15 1 92.5t1 143.5q0 47 -1 112.5
t-1 84.5q-2 52 -2 71l-23 13q-36 14 -67 14q-37 0 -58 -8q-11 -4 -20 -6q-19 -131 -19 -297z" />
    <glyph glyph-name="acircumflex" unicode="&#xe2;" 
d="M61 352q0 204 12 311q11 105 15 132q34 44 133 116q57 45 148 90q4 1 24 5q32 6 70 6q86 0 184 -33l111 22q-2 -98 -2 -155q-2 -62 -2 -334q0 -291 2 -354q0 -60 2 -158h-271q2 18 2 35q0 63 3 94q-6 -6 -26 -27.5l-30 -31.5l-61 -64q-41 -22 -111 -22q-48 0 -82 14.5
t-63 53t-43.5 113.5t-14.5 187zM288 1103l-186 -10q93 133 205 318h307l95 -150q49 -74 110 -158l-258 -10q-63 117 -144 236q-59 -87 -129 -226zM309 496q0 -63 4 -107t16 -90t38.5 -70t66.5 -24q37 0 62 10q0 11 2 61q0 15 1 92.5t1 143.5q0 47 -1 112.5t-1 84.5
q-2 52 -2 71l-23 13q-36 14 -67 14q-37 0 -58 -8q-11 -4 -20 -6q-19 -131 -19 -297z" />
    <glyph glyph-name="atilde" unicode="&#xe3;" 
d="M61 352q0 204 12 311q11 105 15 132q34 44 133 116q57 45 148 90q4 1 24 5q32 6 70 6q86 0 184 -33l111 22q-2 -98 -2 -155q-2 -62 -2 -334q0 -291 2 -354q0 -60 2 -158h-271q2 18 2 35q0 63 3 94q-6 -6 -26 -27.5l-30 -31.5l-61 -64q-41 -22 -111 -22q-48 0 -82 14.5
t-63 53t-43.5 113.5t-14.5 187zM111 1186l68 192q19 54 67 56q19 0 43 -7l379 -100q30 -8 49 -8q53 0 84 55l-67 -192q-19 -54 -68 -56q-19 0 -43 7l-379 100q-26 8 -49 8q-53 0 -84 -55zM309 496q0 -63 4 -107t16 -90t38.5 -70t66.5 -24q37 0 62 10q0 11 2 61q0 15 1 92.5
t1 143.5q0 47 -1 112.5t-1 84.5q-2 52 -2 71l-23 13q-36 14 -67 14q-37 0 -58 -8q-11 -4 -20 -6q-19 -131 -19 -297z" />
    <glyph glyph-name="adieresis" unicode="&#xe4;" 
d="M63 352q0 204 12 311q11 105 15 132q34 44 133 116q57 45 148 90q4 1 24 5q32 6 70 6q86 0 184 -33l111 22q-2 -98 -2 -155q-2 -62 -2 -334q0 -291 2 -354q0 -60 2 -158h-271q2 18 2 35q0 63 3 94q-6 -6 -26 -27.5l-30 -31.5l-61 -64q-41 -22 -111 -22q-48 0 -82 14.5
t-63 53t-43.5 113.5t-14.5 187zM65 1190q16 16 29 33q9 11 30.5 35t31.5 37l73 90l29 -14q3 -2 26 -13.5l39 -19.5l76 -37q4 -2 17 -7.5l20 -8.5l-26 -29q-7 -9 -28 -31t-32 -35q-14 -14 -57 -65q-9 -11 -27 -31l-31 14q-20 8 -69 35q-10 4 -33.5 16.5t-34.5 16.5
q-22 10 -33 14zM311 496q0 -63 4 -107t16 -90t38.5 -70t66.5 -24q37 0 62 10q0 11 2 61q0 15 1 92.5t1 143.5q0 47 -1 112.5t-1 84.5q-2 52 -2 71l-23 13q-36 14 -67 14q-37 0 -58 -8q-11 -4 -20 -6q-19 -131 -19 -297zM467 1190q16 16 29 33q7 9 28.5 33t32.5 39l74 90
l28 -14q5 -2 17 -8.5t24.5 -12.5l24.5 -12l76 -37q4 -2 17 -7.5l20 -8.5q-16 -18 -27 -29q-7 -9 -27.5 -31t-31.5 -35q-21 -21 -58 -65l-26 -31l-31 14q-14 6 -70 35q-11 5 -34 17t-33 16q-22 10 -33 14z" />
    <glyph glyph-name="aring" unicode="&#xe5;" 
d="M61 352q0 204 12 311q11 105 15 132q34 44 133 116q57 45 148 90q4 1 24 5q32 6 70 6q86 0 184 -33l111 22q-2 -98 -2 -155q-2 -62 -2 -334q0 -291 2 -354q0 -60 2 -158h-271q2 18 2 35q0 63 3 94q-6 -6 -26 -27.5l-30 -31.5l-61 -64q-41 -22 -111 -22q-48 0 -82 14.5
t-63 53t-43.5 113.5t-14.5 187zM276 1262q0 112 115 170q19 12 45 12q51 0 88 -31q57 -51 57 -123q0 -92 -96 -164q-32 -20 -63 -20q-58 0 -102 44t-44 112zM309 496q0 -63 4 -107t16 -90t38.5 -70t66.5 -24q37 0 62 10q0 11 2 61q0 15 1 92.5t1 143.5q0 47 -1 112.5
t-1 84.5q-2 52 -2 71l-23 13q-36 14 -67 14q-37 0 -58 -8q-11 -4 -20 -6q-19 -131 -19 -297zM356 1296q0 -51 25.5 -81.5t68.5 -30.5q33 0 37 6q19 31 19 70q0 49 -31 80.5t-74 31.5q-18 0 -24 -6q-21 -21 -21 -70z" />
    <glyph glyph-name="ae" unicode="&#xe6;" horiz-adv-x="1101" 
d="M51 297q0 80 6 119q6 40 15 71q27 35 137 117q58 47 147 90q15 4 17 4q17 4 55 4q40 0 57 -4v15q-3 40 -39 67t-108 27q-69 0 -116 -37q-49 -39 -68 -70q-22 0 -29 15q4 22 41 113t53 120q78 64 209 64q164 0 242 -82q47 31 135 74q93 0 139 -28q48 -30 76 -69
q29 -41 35 -95t6 -99q0 -67 -6 -95q-110 -85 -187 -151q-16 0 -44 1t-38 1h-36q-2 -13 -2 -59q0 -104 32 -139t84 -35q98 0 160 88q15 0 23 -13q-5 -21 -46 -130t-55 -136q-11 -15 -68 -38q-55 -23 -128 -23q-191 0 -244 174q-20 -27 -74 -83.5t-76 -68.5q-41 -23 -102 -22
q-46 0 -80.5 13.5t-63.5 47t-44 96.5t-15 156zM297 348q0 -145 129 -145q36 0 66 14q-9 70 -9 131q0 96 2 123q-39 27 -96 27q-38 0 -55 -9l-19 -6q-18 -59 -18 -135zM748 723v-115q64 0 110 6q2 7 2 35q0 50 -22 88q-22 39 -66 39q-4 0 -10 -1t-8 -1h-4q-2 -34 -2 -51z" />
    <glyph glyph-name="ccedilla" unicode="&#xe7;" horiz-adv-x="624" 
d="M51 344q0 141 15 301q3 43 14 172q43 50 125 109.5t164 77.5q48 0 88 -17.5t63.5 -42.5t40.5 -57t24 -57t9 -46l-205 -125q-4 59 -24 90t-50 31q-4 -46 -6 -98q-4 -76 -4 -203q0 -48 1.5 -79t7.5 -66.5t17 -55.5t31.5 -33.5t49.5 -13.5q67 0 112 39q21 17 35 39
q17 0 27 -12q-18 -58 -50.5 -140.5t-54.5 -121.5q-22 -14 -28 -17q-38 -22 -84 -28q-5 -9 -10.5 -23l-12 -32t-10.5 -27q51 -4 83 -41t32 -100q0 -42 -19 -86l-64 -59q-27 -25 -59 -50q-30 -14 -65 -14q-58 0 -78 24l12 109q40 -31 94 -31q36 0 62 14q2 10 2 25q0 40 -26 67
t-74 27q-31 0 -70 -16q-10 4 -10 14q58 119 90 197q-82 15 -135 73q-36 40 -48 98.5t-12 184.5z" />
    <glyph glyph-name="egrave" unicode="&#xe8;" horiz-adv-x="679" 
d="M61 348q0 101 7 213.5t16 182.5t14 75q52 48 134 101t151 84q93 0 139 -28q48 -30 76 -69q29 -41 35 -95t6 -99q0 -67 -6 -95q-110 -85 -187 -151q-17 0 -44.5 1t-36.5 1h-37q-2 -13 -2 -59q0 -104 32 -139t84 -35q100 0 160 88q17 0 23 -13q-5 -21 -46 -130t-55 -136
q-11 -15 -68 -38q-55 -23 -128 -23q-141 0 -204 91t-63 273zM170 1217l-66 227q23 -9 60 -19q16 -5 149 -43q87 -23 143 -36q51 -12 56 -13l65 -229l-39 11.5t-30 8.5l-158 45l-76 19.5t-59 15.5q-8 2 -23.5 6.5t-21.5 6.5zM326 723v-115q64 0 110 6q2 7 2 35q0 50 -22 88
q-22 39 -66 39q-4 0 -10 -1t-8 -1h-4q-2 -34 -2 -51z" />
    <glyph glyph-name="eacute" unicode="&#xe9;" horiz-adv-x="679" 
d="M61 348q0 101 7 213.5t16 182.5t14 75q52 48 134 101t151 84q93 0 139 -28q48 -30 76 -69q29 -41 35 -95t6 -99q0 -67 -6 -95q-110 -85 -187 -151q-17 0 -44.5 1t-36.5 1h-37q-2 -13 -2 -59q0 -104 32 -139t84 -35q100 0 160 88q17 0 23 -13q-5 -21 -46 -130t-55 -136
q-11 -15 -68 -38q-55 -23 -128 -23q-141 0 -204 91t-63 273zM141 1104l66 229q28 5 55 13q48 11 143 36q105 28 150 43q29 7 59 19l-65 -227q-24 -6 -45 -13q-129 -33 -135 -35l-158 -45zM326 723v-115q64 0 110 6q2 7 2 35q0 50 -22 88q-22 39 -66 39q-4 0 -10 -1t-8 -1h-4
q-2 -34 -2 -51z" />
    <glyph glyph-name="ecircumflex" unicode="&#xea;" horiz-adv-x="679" 
d="M182 1103l-186 -10q93 133 205 318h307l95 -150q49 -74 110 -158l-258 -10q-63 117 -144 236q-59 -87 -129 -226zM61 348q0 101 7 213.5t16 182.5t14 75q52 48 134 101t151 84q93 0 139 -28q48 -30 76 -69q29 -41 35 -95t6 -99q0 -67 -6 -95q-110 -85 -187 -151
q-17 0 -44.5 1t-36.5 1h-37q-2 -13 -2 -59q0 -104 32 -139t84 -35q100 0 160 88q17 0 23 -13q-5 -21 -46 -130t-55 -136q-11 -15 -68 -38q-55 -23 -128 -23q-141 0 -204 91t-63 273zM326 723v-115q64 0 110 6q2 7 2 35q0 50 -22 88q-22 39 -66 39q-4 0 -10 -1t-8 -1h-4
q-2 -34 -2 -51z" />
    <glyph glyph-name="edieresis" unicode="&#xeb;" horiz-adv-x="679" 
d="M-17 1190q16 16 29 33q9 11 30.5 35t31.5 37l73 90l29 -14q3 -2 26 -13.5l39 -19.5l76 -37q4 -2 17 -7.5l20 -8.5l-26 -29q-7 -9 -28 -31t-32 -35q-14 -14 -57 -65q-9 -11 -27 -31l-31 14q-20 8 -69 35q-10 4 -33.5 16.5t-34.5 16.5q-22 10 -33 14zM61 348q0 101 7 213.5
t16 182.5t14 75q52 48 134 101t151 84q93 0 139 -28q48 -30 76 -69q29 -41 35 -95t6 -99q0 -67 -6 -95q-110 -85 -187 -151q-17 0 -44.5 1t-36.5 1h-37q-2 -13 -2 -59q0 -104 32 -139t84 -35q100 0 160 88q17 0 23 -13q-5 -21 -46 -130t-55 -136q-11 -15 -68 -38
q-55 -23 -128 -23q-141 0 -204 91t-63 273zM326 723v-115q64 0 110 6q2 7 2 35q0 50 -22 88q-22 39 -66 39q-4 0 -10 -1t-8 -1h-4q-2 -34 -2 -51zM385 1190q16 16 29 33q7 9 28.5 33t32.5 39l74 90l28 -14q5 -2 17 -8.5t24.5 -12.5l24.5 -12l76 -37q4 -2 17 -7.5l20 -8.5
q-16 -18 -27 -29q-7 -9 -27.5 -31t-31.5 -35q-21 -21 -58 -65l-26 -31l-31 14q-14 6 -70 35q-11 5 -34 17t-33 16q-22 10 -33 14z" />
    <glyph glyph-name="igrave" unicode="&#xec;" horiz-adv-x="421" 
d="M23 1217l-66 227q23 -9 60 -19q16 -5 149 -43q87 -23 143 -36q51 -12 56 -13l65 -229l-39 11.5t-30 8.5l-158 45l-76 19.5t-59 15.5q-8 2 -23 6.5zM344 0h-264q0 48 2 160q0 44 1 163t1 189q0 62 -1 174t-1 154q-2 106 -2 151h264q-2 -96 -2 -151q-2 -61 -2 -328
q0 -289 2 -352q0 -58 2 -160z" />
    <glyph glyph-name="iacute" unicode="&#xed;" horiz-adv-x="421" 
d="M-12 1104l66 229q28 5 55 13q48 11 143 36q105 28 150 43q29 7 59 19l-65 -227q-24 -6 -45 -13q-129 -33 -135 -35l-158 -45zM344 0h-264q0 48 2 160q0 44 1 163t1 189q0 62 -1 174t-1 154q-2 106 -2 151h264q-2 -96 -2 -151q-2 -61 -2 -328q0 -289 2 -352q0 -58 2 -160z
" />
    <glyph glyph-name="icircumflex" unicode="&#xee;" horiz-adv-x="421" 
d="M55 1103l-186 -10q93 133 205 318h307l95 -150q49 -74 110 -158l-258 -10q-63 117 -144 236q-59 -87 -129 -226zM344 0h-264q0 48 2 160q0 44 1 163t1 189q0 62 -1 174t-1 154q-2 106 -2 151h264q-2 -96 -2 -151q-2 -61 -2 -328q0 -289 2 -352q0 -58 2 -160z" />
    <glyph glyph-name="idieresis" unicode="&#xef;" horiz-adv-x="421" 
d="M-175 1190q16 16 29 33q9 11 30.5 35t31.5 37l73 90l29 -14q3 -2 26 -13.5l39 -19.5l76 -37q4 -2 17 -7.5l20 -8.5l-26 -29q-7 -9 -28 -31t-32 -35q-14 -14 -57 -65q-9 -11 -27 -31l-31 14q-20 8 -69 35q-10 4 -33.5 16.5t-34.5 16.5q-22 10 -33 14zM344 0h-264
q0 48 2 160q0 44 1 163t1 189q0 62 -1 174t-1 154q-2 106 -2 151h264q-2 -96 -2 -151q-2 -61 -2 -328q0 -289 2 -352q0 -58 2 -160zM227 1190q16 16 29 33q7 9 28.5 33t32.5 39l74 90l28 -14q5 -2 17 -8.5t24.5 -12.5l24.5 -12l76 -37q4 -2 17 -7.5l20 -8.5q-16 -18 -27 -29
q-7 -9 -27.5 -31t-31.5 -35q-21 -21 -58 -65l-26 -31l-31 14q-14 6 -70 35q-11 5 -34 17t-33 16q-22 10 -33 14z" />
    <glyph glyph-name="eth" unicode="&#xf0;" horiz-adv-x="806" 
d="M47 426q0 189 26 358l5 35l15 12q15 12 53 39t87 56q72 43 109 61q29 -6 47 -18l-86 141q-38 -15 -110 -51l-123 123q76 27 151 59l-125 193l275 10l65 -115q17 6 123 53l121 -120l-166 -64l201 -338q36 -64 44 -160q7 -88 7 -190q0 -70 -3.5 -141.5t-7.5 -113.5t-7 -50
q-6 -15 -60 -58.5t-100 -74.5q-130 -87 -160 -92q-16 -5 -45 -5q-225 0 -297 168q-39 86 -39 283zM301 483q0 -137 34 -204.5t111 -67.5q30 0 46 6q5 15 12.5 95.5t7.5 156.5q0 66 -1.5 97t-10.5 70t-27 66q-17 29 -49.5 47.5t-73.5 18.5q-23 0 -28 -2q-7 -39 -11 -74
q-10 -94 -10 -209z" />
    <glyph glyph-name="ntilde" unicode="&#xf1;" 
d="M336 0h-264q0 29 2 125q4 108 4 354q0 250 -4 371q-2 106 -2 141h264v-153q21 24 51 61.5t41.5 50t33 29t43.5 21t56 4.5q86 0 146 -60q59 -62 59 -158q0 -57 -2 -172t-2 -204q0 -218 2 -271q1 -25 2.5 -71.5t1.5 -67.5h-260q0 88 2 238q0 71 1 196t1 160q0 168 -117 168
q-23 0 -45 -6q-7 -4 -14 -6q0 -17 -1.5 -59.5t-2.5 -67.5q-2 -51 -2 -267q0 -204 2 -247q1 -20 2.5 -56.5t1.5 -52.5zM102 1186l68 192q19 54 67 56q19 0 43 -7l379 -100q30 -8 49 -8q53 0 84 55l-67 -192q-19 -54 -68 -56q-19 0 -43 7l-379 100q-26 8 -49 8q-53 0 -84 -55z
" />
    <glyph glyph-name="ograve" unicode="&#xf2;" horiz-adv-x="815" 
d="M51 426q-2 170 23 343l8 52q1 0 13.5 10.5t49.5 37.5t86 59q32 21 71.5 42t43.5 23q20 7 33 15q2 0 12 2q3 0 14.5 1t18.5 1q220 0 301 -160q34 -64 41 -154q8 -98 8 -188q0 -69 -5 -143t-10.5 -116.5t-8.5 -51.5q-4 -9 -58.5 -54.5t-89.5 -68.5q-48 -34 -83 -56
q-45 -29 -75 -40q-22 -5 -53 -5q-230 0 -301 168q-39 86 -39 283zM219 1217l-66 227q23 -9 60 -19q16 -5 149 -43q87 -23 143 -36q51 -12 56 -13l65 -229l-39 11.5t-30 8.5l-158 45l-76 19.5t-59 15.5q-8 2 -23.5 6.5t-21.5 6.5zM305 514q2 -141 17 -195q31 -109 131 -108
q27 0 45 8q9 26 15.5 100t6.5 154q0 295 -153 295q-29 0 -43 -6q-8 -40 -11 -68q-8 -70 -8 -180z" />
    <glyph glyph-name="oacute" unicode="&#xf3;" horiz-adv-x="815" 
d="M51 426q-2 170 23 343l8 52q1 0 13.5 10.5t49.5 37.5t86 59q32 21 71.5 42t43.5 23q20 7 33 15q2 0 12 2q3 0 14.5 1t18.5 1q220 0 301 -160q34 -64 41 -154q8 -98 8 -188q0 -69 -5 -143t-10.5 -116.5t-8.5 -51.5q-4 -9 -58.5 -54.5t-89.5 -68.5q-48 -34 -83 -56
q-45 -29 -75 -40q-22 -5 -53 -5q-230 0 -301 168q-39 86 -39 283zM166 1104l66 229q28 5 55 13q48 11 143 36q105 28 150 43q29 7 59 19l-65 -227q-24 -6 -45 -13q-129 -33 -135 -35l-158 -45zM305 514q2 -141 17 -195q31 -109 131 -108q27 0 45 8q9 26 15.5 100t6.5 154
q0 295 -153 295q-29 0 -43 -6q-8 -40 -11 -68q-8 -70 -8 -180z" />
    <glyph glyph-name="ocircumflex" unicode="&#xf4;" horiz-adv-x="815" 
d="M51 426q-2 170 23 343l8 52q1 0 13.5 10.5t49.5 37.5t86 59q32 21 71.5 42t43.5 23q20 7 33 15q2 0 12 2q3 0 14.5 1t18.5 1q220 0 301 -160q34 -64 41 -154q8 -98 8 -188q0 -69 -5 -143t-10.5 -116.5t-8.5 -51.5q-4 -9 -58.5 -54.5t-89.5 -68.5q-48 -34 -83 -56
q-45 -29 -75 -40q-22 -5 -53 -5q-230 0 -301 168q-39 86 -39 283zM241 1103l-186 -10q93 133 205 318h307l95 -150q49 -74 110 -158l-258 -10q-63 117 -144 236q-59 -87 -129 -226zM305 514q2 -141 17 -195q31 -109 131 -108q27 0 45 8q9 26 15.5 100t6.5 154
q0 295 -153 295q-29 0 -43 -6q-8 -40 -11 -68q-8 -70 -8 -180z" />
    <glyph glyph-name="otilde" unicode="&#xf5;" horiz-adv-x="815" 
d="M51 426q-2 170 23 343l8 52q1 0 13.5 10.5t49.5 37.5t86 59q32 21 71.5 42t43.5 23q20 7 33 15q2 0 12 2q3 0 14.5 1t18.5 1q220 0 301 -160q34 -64 41 -154q8 -98 8 -188q0 -69 -5 -143t-10.5 -116.5t-8.5 -51.5q-4 -9 -58.5 -54.5t-89.5 -68.5q-48 -34 -83 -56
q-45 -29 -75 -40q-22 -5 -53 -5q-230 0 -301 168q-39 86 -39 283zM64 1186l68 192q19 54 67 56q19 0 43 -7l379 -100q30 -8 49 -8q53 0 84 55l-67 -192q-19 -54 -68 -56q-19 0 -43 7l-379 100q-26 8 -49 8q-53 0 -84 -55zM305 514q2 -141 17 -195q31 -109 131 -108
q27 0 45 8q9 26 15.5 100t6.5 154q0 295 -153 295q-29 0 -43 -6q-8 -40 -11 -68q-8 -70 -8 -180z" />
    <glyph glyph-name="odieresis" unicode="&#xf6;" horiz-adv-x="815" 
d="M22 1190q16 16 29 33q9 11 30.5 35t31.5 37l73 90l29 -14q3 -2 26 -13.5l39 -19.5l76 -37q4 -2 17 -7.5l20 -8.5l-26 -29q-7 -9 -28 -31t-32 -35q-14 -14 -57 -65q-9 -11 -27 -31l-31 14q-20 8 -69 35q-10 4 -33.5 16.5t-34.5 16.5q-22 10 -33 14zM51 426q-2 170 23 343
l8 52q1 0 13.5 10.5t49.5 37.5t86 59q32 21 71.5 42t43.5 23q20 7 33 15q2 0 12 2q3 0 14.5 1t18.5 1q220 0 301 -160q34 -64 41 -154q8 -98 8 -188q0 -69 -5 -143t-10.5 -116.5t-8.5 -51.5q-4 -9 -58.5 -54.5t-89.5 -68.5q-48 -34 -83 -56q-45 -29 -75 -40q-22 -5 -53 -5
q-230 0 -301 168q-39 86 -39 283zM305 514q2 -141 17 -195q31 -109 131 -108q27 0 45 8q9 26 15.5 100t6.5 154q0 295 -153 295q-29 0 -43 -6q-8 -40 -11 -68q-8 -70 -8 -180zM424 1190q16 16 29 33q7 9 28.5 33t32.5 39l74 90l28 -14q5 -2 17 -8.5t24.5 -12.5l24.5 -12
l76 -37q4 -2 17 -7.5l20 -8.5q-16 -18 -27 -29q-7 -9 -27.5 -31t-31.5 -35q-21 -21 -58 -65l-26 -31l-31 14q-14 6 -70 35q-11 5 -34 17t-33 16q-22 10 -33 14z" />
    <glyph glyph-name="divide" unicode="&#xf7;" horiz-adv-x="960" 
d="M51 537l74 213q78 -2 127 -2q76 -3 276 -3q207 0 260 3q43 0 121 2l-73 -213q-37 0 -127 2q-35 0 -129 1t-148 1q-49 0 -138 -1t-122 -1q-84 -2 -121 -2zM307 326l193 163q21 -49 70 -105q47 -55 94 -87l-193 -164q-48 34 -94 87t-70 106zM322 999l192 164
q21 -49 70 -105q45 -52 94 -87l-193 -164q-47 33 -93.5 87.5t-69.5 104.5z" />
    <glyph glyph-name="oslash" unicode="&#xf8;" horiz-adv-x="815" 
d="M51 426q-2 170 23 343l8 52q1 0 13.5 10.5t49.5 37.5t86 59q32 21 71.5 42t43.5 23q20 7 33 15q2 0 12 2q3 0 14.5 1t18.5 1q71 0 115 -13q23 54 28 70q8 18 11 27l176 10q-14 -34 -23 -53q-5 -12 -25 -56t-32 -75q36 -36 51 -70q34 -64 41 -154q8 -98 8 -188
q0 -69 -5 -143t-10.5 -116.5t-8.5 -51.5q-4 -9 -58.5 -54.5t-89.5 -68.5q-48 -34 -83 -56q-45 -29 -75 -40q-22 -5 -53 -5q-59 0 -106 13q-17 -39 -27 -66q-7 -15 -8 -24l-176 -11q6 12 20 47q4 8 22.5 50.5t30.5 72.5q-41 41 -57 86q-39 86 -39 283zM305 514v-88l45 109
q35 93 49 122l37 91q-32 20 -69 20q-29 0 -43 -6q-8 -40 -11 -68q-8 -70 -8 -180zM383 225q28 -16 70 -16q27 0 45 8q9 25 15.5 100.5t6.5 155.5q0 57 -2 76l-6 -14q-27 -59 -71 -168z" />
    <glyph glyph-name="ugrave" unicode="&#xf9;" horiz-adv-x="831" 
d="M72 297q0 90 1 148t1 169q0 53 -1 141.5t-1 121.5v114h260q-2 -134 -2 -207q-2 -82 -2 -422q0 -86 28.5 -121.5t83.5 -35.5q28 0 43 4q3 1 13 4v279q0 90 -1 147t-1 164q-2 122 -2 188h268q-2 -106 -2 -162q-2 -64 -2 -333q0 -287 2 -346q0 -60 2 -150h-266v37q0 8 1 39
t1 53l-18 -21.5t-17 -19.5q-31 -38 -78 -84q-24 -20 -98 -20q-52 0 -90.5 16.5t-61.5 43.5t-37 68.5t-19 85t-5 99.5zM215 1217l-66 227q23 -9 60 -19q16 -5 149 -43q87 -23 143 -36q51 -12 56 -13l65 -229l-39 11.5t-30 8.5l-158 45l-76 19.5t-59 15.5q-8 2 -23 6.5z" />
    <glyph glyph-name="uacute" unicode="&#xfa;" horiz-adv-x="831" 
d="M72 297q0 90 1 148t1 169q0 53 -1 141.5t-1 121.5v114h260q-2 -134 -2 -207q-2 -82 -2 -422q0 -86 28.5 -121.5t83.5 -35.5q28 0 43 4q3 1 13 4v279q0 90 -1 147t-1 164q-2 122 -2 188h268q-2 -106 -2 -162q-2 -64 -2 -333q0 -287 2 -346q0 -60 2 -150h-266v37q0 8 1 39
t1 53l-18 -21.5t-17 -19.5q-31 -38 -78 -84q-24 -20 -98 -20q-52 0 -90.5 16.5t-61.5 43.5t-37 68.5t-19 85t-5 99.5zM196 1104l66 229q28 5 55 13q48 11 143 36q105 28 150 43q29 7 59 19l-65 -227q-24 -6 -45 -13q-129 -33 -135 -35l-158 -45z" />
    <glyph glyph-name="ucircumflex" unicode="&#xfb;" horiz-adv-x="831" 
d="M72 297q0 90 1 148t1 169q0 53 -1 141.5t-1 121.5v114h260q-2 -134 -2 -207q-2 -82 -2 -422q0 -86 28.5 -121.5t83.5 -35.5q28 0 43 4q3 1 13 4v279q0 90 -1 147t-1 164q-2 122 -2 188h268q-2 -106 -2 -162q-2 -64 -2 -333q0 -287 2 -346q0 -60 2 -150h-266v37q0 8 1 39
t1 53l-18 -21.5t-17 -19.5q-31 -38 -78 -84q-24 -20 -98 -20q-52 0 -90.5 16.5t-61.5 43.5t-37 68.5t-19 85t-5 99.5zM258 1103l-186 -10q93 133 205 318h307l95 -150q49 -74 110 -158l-258 -10q-63 117 -144 236q-59 -87 -129 -226z" />
    <glyph glyph-name="udieresis" unicode="&#xfc;" horiz-adv-x="831" 
d="M32 1190q16 16 29 33q9 11 30.5 35t31.5 37l73 90l29 -14q3 -2 26 -13.5l39 -19.5l76 -37q4 -2 17 -7.5l20 -8.5l-26 -29q-7 -9 -28 -31t-32 -35q-14 -14 -57 -65q-9 -11 -27 -31l-31 14q-20 8 -69 35q-10 4 -33.5 16.5t-34.5 16.5q-22 10 -33 14zM72 297q0 90 1 148
t1 169q0 53 -1 141.5t-1 121.5v114h260q-2 -134 -2 -207q-2 -82 -2 -422q0 -86 28.5 -121.5t83.5 -35.5q28 0 43 4q3 1 13 4v279q0 90 -1 147t-1 164q-2 122 -2 188h268q-2 -106 -2 -162q-2 -64 -2 -333q0 -287 2 -346q0 -60 2 -150h-266v37q0 8 1 39t1 53l-18 -21.5
t-17 -19.5q-31 -38 -78 -84q-24 -20 -98 -20q-52 0 -90.5 16.5t-61.5 43.5t-37 68.5t-19 85t-5 99.5zM434 1190q16 16 29 33q7 9 28.5 33t32.5 39l74 90l28 -14q5 -2 17 -8.5t24.5 -12.5l24.5 -12l76 -37q4 -2 17 -7.5l20 -8.5q-16 -18 -27 -29q-7 -9 -27.5 -31t-31.5 -35
q-21 -21 -58 -65l-26 -31l-31 14q-14 6 -70 35q-11 5 -34 17t-33 16q-22 10 -33 14z" />
    <glyph glyph-name="yacute" unicode="&#xfd;" horiz-adv-x="821" 
d="M74 242q0 18 2 121t2 210q0 50 -1 148t-1 135q-2 94 -2 135h264q-2 -128 -2 -203q-2 -82 -2 -450q0 -62 28.5 -92.5t71.5 -30.5q32 0 60 18q0 120 -1 302.5t-1 240.5q-2 121 -3 215h261q-2 -102 -2 -157v-353v-450q0 -77 2 -211q-40 -56 -129.5 -140.5t-145.5 -119.5
q-38 -9 -72 -9q-104 0 -187 47q-84 49 -130 113l201 195q18 -40 78.5 -79.5t123.5 -39.5v344q-26 -24 -38 -37q-57 -57 -68 -67q-46 -43 -117 -43q-75 0 -121 43q-49 45 -60 108q-11 64 -11 107zM192 1104l66 229q28 5 55 13q48 11 143 36q105 28 150 43q29 7 59 19
l-65 -227q-24 -6 -45 -13q-129 -33 -135 -35l-158 -45z" />
    <glyph glyph-name="thorn" unicode="&#xfe;" 
d="M342 -449h-270q0 102 2 324q2 143 3 310q1 113 1 323q0 209 -1 318q-1 161 -3 298q-2 210 -2 310h270q-2 -112 -2 -181q-2 -73 -2 -393l49 53q36 42 76 74q28 25 82 25q69 0 117 -31q114 -72 114 -260q0 -61 -12 -303q-7 -141 -19 -213q-41 -60 -112.5 -122t-134.5 -95
q-30 -2 -49 -2q-21 -2 -111 -2q0 -269 2 -318q0 -49 2 -115zM338 754v-492q0 -35 25 -57q25 -23 100 -23q27 0 49 6v138q0 38 1 136.5t1 151.5q0 43 -14 73.5t-36.5 45t-43 20t-41.5 5.5q-7 0 -18 -1t-13 -1t-5 -1q-4 -1 -5 -1z" />
    <glyph glyph-name="ydieresis" unicode="&#xff;" horiz-adv-x="821" 
d="M26 1190q16 16 29 33q9 11 30.5 35t31.5 37l73 90l29 -14q3 -2 26 -13.5l39 -19.5l76 -37q4 -2 17 -7.5l20 -8.5l-26 -29q-7 -9 -28 -31t-32 -35q-14 -14 -57 -65q-9 -11 -27 -31l-31 14q-20 8 -69 35q-10 4 -33.5 16.5t-34.5 16.5q-22 10 -33 14zM74 242q0 18 2 121
t2 210q0 50 -1 148t-1 135q-2 94 -2 135h264q-2 -128 -2 -203q-2 -82 -2 -450q0 -62 28.5 -92.5t71.5 -30.5q32 0 60 18q0 120 -1 302.5t-1 240.5q-2 121 -3 215h261q-2 -102 -2 -157v-353v-450q0 -77 2 -211q-40 -56 -129.5 -140.5t-145.5 -119.5q-38 -9 -72 -9
q-104 0 -187 47q-84 49 -130 113l201 195q18 -40 78.5 -79.5t123.5 -39.5v344q-26 -24 -38 -37q-57 -57 -68 -67q-46 -43 -117 -43q-75 0 -121 43q-49 45 -60 108q-11 64 -11 107zM428 1190q16 16 29 33q7 9 28.5 33t32.5 39l74 90l28 -14q5 -2 17 -8.5t24.5 -12.5l24.5 -12
l76 -37q4 -2 17 -7.5l20 -8.5q-16 -18 -27 -29q-7 -9 -27.5 -31t-31.5 -35q-21 -21 -58 -65l-26 -31l-31 14q-14 6 -70 35q-11 5 -34 17t-33 16q-22 10 -33 14z" />
    <glyph glyph-name="Amacron" unicode="&#x100;" horiz-adv-x="884" 
d="M240 10l-230 -20q14 79 33 160q4 18 72 376l54 314l48 293l49 301l346 10l52 -303l51 -296l57 -319q48 -263 70 -354q29 -150 32 -162l-292 -20q-16 96 -23 145l-43 271h-225q-8 -48 -20.5 -146t-14.5 -115q-2 -23 -7.5 -68t-8.5 -67zM90 1511l68 193q54 -2 94 -2
q40 -2 242 -2q188 0 225 2q36 0 88 2l-68 -193q-22 0 -92 2q-25 0 -106.5 1t-136.5 1q-51 0 -127 -1t-99 -1q-66 -2 -88 -2zM399 1102l-77 -492h165z" />
    <glyph glyph-name="amacron" unicode="&#x101;" 
d="M61 352q0 204 12 311q11 105 15 132q34 44 133 116q57 45 148 90q4 1 24 5q32 6 70 6q86 0 184 -33l111 22q-2 -98 -2 -155q-2 -62 -2 -334q0 -291 2 -354q0 -60 2 -158h-271q2 18 2 35q0 63 3 94q-6 -6 -26 -27.5l-30 -31.5l-61 -64q-41 -22 -111 -22q-48 0 -82 14.5
t-63 53t-43.5 113.5t-14.5 187zM74 1099l68 193q54 -2 94 -2q40 -2 242 -2q188 0 225 2q36 0 88 2l-68 -193q-22 0 -92 2q-25 0 -106.5 1t-136.5 1q-51 0 -127 -1t-99 -1q-66 -2 -88 -2zM309 496q0 -63 4 -107t16 -90t38.5 -70t66.5 -24q37 0 62 10q0 11 2 61q0 15 1 92.5
t1 143.5q0 47 -1 112.5t-1 84.5q-2 52 -2 71l-23 13q-36 14 -67 14q-37 0 -58 -8q-11 -4 -20 -6q-19 -131 -19 -297z" />
    <glyph glyph-name="Abreve" unicode="&#x102;" horiz-adv-x="884" 
d="M240 10l-230 -20q14 79 33 160q4 18 72 376l54 314l48 293l49 301l346 10l52 -303l51 -296l57 -319q48 -263 70 -354q29 -150 32 -162l-292 -20q-16 96 -23 145l-43 271h-225q-8 -48 -20.5 -146t-14.5 -115q-2 -23 -7.5 -68t-8.5 -67zM163 1702l187 121q6 -38 28 -66
q46 -63 140 -63q78 0 119 36q40 34 63 80q12 0 18 -8q-42 -144 -100 -246q-16 -15 -47 -26q-63 -25 -158 -25q-107 0 -168.5 56t-81.5 141zM399 1102l-77 -492h165z" />
    <glyph glyph-name="abreve" unicode="&#x103;" 
d="M61 352q0 204 12 311q11 105 15 132q34 44 133 116q57 45 148 90q4 1 24 5q32 6 70 6q86 0 184 -33l111 22q-2 -98 -2 -155q-2 -62 -2 -334q0 -291 2 -354q0 -60 2 -158h-271q2 18 2 35q0 63 3 94q-6 -6 -26 -27.5l-30 -31.5l-61 -64q-41 -22 -111 -22q-48 0 -82 14.5
t-63 53t-43.5 113.5t-14.5 187zM139 1303l187 121q6 -38 28 -66q46 -63 140 -63q78 0 119 36q40 34 63 80q12 0 18 -8q-42 -144 -100 -246q-16 -15 -47 -26q-63 -25 -158 -25q-107 0 -168.5 56t-81.5 141zM309 496q0 -63 4 -107t16 -90t38.5 -70t66.5 -24q37 0 62 10
q0 11 2 61q0 15 1 92.5t1 143.5q0 47 -1 112.5t-1 84.5q-2 52 -2 71l-23 13q-36 14 -67 14q-37 0 -58 -8q-11 -4 -20 -6q-19 -131 -19 -297z" />
    <glyph glyph-name="Aogonek" unicode="&#x104;" horiz-adv-x="884" 
d="M240 10l-230 -20q14 79 33 160q4 18 72 376l54 314l48 293l49 301l346 10l52 -303l51 -296l57 -319q48 -263 70 -354q29 -150 32 -162l-124 -10q-61 -5 -103 -50q-45 -46 -45 -138q0 -63 40 -102q41 -38 87 -38q8 0 14 0.5t12 1.5t10 2t10 3.5l8.5 3.5t10.5 5t11 5
q12 -5 12 -17q-19 -20 -35 -41q-11 -11 -31 -34t-26 -29q-23 -14 -63 -14q-83 0 -134 56.5t-51 152.5q0 91 33 140q34 51 72 83q-1 4 -11.5 72l-27 172l-27.5 172h-225q-8 -48 -20.5 -146t-14.5 -115q-2 -23 -7.5 -68t-8.5 -67zM399 1102l-77 -492h165z" />
    <glyph glyph-name="aogonek" unicode="&#x105;" 
d="M61 352q0 204 12 311q11 105 15 132q34 44 133 116q57 45 148 90q4 1 24 5q32 6 70 6q86 0 184 -33l111 22q-2 -98 -2 -155q-2 -62 -2 -334q0 -291 2 -354q0 -60 2 -158h-133q-46 0 -89 -46q-44 -47 -44 -142q0 -63 40 -102q40 -38 86 -38q17 0 31.5 3.5t19.5 5.5t25 12
q12 -4 13 -17q-19 -20 -35 -41q-10 -10 -30 -33t-28 -30q-23 -14 -63 -14q-82 0 -133 55t-51 147q0 95 40 153q39 59 80 87q0 34 5 129q-6 -6 -26 -27.5l-30 -31.5l-61 -64q-41 -22 -111 -22q-48 0 -82 14.5t-63 53t-43.5 113.5t-14.5 187zM309 496q0 -63 4 -107t16 -90
t38.5 -70t66.5 -24q37 0 62 10q0 11 2 61q0 15 1 92.5t1 143.5q0 47 -1 112.5t-1 84.5q-2 52 -2 71l-23 13q-36 14 -67 14q-37 0 -58 -8q-11 -4 -20 -6q-19 -131 -19 -297z" />
    <glyph glyph-name="Cacute" unicode="&#x106;" horiz-adv-x="862" 
d="M61 633q0 147 26 328t40 217q4 15 62.5 65.5t127.5 99.5q145 101 209 101q60 0 124 -14q62 -15 114 -76q59 -74 59 -176v-13l-278 -139q2 14 2 35q0 48 -14.5 81t-38.5 47.5t-44 19.5t-42 5q-4 0 -11.5 -1t-9.5 -1h-6q-15 -72 -23 -149q-20 -169 -20 -350q0 -112 4 -154
q4 -52 13.5 -96t21 -75t30.5 -55.5t34 -40t39.5 -26.5t39 -16t39.5 -8t34.5 -3.5t31.5 -0.5q99 0 178 75q1 1 15 -6q13 -7 11 -12l-24 -46t-53.5 -96t-55.5 -83q-41 -56 -93 -75.5t-138 -19.5q-94 0 -172 41t-125 115q-67 103 -87 226q-20 125 -20 276zM219 1505l66 229
q28 5 55 13q48 11 143 36q105 28 150 43q29 7 59 19l-65 -227q-24 -6 -45 -13q-129 -33 -135 -35l-158 -45z" />
    <glyph glyph-name="cacute" unicode="&#x107;" horiz-adv-x="624" 
d="M51 344q0 141 15 301q3 43 14 172q43 50 125 109.5t164 77.5q48 0 88 -17.5t63.5 -42.5t40.5 -57t24 -57t9 -46l-205 -125q-4 59 -24 90t-50 31q-4 -46 -6 -98q-4 -76 -4 -203q0 -48 1.5 -79t7.5 -66.5t17 -55.5t31.5 -33.5t49.5 -13.5q67 0 112 39q21 17 35 39
q17 0 27 -12q-18 -58 -50.5 -140.5t-54.5 -121.5q-18 -17 -45 -27q-57 -24 -145 -24q-108 0 -180 77q-36 40 -48 98.5t-12 184.5zM102 1104l66 229q28 5 55 13q48 11 143 36q105 28 150 43q29 7 59 19l-65 -227q-24 -6 -45 -13q-129 -33 -135 -35l-158 -45z" />
    <glyph glyph-name="Ccircumflex" unicode="&#x108;" horiz-adv-x="862" 
d="M61 633q0 147 26 328t40 217q4 15 62.5 65.5t127.5 99.5q145 101 209 101q60 0 124 -14q62 -15 114 -76q59 -74 59 -176v-13l-278 -139q2 14 2 35q0 48 -14.5 81t-38.5 47.5t-44 19.5t-42 5q-4 0 -11.5 -1t-9.5 -1h-6q-15 -72 -23 -149q-20 -169 -20 -350q0 -112 4 -154
q4 -52 13.5 -96t21 -75t30.5 -55.5t34 -40t39.5 -26.5t39 -16t39.5 -8t34.5 -3.5t31.5 -0.5q99 0 178 75q1 1 15 -6q13 -7 11 -12l-24 -46t-53.5 -96t-55.5 -83q-41 -56 -93 -75.5t-138 -19.5q-94 0 -172 41t-125 115q-67 103 -87 226q-20 125 -20 276zM288 1515l-186 -10
q93 133 205 318h307l95 -150q49 -74 110 -158l-258 -10q-63 117 -144 236q-59 -87 -129 -226z" />
    <glyph glyph-name="ccircumflex" unicode="&#x109;" horiz-adv-x="624" 
d="M172 1103l-186 -10q93 133 205 318h307l95 -150q49 -74 110 -158l-258 -10q-63 117 -144 236q-59 -87 -129 -226zM51 344q0 141 15 301q3 43 14 172q43 50 125 109.5t164 77.5q48 0 88 -17.5t63.5 -42.5t40.5 -57t24 -57t9 -46l-205 -125q-4 59 -24 90t-50 31
q-4 -46 -6 -98q-4 -76 -4 -203q0 -48 1.5 -79t7.5 -66.5t17 -55.5t31.5 -33.5t49.5 -13.5q67 0 112 39q21 17 35 39q17 0 27 -12q-18 -58 -50.5 -140.5t-54.5 -121.5q-18 -17 -45 -27q-57 -24 -145 -24q-108 0 -180 77q-36 40 -48 98.5t-12 184.5z" />
    <glyph glyph-name="Cdotaccent" unicode="&#x10a;" horiz-adv-x="862" 
d="M61 633q0 147 26 328t40 217q4 15 62.5 65.5t127.5 99.5q145 101 209 101q60 0 124 -14q62 -15 114 -76q59 -74 59 -176v-13l-278 -139q2 14 2 35q0 48 -14.5 81t-38.5 47.5t-44 19.5t-42 5q-4 0 -11.5 -1t-9.5 -1h-6q-15 -72 -23 -149q-20 -169 -20 -350q0 -112 4 -154
q4 -52 13.5 -96t21 -75t30.5 -55.5t34 -40t39.5 -26.5t39 -16t39.5 -8t34.5 -3.5t31.5 -0.5q99 0 178 75q1 1 15 -6q13 -7 11 -12l-24 -46t-53.5 -96t-55.5 -83q-41 -56 -93 -75.5t-138 -19.5q-94 0 -172 41t-125 115q-67 103 -87 226q-20 125 -20 276zM278 1698l193 164
q21 -49 70 -105q44 -53 94 -88l-193 -164q-48 34 -94 87t-70 106z" />
    <glyph glyph-name="cdotaccent" unicode="&#x10b;" horiz-adv-x="624" 
d="M51 344q0 141 15 301q3 43 14 172q43 50 125 109.5t164 77.5q48 0 88 -17.5t63.5 -42.5t40.5 -57t24 -57t9 -46l-205 -125q-4 59 -24 90t-50 31q-4 -46 -6 -98q-4 -76 -4 -203q0 -48 1.5 -79t7.5 -66.5t17 -55.5t31.5 -33.5t49.5 -13.5q67 0 112 39q21 17 35 39
q17 0 27 -12q-18 -58 -50.5 -140.5t-54.5 -121.5q-18 -17 -45 -27q-57 -24 -145 -24q-108 0 -180 77q-36 40 -48 98.5t-12 184.5zM131 1286l193 164q21 -49 70 -105q44 -53 94 -88l-193 -164q-48 34 -94 87t-70 106z" />
    <glyph glyph-name="Ccaron" unicode="&#x10c;" horiz-adv-x="862" 
d="M61 633q0 147 26 328t40 217q4 15 62.5 65.5t127.5 99.5q145 101 209 101q60 0 124 -14q62 -15 114 -76q59 -74 59 -176v-13l-278 -139q2 14 2 35q0 48 -14.5 81t-38.5 47.5t-44 19.5t-42 5q-4 0 -11.5 -1t-9.5 -1h-6q-15 -72 -23 -149q-20 -169 -20 -350q0 -112 4 -154
q4 -52 13.5 -96t21 -75t30.5 -55.5t34 -40t39.5 -26.5t39 -16t39.5 -8t34.5 -3.5t31.5 -0.5q99 0 178 75q1 1 15 -6q13 -7 11 -12l-24 -46t-53.5 -96t-55.5 -83q-41 -56 -93 -75.5t-138 -19.5q-94 0 -172 41t-125 115q-67 103 -87 226q-20 125 -20 276zM100 1813l258 10
q52 -96 143 -236q65 95 129 226l187 10l-57 -83l-46 -71l-52.5 -84l-49.5 -80h-307l-95 150q-31 47 -110 158z" />
    <glyph glyph-name="ccaron" unicode="&#x10d;" horiz-adv-x="624" 
d="M-47 1401l258 10q52 -96 143 -236q65 95 129 226l187 10l-57 -83l-46 -71l-52.5 -84l-49.5 -80h-307l-95 150q-31 47 -110 158zM51 344q0 141 15 301q3 43 14 172q43 50 125 109.5t164 77.5q48 0 88 -17.5t63.5 -42.5t40.5 -57t24 -57t9 -46l-205 -125q-4 59 -24 90
t-50 31q-4 -46 -6 -98q-4 -76 -4 -203q0 -48 1.5 -79t7.5 -66.5t17 -55.5t31.5 -33.5t49.5 -13.5q67 0 112 39q21 17 35 39q17 0 27 -12q-18 -58 -50.5 -140.5t-54.5 -121.5q-18 -17 -45 -27q-57 -24 -145 -24q-108 0 -180 77q-36 40 -48 98.5t-12 184.5z" />
    <glyph glyph-name="Dcaron" unicode="&#x10e;" horiz-adv-x="948" 
d="M68 1813l258 10q52 -96 143 -236q65 95 129 226l187 10l-57 -83l-46 -71l-52.5 -84l-49.5 -80h-307l-95 150q-31 47 -110 158zM438 0h-356q0 76 2 240q4 185 4 477q0 161 -1 246t-1 231q-2 164 -2 240q9 1 28 2q102 8 296 8q55 0 97 -3.5t87 -15t79.5 -30.5t67 -51.5
t56.5 -77.5q78 -141 82 -496q-1 -123 -17.5 -284.5t-30.5 -206.5q-4 -7 -37.5 -44.5t-88 -91t-99.5 -88.5q-41 -32 -72 -43.5t-94 -11.5zM360 717q0 -308 2 -363q0 -72 3 -125q4 0 14 -1.5t16 -2.5q25 -4 76 -4q49 0 78 6q15 1 29 6q32 256 32 504q0 97 -5 165.5t-20 134.5
t-41.5 106t-71 64t-107.5 24q-1 -57 -3 -137q-2 -59 -2 -377z" />
    <glyph glyph-name="dcaron" unicode="&#x10f;" horiz-adv-x="1087" 
d="M51 291q0 125 7 300q6 153 16 214q33 42 118 110.5t136 85.5q5 0 39 5q48 6 112 6q0 62 -1 162.5t-1 134.5q-2 90 -2 125h270q0 -21 -1.5 -81t-2.5 -96q-2 -75 -2 -438v-281q0 -104 2 -266q1 -49 2.5 -140t1.5 -132h-268q0 7 2 33q0 8 1 37t1 51l-53 -51q-15 -13 -41 -38
t-35 -32q-20 -16 -71 -16q-120 0 -175 74t-55 233zM301 455q0 -56 4 -94t16 -77t38.5 -59t68.5 -20q33 0 53 12v72q0 17 1 89t1 126q0 46 -1 116.5t-1 94.5q-2 62 -2 84q-4 1 -12 2.5t-12 1.5q-17 4 -58 4q-31 0 -57 -6q-12 -4 -23 -6q-2 -2 -5.5 -60.5t-7 -141.5t-3.5 -138
zM801 1280l192 164q92 -92 92 -195q-16 -76 -82.5 -159t-156.5 -121q41 84 41 182q-15 70 -86 129z" />
    <glyph glyph-name="Dcroat" unicode="&#x110;" horiz-adv-x="995" 
d="M-31 610l68 213q16 -2 26 -2q6 0 31 -1t41 -1q-2 99 -2 418q0 71 -2 197q9 1 27 2q108 8 297 8q55 0 97 -3.5t87 -15t79.5 -30.5t67 -51.5t56.5 -77.5q78 -141 82 -496q0 -118 -17 -280t-30 -211q-4 -7 -38 -45t-89 -91t-99 -88q-41 -32 -72 -43.5t-94 -11.5h-356
q0 59 2 197q2 59 2.5 201.5t1.5 215.5q-33 -2 -121 -2q-19 0 -45 -2zM408 612q0 -241 2 -284q0 -43 2 -99q4 0 14 -1.5t16 -2.5q25 -4 76 -4q50 0 78 6q15 1 29 6q32 256 32 504q0 97 -5 165.5t-20 134.5t-41.5 106t-71 64t-107.5 24q-2 -62 -2 -111q-2 -47 -2 -301
q97 0 116 2q19 0 45 2l-67 -213h-27q-6 0 -28.5 1t-38.5 1z" />
    <glyph glyph-name="dslash" unicode="&#x111;" horiz-adv-x="806" 
d="M51 291q0 125 7 300q6 153 16 214q33 42 118 110.5t136 85.5q5 0 39 5q48 6 112 6v104q-47 -2 -182 -2q-30 0 -80 -2l62 193q36 -2 59 -2q39 -3 139 -3q0 22 -1 55t-1 42v37h270q-2 -22 -2 -37q0 -10 -1 -43t-1 -54q24 0 60.5 1.5t48.5 1.5q17 0 43 2l-62 -193h-26
q-49 0 -66 2v-295v-281q0 -104 2 -266q1 -49 2.5 -140t1.5 -132h-268q0 7 2 33q0 8 1 37t1 51l-53 -51q-15 -13 -41 -38t-35 -32q-20 -16 -71 -16q-120 0 -175 74t-55 233zM301 455q0 -56 4 -94t16 -77t38.5 -59t68.5 -20q33 0 53 12v72q0 17 1 89t1 126q0 46 -1 116.5
t-1 94.5q-2 62 -2 84q-4 1 -12 2.5t-12 1.5q-17 4 -58 4q-31 0 -57 -6q-12 -4 -23 -6q-2 -2 -5.5 -60.5t-7 -141.5t-3.5 -138z" />
    <glyph glyph-name="Emacron" unicode="&#x112;" horiz-adv-x="722" 
d="M51 1511l68 193q54 -2 94 -2q40 -2 242 -2q188 0 225 2q36 0 88 2l-68 -193q-22 0 -92 2q-25 0 -106.5 1t-136.5 1q-51 0 -127 -1t-99 -1q-66 -2 -88 -2zM588 0h-506q0 67 2 225q4 181 4 492q0 316 -4 493q-2 156 -2 224h608l-133 -220q-27 0 -59 3q-18 0 -64 1t-76 1
v-379q169 0 207 2q34 0 94 2l-112 -213q-15 0 -55 2q-16 0 -61 1t-73 1v-420q193 0 236 2q38 0 108 2z" />
    <glyph glyph-name="emacron" unicode="&#x113;" horiz-adv-x="679" 
d="M14 1099l68 193q54 -2 94 -2q40 -2 242 -2q188 0 225 2q36 0 88 2l-68 -193q-22 0 -92 2q-25 0 -106.5 1t-136.5 1q-51 0 -127 -1t-99 -1q-66 -2 -88 -2zM61 348q0 101 7 213.5t16 182.5t14 75q52 48 134 101t151 84q93 0 139 -28q48 -30 76 -69q29 -41 35 -95t6 -99
q0 -67 -6 -95q-110 -85 -187 -151q-17 0 -44.5 1t-36.5 1h-37q-2 -13 -2 -59q0 -104 32 -139t84 -35q100 0 160 88q17 0 23 -13q-5 -21 -46 -130t-55 -136q-11 -15 -68 -38q-55 -23 -128 -23q-141 0 -204 91t-63 273zM326 723v-115q64 0 110 6q2 7 2 35q0 50 -22 88
q-22 39 -66 39q-4 0 -10 -1t-8 -1h-4q-2 -34 -2 -51z" />
    <glyph glyph-name="Ebreve" unicode="&#x114;" horiz-adv-x="722" 
d="M588 0h-506q0 67 2 225q4 181 4 492q0 316 -4 493q-2 156 -2 224h608l-133 -220q-27 0 -59 3q-18 0 -64 1t-76 1v-379q169 0 207 2q34 0 94 2l-112 -213q-15 0 -55 2q-16 0 -61 1t-73 1v-420q193 0 236 2q38 0 108 2zM108 1702l187 121q6 -38 28 -66q46 -63 140 -63
q79 0 119 36q40 34 63 80q12 0 18 -8q-42 -144 -100 -246q-16 -15 -47 -26q-63 -25 -158 -25q-107 0 -168.5 56t-81.5 141z" />
    <glyph glyph-name="ebreve" unicode="&#x115;" horiz-adv-x="679" 
d="M61 348q0 101 7 213.5t16 182.5t14 75q52 48 134 101t151 84q93 0 139 -28q48 -30 76 -69q29 -41 35 -95t6 -99q0 -67 -6 -95q-110 -85 -187 -151q-17 0 -44.5 1t-36.5 1h-37q-2 -13 -2 -59q0 -104 32 -139t84 -35q100 0 160 88q17 0 23 -13q-5 -21 -46 -130t-55 -136
q-11 -15 -68 -38q-55 -23 -128 -23q-141 0 -204 91t-63 273zM84 1303l187 121q6 -38 28 -66q46 -63 140 -63q79 0 119 36q40 34 63 80q12 0 18 -8q-42 -144 -100 -246q-16 -15 -47 -26q-63 -25 -158 -25q-107 0 -168.5 56t-81.5 141zM326 723v-115q64 0 110 6q2 7 2 35
q0 50 -22 88q-22 39 -66 39q-4 0 -10 -1t-8 -1h-4q-2 -34 -2 -51z" />
    <glyph glyph-name="Edotaccent" unicode="&#x116;" horiz-adv-x="722" 
d="M588 0h-506q0 67 2 225q4 181 4 492q0 316 -4 493q-2 156 -2 224h608l-133 -220q-27 0 -59 3q-18 0 -64 1t-76 1v-379q169 0 207 2q34 0 94 2l-112 -213q-15 0 -55 2q-16 0 -61 1t-73 1v-420q193 0 236 2q38 0 108 2zM202 1698l193 164q21 -49 70 -105q44 -53 94 -88
l-193 -164q-48 34 -94 87t-70 106z" />
    <glyph glyph-name="edotaccent" unicode="&#x117;" horiz-adv-x="679" 
d="M61 348q0 101 7 213.5t16 182.5t14 75q52 48 134 101t151 84q93 0 139 -28q48 -30 76 -69q29 -41 35 -95t6 -99q0 -67 -6 -95q-110 -85 -187 -151q-17 0 -44.5 1t-36.5 1h-37q-2 -13 -2 -59q0 -104 32 -139t84 -35q100 0 160 88q17 0 23 -13q-5 -21 -46 -130t-55 -136
q-11 -15 -68 -38q-55 -23 -128 -23q-141 0 -204 91t-63 273zM184 1286l193 164q21 -49 70 -105q44 -53 94 -88l-193 -164q-48 34 -94 87t-70 106zM326 723v-115q64 0 110 6q2 7 2 35q0 50 -22 88q-22 39 -66 39q-4 0 -10 -1t-8 -1h-4q-2 -34 -2 -51z" />
    <glyph glyph-name="Eogonek" unicode="&#x118;" horiz-adv-x="722" 
d="M502 0h-420q0 67 2 225q4 181 4 492q0 316 -4 493q-2 156 -2 224h608l-133 -220q-29 0 -61 3q-18 0 -64 1t-76 1v-379q171 0 209 2q36 0 94 2l-112 -213q-16 0 -58 2q-16 0 -60.5 1t-72.5 1v-420q195 0 238 2q40 0 108 2l-114 -219q-39 -74 -54.5 -116.5t-15.5 -92.5
q0 -56 24.5 -87.5t71.5 -31.5q17 0 31.5 3.5t19.5 5.5t25 12q12 -5 12 -17q-12 -13 -34 -41q-10 -10 -30 -33t-28 -30q-23 -14 -63 -14q-82 0 -118 54t-36 124q0 87 31 145q32 61 78 119z" />
    <glyph glyph-name="eogonek" unicode="&#x119;" horiz-adv-x="679" 
d="M61 348q0 101 7 213.5t16 182.5t14 75q52 48 134 101t151 84q93 0 139 -28q48 -30 76 -69q29 -41 35 -95t6 -99q0 -67 -6 -95q-110 -85 -187 -151q-17 0 -44.5 1t-36.5 1h-37q-2 -13 -2 -59q0 -104 32 -139t84 -35q100 0 160 88q17 0 23 -13q-3 -14 -49.5 -123.5
t-53.5 -128.5q-42 -96 -60 -152t-18 -116q0 -119 93 -119q8 0 14 0.5t12.5 1.5t9.5 2l10 3.5t8.5 3.5t10 5l10.5 5q12 -4 13 -17q-19 -20 -35 -41q-10 -10 -30 -33t-28 -30q-23 -14 -63 -14q-83 0 -114 54q-33 54 -33 122q0 134 79 262q-35 -12 -73 -12q-141 0 -204 91
t-63 273zM326 723v-115q64 0 110 6q2 7 2 35q0 50 -22 88q-22 39 -66 39q-4 0 -10 -1t-8 -1h-4q-2 -34 -2 -51z" />
    <glyph glyph-name="Ecaron" unicode="&#x11a;" horiz-adv-x="722" 
d="M21 1813l258 10q52 -96 143 -236q65 95 129 226l187 10l-57 -83l-46 -71l-52.5 -84l-49.5 -80h-307l-95 150q-31 47 -110 158zM588 0h-506q0 67 2 225q4 181 4 492q0 316 -4 493q-2 156 -2 224h608l-133 -220q-27 0 -59 3q-18 0 -64 1t-76 1v-379q169 0 207 2q34 0 94 2
l-112 -213q-15 0 -55 2q-16 0 -61 1t-73 1v-420q193 0 236 2q38 0 108 2z" />
    <glyph glyph-name="ecaron" unicode="&#x11b;" horiz-adv-x="679" 
d="M-2 1401l258 10q52 -96 143 -236q65 95 129 226l187 10l-57 -83l-46 -71l-52.5 -84l-49.5 -80h-307l-95 150q-31 47 -110 158zM61 348q0 101 7 213.5t16 182.5t14 75q52 48 134 101t151 84q93 0 139 -28q48 -30 76 -69q29 -41 35 -95t6 -99q0 -67 -6 -95
q-110 -85 -187 -151q-17 0 -44.5 1t-36.5 1h-37q-2 -13 -2 -59q0 -104 32 -139t84 -35q100 0 160 88q17 0 23 -13q-5 -21 -46 -130t-55 -136q-11 -15 -68 -38q-55 -23 -128 -23q-141 0 -204 91t-63 273zM326 723v-115q64 0 110 6q2 7 2 35q0 50 -22 88q-22 39 -66 39
q-4 0 -10 -1t-8 -1h-4q-2 -34 -2 -51z" />
    <glyph glyph-name="Gcircumflex" unicode="&#x11c;" horiz-adv-x="935" 
d="M59 547q0 179 19 344q18 168 59 307q59 59 145 127q87 69 177 113q19 6 67 6q50 0 102 -7q53 -7 97 -42q53 -41 74.5 -93t21.5 -139l-272 -125q0 100 -40 143q-41 42 -87 42q-20 0 -35 -6q-22 -50 -39.5 -189.5t-17.5 -341.5q0 -442 202 -442q26 0 46 6v53q0 15 1 55.5
t1 65.5t-1 65.5t-1 57.5v57q-25 0 -68 -1t-59 -1q-42 -2 -60 -2l158 209h315q-2 -58 -2 -94v-211v-221q0 -37 2 -101q-177 -125 -282 -184q-12 -6 -33 -12q-34 -9 -96 -11q-46 0 -115 20q-67 21 -129 83q-63 63 -106 174q-44 114 -44 295zM307 1515l-186 -10q93 133 205 318
h307l95 -150q49 -74 110 -158l-258 -10q-63 117 -144 236q-59 -87 -129 -226z" />
    <glyph glyph-name="gcircumflex" unicode="&#x11d;" horiz-adv-x="817" 
d="M61 322q0 88 12 265q5 78 12 143q8 69 13 89q32 35 123 100q81 56 133 85q2 0 10.5 1.5l14.5 2.5q17 4 59 4q61 0 154 -19q21 -5 57 -16l96 27q-2 -122 -2 -191q-2 -77 -2 -403q0 -337 2 -410q0 -68 2 -178q-46 -58 -132 -141.5t-138 -120.5q-38 -9 -72 -9q-96 0 -178 46
t-139 114l203 199q72 -111 194 -115v88q0 22 1 105t1 143q-106 -110 -125 -127q-37 -20 -110 -20q-38 0 -67.5 12t-49 29.5t-33.5 47t-21.5 56t-11.5 64.5t-5 64.5t-1 64.5zM256 1103l-186 -10q93 133 205 318h307l95 -150q49 -74 110 -158l-258 -10q-63 117 -144 236
q-59 -87 -129 -226zM315 506q0 -52 1 -81.5t4.5 -70.5t11.5 -64t21.5 -46t35 -33t51.5 -10q27 0 45 6v104q0 29 1 99.5t1 103.5q0 38 -1 104.5t-1 90.5v86q-41 12 -84 12q-33 0 -63 -6q-23 -136 -23 -295z" />
    <glyph glyph-name="Gbreve" unicode="&#x11e;" horiz-adv-x="935" 
d="M59 547q0 179 19 344q18 168 59 307q59 59 145 127q87 69 177 113q19 6 67 6q50 0 102 -7q53 -7 97 -42q53 -41 74.5 -93t21.5 -139l-272 -125q0 100 -40 143q-41 42 -87 42q-20 0 -35 -6q-22 -50 -39.5 -189.5t-17.5 -341.5q0 -442 202 -442q26 0 46 6v53q0 15 1 55.5
t1 65.5t-1 65.5t-1 57.5v57q-25 0 -68 -1t-59 -1q-42 -2 -60 -2l158 209h315q-2 -58 -2 -94v-211v-221q0 -37 2 -101q-177 -125 -282 -184q-12 -6 -33 -12q-34 -9 -96 -11q-46 0 -115 20q-67 21 -129 83q-63 63 -106 174q-44 114 -44 295zM182 1702l187 121q6 -38 28 -66
q46 -63 140 -63q79 0 119 36q40 34 63 80q12 0 18 -8q-42 -144 -100 -246q-16 -15 -47 -26q-63 -25 -158 -25q-107 0 -168.5 56t-81.5 141z" />
    <glyph glyph-name="gbreve" unicode="&#x11f;" horiz-adv-x="817" 
d="M61 322q0 88 12 265q5 78 12 143q8 69 13 89q32 35 123 100q81 56 133 85q2 0 10.5 1.5l14.5 2.5q17 4 59 4q61 0 154 -19q21 -5 57 -16l96 27q-2 -122 -2 -191q-2 -77 -2 -403q0 -337 2 -410q0 -68 2 -178q-46 -58 -132 -141.5t-138 -120.5q-38 -9 -72 -9q-96 0 -178 46
t-139 114l203 199q72 -111 194 -115v88q0 22 1 105t1 143q-106 -110 -125 -127q-37 -20 -110 -20q-38 0 -67.5 12t-49 29.5t-33.5 47t-21.5 56t-11.5 64.5t-5 64.5t-1 64.5zM151 1303l187 121q6 -38 28 -66q46 -63 140 -63q78 0 119 36q40 34 63 80q12 0 18 -8
q-42 -144 -100 -246q-16 -15 -47 -26q-63 -25 -158 -25q-107 0 -168.5 56t-81.5 141zM315 506q0 -52 1 -81.5t4.5 -70.5t11.5 -64t21.5 -46t35 -33t51.5 -10q27 0 45 6v104q0 29 1 99.5t1 103.5q0 38 -1 104.5t-1 90.5v86q-41 12 -84 12q-33 0 -63 -6q-23 -136 -23 -295z
" />
    <glyph glyph-name="Gdotaccent" unicode="&#x120;" horiz-adv-x="935" 
d="M59 547q0 179 19 344q18 168 59 307q59 59 145 127q87 69 177 113q19 6 67 6q50 0 102 -7q53 -7 97 -42q53 -41 74.5 -93t21.5 -139l-272 -125q0 100 -40 143q-41 42 -87 42q-20 0 -35 -6q-22 -50 -39.5 -189.5t-17.5 -341.5q0 -442 202 -442q26 0 46 6v53q0 15 1 55.5
t1 65.5t-1 65.5t-1 57.5v57q-25 0 -68 -1t-59 -1q-42 -2 -60 -2l158 209h315q-2 -58 -2 -94v-211v-221q0 -37 2 -101q-177 -125 -282 -184q-12 -6 -33 -12q-34 -9 -96 -11q-46 0 -115 20q-67 21 -129 83q-63 63 -106 174q-44 114 -44 295zM297 1698l193 164q21 -49 70 -105
q44 -53 94 -88l-193 -164q-48 34 -94 87t-70 106z" />
    <glyph glyph-name="gdotaccent" unicode="&#x121;" horiz-adv-x="817" 
d="M61 322q0 88 12 265q5 78 12 143q8 69 13 89q32 35 123 100q81 56 133 85q2 0 10.5 1.5l14.5 2.5q17 4 59 4q61 0 154 -19q21 -5 57 -16l96 27q-2 -122 -2 -191q-2 -77 -2 -403q0 -337 2 -410q0 -68 2 -178q-46 -58 -132 -141.5t-138 -120.5q-38 -9 -72 -9q-96 0 -178 46
t-139 114l203 199q72 -111 194 -115v88q0 22 1 105t1 143q-106 -110 -125 -127q-37 -20 -110 -20q-38 0 -67.5 12t-49 29.5t-33.5 47t-21.5 56t-11.5 64.5t-5 64.5t-1 64.5zM251 1286l193 164q21 -49 70 -105q44 -53 94 -88l-193 -164q-48 34 -94 87t-70 106zM315 506
q0 -52 1 -81.5t4.5 -70.5t11.5 -64t21.5 -46t35 -33t51.5 -10q27 0 45 6v104q0 29 1 99.5t1 103.5q0 38 -1 104.5t-1 90.5v86q-41 12 -84 12q-33 0 -63 -6q-23 -136 -23 -295z" />
    <glyph glyph-name="uni0122" unicode="&#x122;" horiz-adv-x="935" 
d="M59 547q0 179 19 344q18 168 59 307q59 59 145 127q87 69 177 113q19 6 67 6q50 0 102 -7q53 -7 97 -42q53 -41 74.5 -93t21.5 -139l-272 -125q0 100 -40 143q-41 42 -87 42q-20 0 -35 -6q-22 -50 -39.5 -189.5t-17.5 -341.5q0 -442 202 -442q26 0 46 6v53q0 15 1 55.5
t1 65.5t-1 65.5t-1 57.5v57q-25 0 -68 -1t-59 -1q-42 -2 -60 -2l158 209h315q-2 -58 -2 -94v-211v-221q0 -37 2 -101q-177 -125 -282 -184q-12 -6 -33 -12q-34 -9 -96 -11q-46 0 -115 20q-67 21 -129 83q-63 63 -106 174q-44 114 -44 295zM369 -236l192 164q92 -92 92 -195
q-16 -76 -82.5 -159t-156.5 -121q41 84 41 182q-15 70 -86 129z" />
    <glyph glyph-name="uni0123" unicode="&#x123;" horiz-adv-x="817" 
d="M61 322q0 88 12 265q5 78 12 143q8 69 13 89q32 35 123 100q81 56 133 85q2 0 10.5 1.5l14.5 2.5q17 4 59 4q61 0 154 -19q21 -5 57 -16l96 27q-2 -122 -2 -191q-2 -77 -2 -403q0 -337 2 -410q0 -68 2 -178q-46 -58 -132 -141.5t-138 -120.5q-38 -9 -72 -9q-96 0 -178 46
t-139 114l203 199q72 -111 194 -115v88q0 22 1 105t1 143q-106 -110 -125 -127q-37 -20 -110 -20q-38 0 -67.5 12t-49 29.5t-33.5 47t-21.5 56t-11.5 64.5t-5 64.5t-1 64.5zM260 1259q17 78 82 157t157 124q-41 -84 -41 -182q15 -72 86 -129l-192 -164q-92 92 -92 194z
M315 506q0 -52 1 -81.5t4.5 -70.5t11.5 -64t21.5 -46t35 -33t51.5 -10q27 0 45 6v104q0 29 1 99.5t1 103.5q0 38 -1 104.5t-1 90.5v86q-41 12 -84 12q-33 0 -63 -6q-23 -136 -23 -295z" />
    <glyph glyph-name="Hcircumflex" unicode="&#x124;" horiz-adv-x="968" 
d="M377 0h-295q0 42 2 186q4 164 4 551q0 378 -4 531q-2 130 -2 166h293q0 -15 -1.5 -68.5l-2.5 -87.5q-2 -67 -2 -438h237q0 303 -4 438q-2 118 -2 156h293q0 -8 -1.5 -68l-2.5 -98q-2 -77 -2 -531q0 -468 2 -551l2.5 -109t1.5 -77h-293q0 46 2 176q4 149 4 459h-237
q0 -310 4 -459l2.5 -97t1.5 -79zM327 1515l-186 -10q93 133 205 318h307l95 -150q49 -74 110 -158l-258 -10q-63 117 -144 236q-59 -87 -129 -226z" />
    <glyph glyph-name="hcircumflex" unicode="&#x125;" horiz-adv-x="831" 
d="M247 1515l-186 -10q93 133 205 318h307l95 -150q49 -74 110 -158l-258 -10q-63 117 -144 236q-59 -87 -129 -226zM336 0h-264q0 69 2 229q4 185 4 508q0 302 -4 477q-2 154 -2 220h264q-2 -118 -2 -187q-2 -75 -2 -397l41 41l61 61q20 17 33.5 26t40.5 17.5t61 8.5
q88 0 144.5 -65t56.5 -159q0 -22 -2 -149.5t-2 -220.5q0 -228 2 -281q0 -47 2 -129h-270q0 67 2 213q0 59 1 203.5t1 218.5q0 54 -33.5 87.5t-85.5 33.5q-30 0 -53 -11q0 -427 2 -520q0 -87 2 -225z" />
    <glyph glyph-name="Hbar" unicode="&#x126;" horiz-adv-x="968" 
d="M-20 1018h-41l67 217q14 -2 23 -2h57q-2 45 -2 151q0 22 -2 50h293q-2 -34 -2 -56q0 -15 -1 -64.5t-1 -84.5h233q-2 43 -2 151q0 24 -2 54h287q-2 -30 -2 -54q0 -14 -1 -63.5t-1 -85.5q26 0 60.5 1t45.5 1q17 0 41 2l-67 -217h-25q-43 0 -57 2v-283q0 -468 2 -551
l2.5 -109t1.5 -77h-287q0 46 2 176q4 149 4 459h-237q0 -310 4 -459l2.5 -97t1.5 -79h-295q0 42 2 186q4 164 4 551v283q-26 0 -61.5 -1t-46.5 -1zM369 1024v-184h237v184h-237z" />
    <glyph glyph-name="hbar" unicode="&#x127;" horiz-adv-x="831" 
d="M-33 1112h-43l62 193q14 -2 24 -2h64q-2 26 -2 96v35h264q-2 -22 -2 -37v-97q147 0 184 3q30 0 82 2l-61 -193q-38 2 -62 2q-108 0 -145 2v-266l41 41l61 61q20 17 33.5 26t40.5 17.5t61 8.5q88 0 144.5 -65t56.5 -159q0 -22 -2 -149.5t-2 -220.5q0 -228 2 -281
q0 -47 2 -129h-270q0 67 2 213q0 59 1 203.5t1 218.5q0 54 -33.5 87.5t-85.5 33.5q-30 0 -53 -11q0 -427 2 -520q0 -87 2 -225h-264q0 69 2 229q4 185 4 508q0 67 -1 194.5t-1 182.5q-24 0 -60.5 -1t-48.5 -1z" />
    <glyph glyph-name="Itilde" unicode="&#x128;" horiz-adv-x="446" 
d="M-96 1565l68 192q19 54 67 56q19 0 43 -7l379 -100q30 -8 49 -8q53 0 84 55l-67 -192q-19 -54 -68 -56q-19 0 -43 7l-379 100q-26 8 -49 8q-53 0 -84 -55zM365 0h-283q0 67 2 233q4 188 4 525q0 302 -4 469q-2 148 -2 207h283q-1 -52 -5 -207q-2 -83 -2 -469
q0 -430 2 -525q1 -94 5 -233z" />
    <glyph glyph-name="itilde" unicode="&#x129;" horiz-adv-x="421" 
d="M-139 1163l68 192q19 54 67 56q19 0 43 -7l379 -100q30 -8 49 -8q53 0 84 55l-67 -192q-19 -54 -68 -56q-19 0 -43 7l-379 100q-26 8 -49 8q-53 0 -84 -55zM344 0h-264q0 48 2 160q0 44 1 163t1 189q0 62 -1 174t-1 154q-2 106 -2 151h264q-2 -96 -2 -151q-2 -61 -2 -328
q0 -289 2 -352q0 -58 2 -160z" />
    <glyph glyph-name="Imacron" unicode="&#x12a;" horiz-adv-x="446" 
d="M-129 1511l68 193q54 -2 94 -2q40 -2 242 -2q188 0 225 2q36 0 88 2l-68 -193q-22 0 -92 2q-25 0 -106.5 1t-136.5 1q-51 0 -127 -1t-99 -1q-66 -2 -88 -2zM365 0h-283q0 67 2 233q4 188 4 525q0 302 -4 469q-2 148 -2 207h283q-1 -52 -5 -207q-2 -83 -2 -469
q0 -430 2 -525q1 -94 5 -233z" />
    <glyph glyph-name="imacron" unicode="&#x12b;" horiz-adv-x="421" 
d="M-148 1099l68 193q54 -2 94 -2q40 -2 242 -2q188 0 225 2q36 0 88 2l-68 -193q-22 0 -92 2q-25 0 -106.5 1t-136.5 1q-51 0 -127 -1t-99 -1q-66 -2 -88 -2zM344 0h-264q0 48 2 160q0 44 1 163t1 189q0 62 -1 174t-1 154q-2 106 -2 151h264q-2 -96 -2 -151q-2 -61 -2 -328
q0 -289 2 -352q0 -58 2 -160z" />
    <glyph glyph-name="Ibreve" unicode="&#x12c;" horiz-adv-x="446" 
d="M-50 1702l187 121q6 -38 28 -66q46 -63 140 -63q79 0 119 36q40 34 63 80q12 0 18 -8q-42 -144 -100 -246q-16 -15 -47 -26q-63 -25 -158 -25q-107 0 -168.5 56t-81.5 141zM365 0h-283q0 67 2 233q4 188 4 525q0 302 -4 469q-2 148 -2 207h283q-1 -52 -5 -207
q-2 -83 -2 -469q0 -430 2 -525q1 -94 5 -233z" />
    <glyph glyph-name="ibreve" unicode="&#x12d;" horiz-adv-x="421" 
d="M-66 1303l187 121q6 -38 28 -66q46 -63 140 -63q79 0 119 36q40 34 63 80q12 0 18 -8q-42 -144 -100 -246q-16 -15 -47 -26q-63 -25 -158 -25q-107 0 -168.5 56t-81.5 141zM344 0h-264q0 48 2 160q0 44 1 163t1 189q0 62 -1 174t-1 154q-2 106 -2 151h264q-2 -96 -2 -151
q-2 -61 -2 -328q0 -289 2 -352q0 -58 2 -160z" />
    <glyph glyph-name="Iogonek" unicode="&#x12e;" horiz-adv-x="446" 
d="M-35 -233q0 93 38 149q37 54 79 84q0 67 2 233q4 188 4 525q0 302 -4 469q-2 148 -2 207h283q-1 -52 -5 -207q-2 -83 -2 -469q0 -430 2 -525q1 -94 5 -233h-144q-43 0 -87 -44t-44 -142q0 -67 40 -104q41 -38 87 -38q8 0 14 0.5t12 1.5t10 2t10 3.5l8.5 3.5t10.5 5t11 5
q12 -5 12 -17q-19 -20 -35 -41q-12 -11 -32 -34l-25 -29q-23 -14 -63 -14q-83 0 -134 56t-51 153z" />
    <glyph glyph-name="iogonek" unicode="&#x12f;" horiz-adv-x="421" 
d="M-39 -229q0 92 39 146t80 83q0 48 2 160q0 44 1 163t1 189q0 62 -1 174t-1 154q-2 106 -2 151h264q-2 -96 -2 -151q-2 -61 -2 -328q0 -289 2 -352q0 -58 2 -160h-125q-49 0 -91 -48.5t-42 -131.5q0 -72 41 -110t88 -38q8 0 14 0.5t12 1.5t10 2t10 3.5l8.5 3.5t10.5 5
t11 5q12 -5 12 -17q-19 -20 -35 -41q-11 -11 -31 -34t-26 -29q-23 -14 -64 -14q-81 0 -133 57q-53 58 -53 156zM31 1212q17 17 28 33q9 11 30.5 35t31.5 37l74 90l28 -14l66 -33l76 -37q6 -3 18 -8.5t18 -7.5l-26 -29l-60 -66q-14 -14 -57 -65q-9 -11 -27 -31l-30 14
q-14 6 -70 35q-10 4 -33.5 16.5t-34.5 16.5q-26 12 -32 14z" />
    <glyph glyph-name="Idot" unicode="&#x130;" horiz-adv-x="446" 
d="M55 1698l193 164q21 -49 70 -105q44 -53 94 -88l-193 -164q-48 34 -94 87t-70 106zM365 0h-283q0 67 2 233q4 188 4 525q0 302 -4 469q-2 148 -2 207h283q-1 -52 -5 -207q-2 -83 -2 -469q0 -430 2 -525q1 -94 5 -233z" />
    <glyph glyph-name="dotlessi" unicode="&#x131;" horiz-adv-x="421" 
d="M344 0h-264q0 48 2 160q0 44 1 163t1 189q0 62 -1 174t-1 154q-2 106 -2 151h264q-2 -96 -2 -151q-2 -61 -2 -328q0 -289 2 -352q0 -58 2 -160z" />
    <glyph glyph-name="IJ" unicode="&#x132;" horiz-adv-x="921" 
d="M82 334q0 5 2 165q2 158 2 279q0 76 -1 226.5t-1 212.5q-2 150 -2 217h289q-2 -230 -2 -351q-2 -206 -2 -335v-351q0 -71 34.5 -111t92.5 -40q42 0 65 12q0 291 -1 432q-1 207 -3 377q-2 260 -2 367h287q-3 -236 -5 -623q-1 -203 -1 -680q0 -233 -23 -256l-153.5 -137.5
t-133.5 -110.5q-25 4 -28 27q42 64 51.5 137.5t9.5 239.5v86q-22 -25 -41 -43q-7 -8 -67 -68q-3 -3 -15 -8t-37 -9.5t-55 -4.5q-63 0 -109.5 18t-75 47.5t-45.5 75.5t-23.5 95.5t-6.5 113.5z" />
    <glyph glyph-name="ij" unicode="&#x133;" horiz-adv-x="825" 
d="M31 1212q17 17 28 33q9 11 30.5 35t31.5 37l74 90l28 -14l66 -33l76 -37q6 -3 18 -8.5t18 -7.5l-26 -29l-60 -66q-14 -14 -57 -65q-9 -11 -27 -31l-30 14q-14 6 -70 35q-10 4 -33.5 16.5t-34.5 16.5q-26 12 -32 14zM80 227q0 25 2 129t2 217q0 50 -1 148t-1 135
q-2 94 -2 135h264q-2 -130 -2 -209q-2 -83 -2 -458q0 -62 28.5 -92.5t71.5 -30.5q32 0 60 18q-1 102 -1.5 285t-2.5 256q-2 166 -2 231h247q-2 -180 -2 -293q-2 -120 -2 -678q0 -231 -22 -256q-146 -135 -248 -213q-24 4 -29 27q42 64 52 138.5t10 238.5v166l-111 -109
q-46 -43 -117 -43q-73 0 -120 43q-50 45 -60 108q-12 62 -12 107zM434 1212q16 16 29 33q7 9 28.5 33t32.5 39l74 90l29 -14q3 -1 26 -13l39 -20l76 -37q4 -2 17 -7.5l20 -8.5q-16 -18 -27 -29q-7 -9 -27.5 -31t-31.5 -35q-14 -14 -57 -65q-9 -11 -27 -31l-31 14
q-20 8 -69 35q-11 5 -34.5 17t-33.5 16q-22 10 -33 14z" />
    <glyph glyph-name="Jcircumflex" unicode="&#x134;" horiz-adv-x="452" 
d="M98 1515l-186 -10q93 133 205 318h307l95 -150q49 -74 110 -158l-258 -10q-63 117 -144 236q-59 -87 -129 -226zM-10 139q25 -9 80 -16q7 -1 19 -2.5t17 -1.5q0 87 3 188q0 51 1 196.5t1 233.5q0 89 -1 251.5t-1 223.5l-3 222h265q-2 -138 -2 -220q-2 -87 -2 -477
q0 -81 0.5 -169t1 -157.5t1 -126.5t1 -92t0.5 -38q-29 -56 -102 -158.5t-115 -151.5q-24 -12 -56 -12q-29 0 -50.5 18.5t-27.5 43.5q-9 34 -18 137q-6 51 -12 108z" />
    <glyph glyph-name="jcircumflex" unicode="&#x135;" horiz-adv-x="421" 
d="M68 1104l-187 -10q97 140 205 317h307l96 -149l109 -158l-258 -10q-55 101 -143 235q-64 -94 -129 -225zM35 -422q42 63 51.5 136.5t9.5 240.5q0 255 -1 378q-1 185 -3 333q-2 230 -2 325h248q-2 -180 -2 -293q-2 -120 -2 -678q0 -230 -23 -256q-152 -142 -248 -213
q-25 4 -28 27z" />
    <glyph glyph-name="uni0136" unicode="&#x136;" horiz-adv-x="882" 
d="M375 0h-293q0 70 2 236q4 188 4 522q0 291 -4 463q-2 150 -2 213h293q0 -21 -1.5 -79t-2.5 -93q-4 -143 -4 -414q18 48 39 98q11 31 40 104t43 111l68 189q5 13 10 27.5l10.5 31l8.5 25.5l252 10l-138 -305q-21 -44 -51.5 -115t-38.5 -88l-41 -88q17 -51 39 -111l94 -262
l115 -313l55 -152l-299 -20l-30 98l-70 213q-8 22 -33.5 102t-38.5 113l-34 96q0 -266 4 -419q1 -35 2.5 -99.5t1.5 -93.5zM291 -236l192 164q92 -92 92 -195q-16 -76 -82.5 -159t-156.5 -121q41 84 41 182q-15 70 -86 129z" />
    <glyph glyph-name="uni0137" unicode="&#x137;" horiz-adv-x="833" 
d="M338 0h-266q0 69 2 229q4 185 4 508q0 302 -4 477q-2 154 -2 220h266q-2 -112 -2 -181q-2 -73 -2 -395q27 29 53 53l86 82q41 19 100 19q35 0 67 -12t63 -40.5t50 -85.5t19 -137q0 -45 -6 -69l-158 -97q82 -8 122 -52t40 -116v-278q0 -49 2 -125h-260v98q0 28 1 96t1 101
q0 57 -36.5 92t-96.5 35q-26 0 -47 -8q0 -228 2 -281q0 -49 2 -133zM240 -236l192 164q92 -92 92 -195q-16 -76 -82.5 -159t-156.5 -121q41 84 41 182q-15 70 -86 129zM334 760v-273l129 74q27 14 35 36.5t8 61.5q0 50 -28 79.5t-85 29.5q-29 0 -59 -8z" />
    <glyph glyph-name="kgreenlandic" unicode="&#x138;" horiz-adv-x="833" 
d="M338 0h-266q0 21 2 119q0 28 1 163.5t1 249.5q0 88 -1 203t-1 144q-2 90 -2 112h264q-2 -60 -2 -104q-2 -45 -2 -291v-23l176 316q38 71 53 102h193l-60 -92q-102 -165 -168 -283q77 -191 164 -383q42 -99 78 -172l-246 -88l-55 144l-135 338q0 -223 4 -328q2 -94 2 -127
z" />
    <glyph glyph-name="Lacute" unicode="&#x139;" horiz-adv-x="677" 
d="M16 1505l66 229q28 5 55 13q48 11 143 36q105 28 150 43q29 7 59 19l-65 -227q-24 -6 -45 -13q-129 -33 -135 -35l-158 -45zM518 0h-436q0 55 2 205q4 171 4 512q0 336 -4 512q-2 150 -2 205h276q0 -30 -1.5 -105t-2.5 -119q-2 -91 -2 -493v-502q97 0 223 10q70 6 103 11
z" />
    <glyph glyph-name="lacute" unicode="&#x13a;" horiz-adv-x="413" 
d="M6 1505l66 229q28 5 55 13q48 11 143 36q105 28 150 43q29 7 59 19l-65 -227q-24 -6 -45 -13q-129 -33 -135 -35l-158 -45zM342 0h-270q0 61 2 211q4 175 4 506q0 284 -4 475q-2 164 -2 242h270q0 -39 -1.5 -121.5t-2.5 -126.5q-2 -95 -2 -469q0 -423 2 -510
q1 -41 2.5 -111t1.5 -96z" />
    <glyph glyph-name="uni013B" unicode="&#x13b;" horiz-adv-x="677" 
d="M518 0h-436q0 55 2 205q4 171 4 512q0 336 -4 512q-2 150 -2 205h276q0 -30 -1.5 -105t-2.5 -119q-2 -91 -2 -493v-502q97 0 223 10q70 6 103 11zM189 -236l192 164q92 -92 92 -195q-16 -76 -82.5 -159t-156.5 -121q41 84 41 182q-15 70 -86 129z" />
    <glyph glyph-name="uni013C" unicode="&#x13c;" horiz-adv-x="413" 
d="M70 -236l192 164q92 -92 92 -195q-16 -76 -82.5 -159t-156.5 -121q41 84 41 182q-15 70 -86 129zM342 0h-270q0 61 2 211q4 175 4 506q0 284 -4 475q-2 164 -2 242h270q0 -39 -1.5 -121.5t-2.5 -126.5q-2 -95 -2 -469q0 -423 2 -510q1 -41 2.5 -111t1.5 -96z" />
    <glyph glyph-name="Lcaron" unicode="&#x13d;" horiz-adv-x="677" 
d="M518 0h-436q0 55 2 205q4 171 4 512q0 336 -4 512q-2 150 -2 205h276q0 -30 -1.5 -105t-2.5 -119q-2 -91 -2 -493v-502q97 0 223 10q70 6 103 11zM420 1280l192 164q92 -92 92 -195q-16 -76 -82.5 -159t-156.5 -121q41 84 41 182q-15 70 -86 129z" />
    <glyph glyph-name="lcaron" unicode="&#x13e;" horiz-adv-x="667" 
d="M342 0h-270q0 61 2 211q4 175 4 506q0 284 -4 475q-2 164 -2 242h270q0 -39 -1.5 -121.5t-2.5 -126.5q-2 -95 -2 -469q0 -423 2 -510q1 -41 2.5 -111t1.5 -96zM404 1280l192 164q92 -92 92 -195q-16 -76 -82.5 -159t-156.5 -121q41 84 41 182q-15 70 -86 129z" />
    <glyph glyph-name="Ldot" unicode="&#x13f;" horiz-adv-x="804" 
d="M518 0h-436q0 55 2 205q4 171 4 512q0 336 -4 512q-2 150 -2 205h276q0 -30 -1.5 -105t-2.5 -119q-2 -91 -2 -493v-502q97 0 223 10q70 6 103 11zM423 745l193 164q21 -49 70 -105q44 -53 94 -88l-193 -163q-47 33 -94 87t-70 105z" />
    <glyph glyph-name="ldot" unicode="&#x140;" horiz-adv-x="792" 
d="M342 0h-270q0 61 2 211q4 175 4 506q0 284 -4 475q-2 164 -2 242h270q0 -39 -1.5 -121.5t-2.5 -126.5q-2 -95 -2 -469q0 -423 2 -510q1 -41 2.5 -111t1.5 -96zM407 745l193 164q21 -49 70 -105q44 -53 94 -88l-193 -163q-47 33 -94 87t-70 105z" />
    <glyph glyph-name="Lslash" unicode="&#x141;" horiz-adv-x="677" 
d="M6 541l-123 125l205 79q0 328 -4 492q-2 146 -2 197h276q0 -22 -1.5 -80.5t-2.5 -93.5q-2 -71 -2 -404q7 4 82 37l121 -123l-203 -78v-477q97 0 223 10q70 6 103 11l-160 -236h-436q0 42 2 162q2 53 2.5 193.5t1.5 222.5z" />
    <glyph glyph-name="lslash" unicode="&#x142;" horiz-adv-x="413" 
d="M-8 541l-123 125l209 82q0 281 -4 458q-2 156 -2 228h270q0 -27 -1.5 -90.5t-2.5 -98.5q-2 -75 -2 -389l41.5 18.5t42.5 18.5l121 -123l-95.5 -36.5t-109.5 -43.5q0 -409 2 -491q1 -41 2.5 -108t1.5 -91h-270q0 44 2 166q2 53 2.5 192.5t1.5 221.5z" />
    <glyph glyph-name="Nacute" unicode="&#x143;" horiz-adv-x="1013" 
d="M92 1393l-14 41h344l47 -146q24 -69 104 -321q20 -65 59.5 -179l53.5 -157l53 -154q0 322 -6 672q-5 155 -6 285h205q0 -35 -1.5 -110t-2.5 -116q-2 -89 -2 -471q0 -418 2 -508q1 -42 2.5 -115.5t1.5 -103.5l-316 -20l-57 174q-27 77 -123 377l-108 329l-49 148
q0 -248 1 -369q2 -226 5 -327q2 -171 6 -322h-209q0 69 1.5 221t2.5 234q0 126 3 448t3 490zM299 1505l66 229q28 5 55 13q48 11 143 36q105 28 150 43q29 7 59 19l-65 -227q-24 -6 -45 -13q-129 -33 -135 -35l-158 -45z" />
    <glyph glyph-name="nacute" unicode="&#x144;" 
d="M336 0h-264q0 29 2 125q4 108 4 354q0 250 -4 371q-2 106 -2 141h264v-153q21 24 51 61.5t41.5 50t33 29t43.5 21t56 4.5q86 0 146 -60q59 -62 59 -158q0 -57 -2 -172t-2 -204q0 -218 2 -271q1 -25 2.5 -71.5t1.5 -67.5h-260q0 88 2 238q0 71 1 196t1 160q0 168 -117 168
q-23 0 -45 -6q-7 -4 -14 -6q0 -17 -1.5 -59.5t-2.5 -67.5q-2 -51 -2 -267q0 -204 2 -247q1 -20 2.5 -56.5t1.5 -52.5zM205 1104l66 229q28 5 55 13q48 11 143 36q105 28 150 43q29 7 59 19l-65 -227q-24 -6 -45 -13q-129 -33 -135 -35l-158 -45z" />
    <glyph glyph-name="uni0145" unicode="&#x145;" horiz-adv-x="1013" 
d="M92 1393l-14 41h344l47 -146q24 -69 104 -321q20 -65 59.5 -179l53.5 -157l53 -154q0 322 -6 672q-5 155 -6 285h205q0 -35 -1.5 -110t-2.5 -116q-2 -89 -2 -471q0 -418 2 -508q1 -42 2.5 -115.5t1.5 -103.5l-316 -20l-57 174q-27 77 -123 377l-108 329l-49 148
q0 -248 1 -369q2 -226 5 -327q2 -171 6 -322h-209q0 69 1.5 221t2.5 234q0 126 3 448t3 490zM363 -236l192 164q92 -92 92 -195q-16 -76 -82.5 -159t-156.5 -121q41 84 41 182q-15 70 -86 129z" />
    <glyph glyph-name="uni0146" unicode="&#x146;" 
d="M336 0h-264q0 29 2 125q4 108 4 354q0 250 -4 371q-2 106 -2 141h264v-153q21 24 51 61.5t41.5 50t33 29t43.5 21t56 4.5q86 0 146 -60q59 -62 59 -158q0 -57 -2 -172t-2 -204q0 -218 2 -271q1 -25 2.5 -71.5t1.5 -67.5h-260q0 88 2 238q0 71 1 196t1 160q0 168 -117 168
q-23 0 -45 -6q-7 -4 -14 -6q0 -17 -1.5 -59.5t-2.5 -67.5q-2 -51 -2 -267q0 -204 2 -247q1 -20 2.5 -56.5t1.5 -52.5zM254 -236l192 164q92 -92 92 -195q-16 -76 -82.5 -159t-156.5 -121q41 84 41 182q-15 70 -86 129z" />
    <glyph glyph-name="Ncaron" unicode="&#x147;" horiz-adv-x="1013" 
d="M92 1393l-14 41h344l47 -146q24 -69 104 -321q20 -65 59.5 -179l53.5 -157l53 -154q0 322 -6 672q-5 155 -6 285h205q0 -35 -1.5 -110t-2.5 -116q-2 -89 -2 -471q0 -418 2 -508q1 -42 2.5 -115.5t1.5 -103.5l-316 -20l-57 174q-27 77 -123 377l-108 329l-49 148
q0 -248 1 -369q2 -226 5 -327q2 -171 6 -322h-209q0 69 1.5 221t2.5 234q0 126 3 448t3 490zM164 1813l258 10q52 -96 143 -236q65 95 129 226l187 10l-57 -83l-46 -71l-52.5 -84l-49.5 -80h-307l-95 150q-31 47 -110 158z" />
    <glyph glyph-name="ncaron" unicode="&#x148;" 
d="M55 1401l258 10q52 -96 143 -236q65 95 129 226l187 10l-57 -83l-46 -71l-52.5 -84l-49.5 -80h-307l-95 150q-31 47 -110 158zM336 0h-264q0 29 2 125q4 108 4 354q0 250 -4 371q-2 106 -2 141h264v-153q21 24 51 61.5t41.5 50t33 29t43.5 21t56 4.5q86 0 146 -60
q59 -62 59 -158q0 -57 -2 -172t-2 -204q0 -218 2 -271q1 -25 2.5 -71.5t1.5 -67.5h-260q0 88 2 238q0 71 1 196t1 160q0 168 -117 168q-23 0 -45 -6q-7 -4 -14 -6q0 -17 -1.5 -59.5t-2.5 -67.5q-2 -51 -2 -267q0 -204 2 -247q1 -20 2.5 -56.5t1.5 -52.5z" />
    <glyph glyph-name="napostrophe" unicode="&#x149;" horiz-adv-x="985" 
d="M4 1280l192 164q92 -92 92 -195q-16 -76 -82.5 -159t-156.5 -121q41 84 41 182q-15 70 -86 129zM492 0h-264q0 29 2 125q4 108 4 354q0 250 -4 371q-2 106 -2 141h264v-153q21 24 51 61.5t41.5 50t33 29t43.5 21t56 4.5q86 0 146 -60q59 -62 59 -158q0 -57 -2 -172
t-2 -204q0 -218 2 -271q1 -25 2.5 -71.5t1.5 -67.5h-260q0 88 2 238q0 71 1 196t1 160q0 168 -117 168q-23 0 -45 -6q-7 -4 -14 -6q0 -17 -1.5 -59.5t-2.5 -67.5q-2 -51 -2 -267q0 -204 2 -247q1 -20 2.5 -56.5t1.5 -52.5z" />
    <glyph glyph-name="Eng" unicode="&#x14a;" horiz-adv-x="921" 
d="M369 0h-287q0 63 2 211q4 167 4 444q0 340 -4 537q-2 170 -2 242h285q-2 -26 -2 -41v-82l41 43l67 67q3 3 14.5 8t37 10t55.5 5q78 0 130.5 -26t80 -76t38.5 -109t11 -139q0 -12 -2 -213.5t-2 -327.5v-352q0 -56 2 -142q0 -233 -23 -256q-196 -180 -293 -252
q-25 4 -28 27q42 63 51.5 136.5t9.5 240.5v1075q0 71 -34.5 111.5t-92.5 40.5q-38 0 -66 -11v-432q0 -209 3 -374q1 -69 2.5 -191t1.5 -174z" />
    <glyph glyph-name="eng" unicode="&#x14b;" horiz-adv-x="827" 
d="M336 0h-264q0 29 2 125q4 108 4 354q0 250 -4 371q-2 106 -2 141h264v-153q21 24 51 61.5t41.5 50t33 29t43.5 21t56 4.5q86 0 146 -60q59 -62 59 -158v-786q0 -191 -23 -211q-201 -185 -272 -238q-24 4 -29 27q44 66 57 144.5t13 232.5v639q0 168 -117 168q-23 0 -45 -6
q-7 -4 -14 -6q0 -17 -1.5 -59.5t-2.5 -67.5q-2 -51 -2 -267q0 -204 2 -247q1 -20 2.5 -56.5t1.5 -52.5z" />
    <glyph glyph-name="Omacron" unicode="&#x14c;" horiz-adv-x="993" 
d="M61 584q0 176 33 417q13 92 35 197q34 30 53 45q82 67 119 94q62 46 109 74q26 13 45 27q31 6 71 6q160 0 262 -115q144 -153 144 -477q0 -245 -37 -453q-17 -98 -37 -166q-46 -58 -146 -141q-101 -84 -155 -110q-25 -5 -70 -7q-95 0 -169.5 33.5t-122 89.5t-78.5 135.5
t-43.5 165.5t-12.5 185zM141 1511l68 193q54 -2 94 -2q40 -2 242 -2q188 0 225 2q36 0 88 2l-68 -193q-22 0 -92 2q-25 0 -106.5 1t-136.5 1q-51 0 -127 -1t-99 -1q-66 -2 -88 -2zM342 662q0 -214 63 -315q62 -101 160 -101q31 0 47 6q9 49 19 129q20 144 20 315
q0 68 -3.5 122t-13 112.5t-28.5 101t-48 78.5t-73 54t-102 18q-12 -57 -21 -131q-20 -160 -20 -389z" />
    <glyph glyph-name="omacron" unicode="&#x14d;" horiz-adv-x="815" 
d="M51 426q-2 170 23 343l8 52q1 0 13.5 10.5t49.5 37.5t86 59q32 21 71.5 42t43.5 23q20 7 33 15q2 0 12 2q3 0 14.5 1t18.5 1q220 0 301 -160q34 -64 41 -154q8 -98 8 -188q0 -69 -5 -143t-10.5 -116.5t-8.5 -51.5q-4 -9 -58.5 -54.5t-89.5 -68.5q-48 -34 -83 -56
q-45 -29 -75 -40q-22 -5 -53 -5q-230 0 -301 168q-39 86 -39 283zM59 1099l68 193q54 -2 94 -2q40 -2 242 -2q188 0 225 2q36 0 88 2l-68 -193q-22 0 -92 2q-25 0 -106.5 1t-136.5 1q-51 0 -127 -1t-99 -1q-66 -2 -88 -2zM305 514q2 -141 17 -195q31 -109 131 -108
q27 0 45 8q9 26 15.5 100t6.5 154q0 295 -153 295q-29 0 -43 -6q-8 -40 -11 -68q-8 -70 -8 -180z" />
    <glyph glyph-name="Obreve" unicode="&#x14e;" horiz-adv-x="993" 
d="M61 584q0 176 33 417q13 92 35 197q34 30 53 45q82 67 119 94q62 46 109 74q26 13 45 27q31 6 71 6q160 0 262 -115q144 -153 144 -477q0 -245 -37 -453q-17 -98 -37 -166q-46 -58 -146 -141q-101 -84 -155 -110q-25 -5 -70 -7q-95 0 -169.5 33.5t-122 89.5t-78.5 135.5
t-43.5 165.5t-12.5 185zM204 1702l187 121q6 -38 28 -66q46 -63 140 -63q79 0 119 36q40 34 63 80q12 0 18 -8q-42 -144 -100 -246q-16 -15 -47 -26q-63 -25 -158 -25q-107 0 -168.5 56t-81.5 141zM342 662q0 -214 63 -315q62 -101 160 -101q31 0 47 6q9 49 19 129
q20 144 20 315q0 68 -3.5 122t-13 112.5t-28.5 101t-48 78.5t-73 54t-102 18q-12 -57 -21 -131q-20 -160 -20 -389z" />
    <glyph glyph-name="obreve" unicode="&#x14f;" horiz-adv-x="815" 
d="M51 426q-2 170 23 343l8 52q1 0 13.5 10.5t49.5 37.5t86 59q32 21 71.5 42t43.5 23q20 7 33 15q2 0 12 2q3 0 14.5 1t18.5 1q220 0 301 -160q34 -64 41 -154q8 -98 8 -188q0 -69 -5 -143t-10.5 -116.5t-8.5 -51.5q-4 -9 -58.5 -54.5t-89.5 -68.5q-48 -34 -83 -56
q-45 -29 -75 -40q-22 -5 -53 -5q-230 0 -301 168q-39 86 -39 283zM122 1290l187 121q6 -38 28 -66q46 -63 140 -63q79 0 119 36q40 34 63 80q12 0 18 -8q-42 -144 -100 -246q-16 -15 -47 -26q-63 -25 -158 -25q-107 0 -168.5 56t-81.5 141zM305 514q2 -141 17 -195
q31 -109 131 -108q27 0 45 8q9 26 15.5 100t6.5 154q0 295 -153 295q-29 0 -43 -6q-8 -40 -11 -68q-8 -70 -8 -180z" />
    <glyph glyph-name="Ohungarumlaut" unicode="&#x150;" horiz-adv-x="993" 
d="M61 584q0 176 33 417q13 92 35 197q34 30 53 45q82 67 119 94q62 46 109 74q26 13 45 27q31 6 71 6q160 0 262 -115q144 -153 144 -477q0 -245 -37 -453q-17 -98 -37 -166q-46 -58 -146 -141q-101 -84 -155 -110q-25 -5 -70 -7q-95 0 -169.5 33.5t-122 89.5t-78.5 135.5
t-43.5 165.5t-12.5 185zM271 1497l-58 231q24 22 41 39l105 105l108 112q15 17 43 45l58 -229q-18 -16 -35 -33l-98 -98q-59 -55 -115 -119zM342 662q0 -214 63 -315q62 -101 160 -101q31 0 47 6q9 49 19 129q20 144 20 315q0 68 -3.5 122t-13 112.5t-28.5 101t-48 78.5
t-73 54t-102 18q-12 -57 -21 -131q-20 -160 -20 -389zM607 1497l-58 231q24 22 41 39l105 105l108 112q15 17 43 45l58 -229q-18 -16 -35 -33l-99 -98q-53 -50 -114 -119z" />
    <glyph glyph-name="ohungarumlaut" unicode="&#x151;" horiz-adv-x="815" 
d="M51 426q-2 170 23 343l8 52q1 0 13.5 10.5t49.5 37.5t86 59q32 21 71.5 42t43.5 23q20 7 33 15q2 0 12 2q3 0 14.5 1t18.5 1q220 0 301 -160q34 -64 41 -154q8 -98 8 -188q0 -69 -5 -143t-10.5 -116.5t-8.5 -51.5q-4 -9 -58.5 -54.5t-89.5 -68.5q-48 -34 -83 -56
q-45 -29 -75 -40q-22 -5 -53 -5q-230 0 -301 168q-39 86 -39 283zM133 1053l-58 231q24 22 41 39l105 105l108 112q15 17 43 45l58 -229q-18 -16 -35 -33l-98 -98q-59 -55 -115 -119zM305 514q2 -141 17 -195q31 -109 131 -108q27 0 45 8q9 26 15.5 100t6.5 154
q0 295 -153 295q-29 0 -43 -6q-8 -40 -11 -68q-8 -70 -8 -180zM469 1053l-58 231q24 22 41 39l105 105l108 112q15 17 43 45l58 -229q-18 -16 -35 -33l-99 -98q-53 -50 -114 -119z" />
    <glyph glyph-name="OE" unicode="&#x152;" horiz-adv-x="1298" 
d="M61 584q0 176 33 417q13 98 35 197q34 30 53 45q82 67 119 94q62 46 109 74q26 13 45 27q31 6 71 6q64 0 129 -25v15h609l-134 -220q-28 0 -59 3q-17 0 -63 1t-76 1v-379q169 0 207 2q34 0 94 2l-113 -213q-15 0 -55 2q-16 0 -60.5 1t-72.5 1v-420q192 0 235 2
q37 0 109 2l-115 -219h-506v47q-25 -20 -98 -65q-25 -5 -70 -7q-95 0 -169.5 33.5t-122 89.5t-78.5 135.5t-43.5 165.5t-12.5 185zM342 662q0 -214 63 -315q62 -101 160 -101q31 0 47 6q9 49 19 129q20 144 20 315q0 68 -3.5 122t-13 112.5t-28.5 101t-48 78.5t-73 54
t-102 18q-12 -57 -21 -131q-20 -160 -20 -389z" />
    <glyph glyph-name="oe" unicode="&#x153;" horiz-adv-x="1128" 
d="M51 426q-2 170 23 343l8 52q1 0 13.5 10.5t49.5 37.5t86 59q32 21 71.5 42t43.5 23q20 7 33 15q2 0 12 2q3 0 14.5 1t18.5 1q54 0 125 -15q68 -16 127 -75q99 71 158 90q91 0 137 -28q48 -30 76 -69q29 -41 35 -99q5 -65 5 -103q0 -67 -6 -95q-111 -85 -186 -151
q-17 0 -45 1t-37 1h-37q-2 -13 -2 -59q0 -104 32 -139t85 -35q98 0 160 88q16 0 22 -13q-9 -31 -47.5 -140.5t-52.5 -133.5q-12 -16 -68 -39q-58 -23 -129 -23q-121 0 -194 86q-82 -57 -138 -81q-22 -5 -53 -5q-230 0 -301 168q-39 86 -39 283zM305 514q2 -141 17 -195
q31 -109 131 -108q27 0 45 8q9 26 15.5 100t6.5 154q0 299 -153 299q-29 0 -43 -6q-7 -39 -11 -70q-8 -75 -8 -182zM774 723v-115q63 0 111 6q2 7 2 35q0 50 -22 88q-23 39 -66 39q-4 0 -10.5 -1t-8.5 -1h-4q-2 -34 -2 -51z" />
    <glyph glyph-name="Racute" unicode="&#x154;" horiz-adv-x="890" 
d="M375 0h-291q0 63 2 219q4 177 4 504q0 302 -4 483q-2 158 -2 228q12 0 44.5 1.5t51.5 2.5q120 6 236 6q180 0 268 -58q50 -32 94 -101q43 -67 43 -165q0 -123 -60 -218t-143 -140q12 -51 33 -111q30 -99 90 -266q4 -12 40.5 -109.5t54.5 -140.5l49 -125l-312 -20
l-202 604v-270q0 -179 2 -222q0 -36 2 -102zM211 1505l66 229q28 5 55 13q48 11 143 36q105 28 150 43q29 7 59 19l-65 -227q-24 -6 -45 -13q-129 -33 -135 -35l-158 -45zM371 1214v-452l24 6q6 2 27.5 7t34.5 9q24 6 56 71.5t32 148.5q0 213 -148 213q-15 0 -26 -3z" />
    <glyph glyph-name="racute" unicode="&#x155;" horiz-adv-x="604" 
d="M338 0h-266q0 40 2 150q0 41 1 159.5t1 192.5q0 58 -1 170t-1 157q-2 110 -2 162h264l-4 -186l26 47q23 44 60 104q25 48 104 48q26 0 45 -9q7 -4 17 -6l-56 -334q-40 35 -102 35q-58 0 -94 -31q0 -339 2 -426q1 -39 2.5 -117t1.5 -116zM121 1104l66 229q28 5 55 13
q48 11 143 36q105 28 150 43q29 7 59 19l-65 -227q-24 -6 -45 -13q-129 -33 -135 -35l-158 -45z" />
    <glyph glyph-name="uni0156" unicode="&#x156;" horiz-adv-x="890" 
d="M375 0h-291q0 63 2 219q4 177 4 504q0 302 -4 483q-2 158 -2 228q12 0 44.5 1.5t51.5 2.5q120 6 236 6q180 0 268 -58q50 -32 94 -101q43 -67 43 -165q0 -123 -60 -218t-143 -140q12 -51 33 -111q30 -99 90 -266q4 -12 40.5 -109.5t54.5 -140.5l49 -125l-312 -20
l-202 604v-270q0 -179 2 -222q0 -36 2 -102zM281 -236l192 164q92 -92 92 -195q-16 -76 -82.5 -159t-156.5 -121q41 84 41 182q-15 70 -86 129zM371 1214v-452l24 6q6 2 27.5 7t34.5 9q24 6 56 71.5t32 148.5q0 213 -148 213q-15 0 -26 -3z" />
    <glyph glyph-name="uni0157" unicode="&#x157;" horiz-adv-x="593" 
d="M62 -236l192 164q92 -92 92 -195q-16 -76 -82.5 -159t-156.5 -121q41 84 41 182q-15 70 -86 129zM338 0h-266q0 40 2 150q0 41 1 159.5t1 192.5q0 58 -1 170t-1 157q-2 110 -2 162h264l-4 -186l26 47q23 44 60 104q25 48 104 48q26 0 45 -9q7 -4 17 -6l-56 -334
q-40 35 -102 35q-58 0 -94 -31q0 -339 2 -426q1 -39 2.5 -117t1.5 -116z" />
    <glyph glyph-name="Rcaron" unicode="&#x158;" horiz-adv-x="890" 
d="M41 1813l258 10q52 -96 143 -236q65 95 129 226l187 10l-57 -83l-46 -71l-52.5 -84l-49.5 -80h-307l-95 150q-31 47 -110 158zM375 0h-291q0 63 2 219q4 177 4 504q0 302 -4 483q-2 158 -2 228q12 0 44.5 1.5t51.5 2.5q120 6 236 6q180 0 268 -58q50 -32 94 -101
q43 -67 43 -165q0 -123 -60 -218t-143 -140q12 -51 33 -111q30 -99 90 -266q4 -12 40.5 -109.5t54.5 -140.5l49 -125l-312 -20l-202 604v-270q0 -179 2 -222q0 -36 2 -102zM371 1214v-452l24 6q6 2 27.5 7t34.5 9q24 6 56 71.5t32 148.5q0 213 -148 213q-15 0 -26 -3z" />
    <glyph glyph-name="rcaron" unicode="&#x159;" horiz-adv-x="593" 
d="M-29 1401l258 10q52 -96 143 -236q65 95 129 226l187 10l-57 -83l-46 -71l-52.5 -84l-49.5 -80h-307l-95 150q-31 47 -110 158zM338 0h-266q0 40 2 150q0 41 1 159.5t1 192.5q0 58 -1 170t-1 157q-2 110 -2 162h264l-4 -186l26 47q23 44 60 104q25 48 104 48q26 0 45 -9
q7 -4 17 -6l-56 -334q-40 35 -102 35q-58 0 -94 -31q0 -339 2 -426q1 -39 2.5 -117t1.5 -116z" />
    <glyph glyph-name="Sacute" unicode="&#x15a;" horiz-adv-x="731" 
d="M57 274l267 107q5 -41 12 -74q21 -74 70 -80q24 71 24 154q0 93 -39 139t-135 84q-62 27 -115 76q-55 49 -73 145q-11 86 -11 117q0 163 68 315l256 187q36 0 70 -5.5t73.5 -23.5t69.5 -47t51.5 -80.5t24.5 -118.5l-264 -131q-5 42 -13 72q-20 71 -69 78
q-11 -86 -13 -174q0 -59 18 -87t58 -48q131 -67 145 -76q80 -46 116 -120t36 -181q0 -109 -29 -219q-13 -54 -28 -97l-232 -206q-22 -7 -59 -7q-42 0 -76 5t-73 23.5t-65.5 49.5t-45 88t-19.5 135zM125 1505l66 229q28 5 55 13q48 11 143 36q105 28 150 43q29 7 59 19
l-65 -227q-24 -6 -45 -13q-129 -33 -135 -35l-158 -45z" />
    <glyph glyph-name="sacute" unicode="&#x15b;" horiz-adv-x="647" 
d="M41 604q0 99 33 178q44 52 133.5 126t148.5 96q65 0 114 -20t74.5 -52t37.5 -63.5t14 -63.5l-211 -141q-12 33 -27 57q-33 55 -75 61q-7 -27 -9 -53q0 -47 28 -75.5t85 -32.5q117 -10 168 -68.5t51 -181.5q0 -95 -18 -160q-37 -61 -129.5 -138.5t-147.5 -88.5
q-9 -2 -37 -2q-53 0 -94.5 17.5t-67.5 48t-41 62.5t-24 70l217 142q5 -36 19 -60q24 -57 88 -57q2 14 2 55q0 64 -22 86q-23 22 -87 27q-104 4 -163.5 62t-59.5 169zM74 1104l66 229q28 5 55 13q48 11 143 36q105 28 150 43q29 7 59 19l-65 -227q-24 -6 -45 -13
q-129 -33 -135 -35l-158 -45z" />
    <glyph glyph-name="Scircumflex" unicode="&#x15c;" horiz-adv-x="731" 
d="M209 1515l-186 -10q93 133 205 318h307l95 -150q49 -74 110 -158l-258 -10q-63 117 -144 236q-59 -87 -129 -226zM57 274l267 107q5 -41 12 -74q21 -74 70 -80q24 71 24 154q0 93 -39 139t-135 84q-62 27 -115 76q-55 49 -73 145q-11 86 -11 117q0 163 68 315l256 187
q36 0 70 -5.5t73.5 -23.5t69.5 -47t51.5 -80.5t24.5 -118.5l-264 -131q-5 42 -13 72q-20 71 -69 78q-11 -86 -13 -174q0 -59 18 -87t58 -48q131 -67 145 -76q80 -46 116 -120t36 -181q0 -109 -29 -219q-13 -54 -28 -97l-232 -206q-22 -7 -59 -7q-42 0 -76 5t-73 23.5
t-65.5 49.5t-45 88t-19.5 135z" />
    <glyph glyph-name="scircumflex" unicode="&#x15d;" horiz-adv-x="647" 
d="M153 1103l-186 -10q93 133 205 318h307l95 -150q49 -74 110 -158l-258 -10q-63 117 -144 236q-59 -87 -129 -226zM41 604q0 99 33 178q44 52 133.5 126t148.5 96q65 0 114 -20t74.5 -52t37.5 -63.5t14 -63.5l-211 -141q-12 33 -27 57q-33 55 -75 61q-7 -27 -9 -53
q0 -47 28 -75.5t85 -32.5q117 -10 168 -68.5t51 -181.5q0 -95 -18 -160q-37 -61 -129.5 -138.5t-147.5 -88.5q-9 -2 -37 -2q-53 0 -94.5 17.5t-67.5 48t-41 62.5t-24 70l217 142q5 -36 19 -60q24 -57 88 -57q2 14 2 55q0 64 -22 86q-23 22 -87 27q-104 4 -163.5 62
t-59.5 169z" />
    <glyph glyph-name="Scedilla" unicode="&#x15e;" horiz-adv-x="733" 
d="M57 274l267 107q5 -41 12 -74q21 -74 70 -80q24 71 24 154q0 93 -39 139t-135 84q-62 27 -115 76q-55 49 -73 145q-11 86 -11 117q0 163 68 315l256 187q36 0 70 -5.5t73.5 -23.5t69.5 -47t51.5 -80.5t24.5 -118.5l-264 -131q-5 42 -13 72q-20 71 -69 78
q-11 -86 -13 -174q0 -59 18 -87t58 -48q131 -67 145 -76q80 -46 116 -120t36 -181q0 -109 -29 -219q-13 -54 -28 -97l-232 -206q-19 -46 -28 -72q51 -4 82.5 -41t31.5 -100q0 -41 -18 -86l-65 -59q-12 -11 -58 -50q-30 -14 -66 -14q-58 0 -77 24l12 109q40 -31 94 -31
q36 0 62 14q2 10 2 25q0 39 -26.5 66.5t-74.5 27.5q-30 0 -69 -16q-10 4 -11 14q30 58 86 186q-36 5 -64 15t-56.5 31t-48 52.5t-32.5 82t-14 116.5z" />
    <glyph glyph-name="scedilla" unicode="&#x15f;" horiz-adv-x="647" 
d="M41 604q0 99 33 178q44 52 133.5 126t148.5 96q65 0 114 -20t74.5 -52t37.5 -63.5t14 -63.5l-211 -141q-12 33 -27 57q-33 55 -75 61q-7 -27 -9 -53q0 -47 28 -75.5t85 -32.5q117 -10 168 -68.5t51 -181.5q0 -95 -18 -160q-35 -57 -116.5 -127t-141.5 -94
q-5 -9 -10.5 -23l-12 -32t-10.5 -27q51 -4 83 -41t32 -100q0 -42 -19 -86l-64 -59q-27 -25 -59 -50q-30 -14 -65 -14q-59 0 -78 24l12 109q40 -31 94 -31q36 0 62 14q2 10 2 25q0 40 -26 67t-74 27q-31 0 -70 -16q-10 4 -10 14q18 35 49 104.5t43 94.5q-74 19 -113 76
q-37 54 -49 114l217 142q5 -36 19 -60q24 -57 88 -57q2 14 2 55q0 64 -22 86q-23 22 -87 27q-104 4 -163.5 62t-59.5 169z" />
    <glyph glyph-name="Scaron" unicode="&#x160;" horiz-adv-x="731" 
d="M14 1813l258 10q52 -96 143 -236q65 95 129 226l187 10l-57 -83l-46 -71l-52.5 -84l-49.5 -80h-307l-95 150q-31 47 -110 158zM57 274l267 107q5 -41 12 -74q21 -74 70 -80q24 71 24 154q0 93 -39 139t-135 84q-62 27 -115 76q-55 49 -73 145q-11 86 -11 117
q0 163 68 315l256 187q36 0 70 -5.5t73.5 -23.5t69.5 -47t51.5 -80.5t24.5 -118.5l-264 -131q-5 42 -13 72q-20 71 -69 78q-11 -86 -13 -174q0 -59 18 -87t58 -48q131 -67 145 -76q80 -46 116 -120t36 -181q0 -109 -29 -219q-13 -54 -28 -97l-232 -206q-22 -7 -59 -7
q-42 0 -76 5t-73 23.5t-65.5 49.5t-45 88t-19.5 135z" />
    <glyph glyph-name="scaron" unicode="&#x161;" horiz-adv-x="647" 
d="M-33 1401l258 10q52 -96 143 -236q65 95 129 226l187 10l-57 -83l-46 -71l-52.5 -84l-49.5 -80h-307l-95 150q-31 47 -110 158zM41 604q0 99 33 178q44 52 133.5 126t148.5 96q65 0 114 -20t74.5 -52t37.5 -63.5t14 -63.5l-211 -141q-12 33 -27 57q-33 55 -75 61
q-7 -27 -9 -53q0 -47 28 -75.5t85 -32.5q117 -10 168 -68.5t51 -181.5q0 -95 -18 -160q-37 -61 -129.5 -138.5t-147.5 -88.5q-9 -2 -37 -2q-53 0 -94.5 17.5t-67.5 48t-41 62.5t-24 70l217 142q5 -36 19 -60q24 -57 88 -57q2 14 2 55q0 64 -22 86q-23 22 -87 27
q-104 4 -163.5 62t-59.5 169z" />
    <glyph glyph-name="uni0162" unicode="&#x162;" horiz-adv-x="823" 
d="M-10 1212l102 222h742l-123 -220q-25 0 -52 3q-14 0 -51 1t-59 1q0 -21 -1.5 -77t-2.5 -89q-2 -69 -2 -398q0 -359 2 -442q1 -39 2.5 -110t1.5 -103h-289q0 65 2 213q4 167 4 442q0 259 -4 398q-2 120 -2 166q-119 0 -184 -5q-60 -2 -86 -2zM262 -236l192 164
q92 -92 92 -195q-16 -76 -82.5 -159t-156.5 -121q41 84 41 182q-15 70 -86 129z" />
    <glyph glyph-name="uni0163" unicode="&#x163;" horiz-adv-x="520" 
d="M16 797h-36l118 155q0 29 -1 77.5t-1 66.5v61l250 39q0 -13 -2 -40.5t-2 -41.5q-2 -31 -2 -162h131q22 0 66 2l-140 -155h-57q-2 -158 -2 -219v-279q0 -82 63 -82q39 0 62 21q12 -4 16 -17q-36 -59 -75 -112q-80 -109 -82 -111q-16 -16 -70 -16q-67 0 -113 40
q-47 39 -47 119q0 4 1 135t1 222q0 36 1.5 137t2.5 162q-16 0 -44 -1t-38 -1zM113 -236l192 164q92 -92 92 -195q-16 -76 -82.5 -159t-156.5 -121q41 84 41 182q-15 70 -86 129z" />
    <glyph glyph-name="Tcaron" unicode="&#x164;" horiz-adv-x="823" 
d="M-10 1212l102 222h742l-123 -220q-25 0 -52 3q-14 0 -51 1t-59 1q0 -21 -1.5 -77t-2.5 -89q-2 -69 -2 -398q0 -359 2 -442q1 -39 2.5 -110t1.5 -103h-289q0 65 2 213q4 167 4 442q0 259 -4 398q-2 120 -2 166q-119 0 -184 -5q-60 -2 -86 -2zM55 1813l258 10
q52 -96 143 -236q65 95 129 226l187 10l-57 -83l-46 -71l-52.5 -84l-49.5 -80h-307l-95 150q-31 47 -110 158z" />
    <glyph glyph-name="tcaron" unicode="&#x165;" horiz-adv-x="802" 
d="M16 797h-36l118 155q0 29 -1 77.5t-1 66.5v61l250 39q0 -13 -2 -40.5t-2 -41.5q-2 -31 -2 -162h131q22 0 66 2l-140 -155h-57q-2 -158 -2 -219v-279q0 -82 63 -82q39 0 62 21q12 -4 16 -17q-36 -59 -75 -112q-80 -109 -82 -111q-16 -16 -70 -16q-67 0 -113 40
q-47 39 -47 119q0 4 1 135t1 222q0 36 1.5 137t2.5 162q-16 0 -44 -1t-38 -1zM506 1280l192 164q92 -92 92 -195q-16 -76 -82.5 -159t-156.5 -121q41 84 41 182q-15 70 -86 129z" />
    <glyph glyph-name="Tbar" unicode="&#x166;" horiz-adv-x="823" 
d="M-10 1212l102 222h742l-123 -220q-25 0 -52 3q-14 0 -51 1t-59 1q0 -22 -2 -84q-4 -73 -4 -213q21 0 58 1t50 1q17 0 49 2l-67 -213h-29q-7 0 -28.5 1t-32.5 1v-60q0 -359 2 -442q1 -39 2.5 -110t1.5 -103h-289q0 65 2 213q4 167 4 442v58h-166l68 213q18 -2 31 -2h67
q-1 43 -1.5 114.5t-2.5 98.5q-2 60 -2 82q-119 0 -184 -5q-60 -2 -86 -2z" />
    <glyph glyph-name="tbar" unicode="&#x167;" horiz-adv-x="520" 
d="M16 537h-36l120 155v107q-16 0 -44 -1t-38 -1h-36l118 155q0 29 -1 77.5t-1 66.5v61l250 39q0 -13 -2 -40.5t-2 -41.5q-2 -31 -2 -162h131q22 0 66 2l-140 -155h-57q-2 -22 -2 -33v-74h131q22 0 66 2l-140 -155h-57v-238q0 -82 63 -82q39 0 62 21q12 -4 16 -17
q-36 -59 -75 -112q-80 -109 -82 -111q-16 -16 -70 -16q-67 0 -113 40q-47 39 -47 119q0 18 1 69t2.5 148.5t2.5 178.5q-16 0 -45 -1t-39 -1z" />
    <glyph glyph-name="Utilde" unicode="&#x168;" horiz-adv-x="921" 
d="M82 334q0 5 2 165q2 158 2 279q0 76 -1 226.5t-1 212.5q-2 150 -2 217h285q-2 -230 -2 -351q-2 -206 -2 -335q-1 -121 -1 -351q0 -71 36.5 -111t95.5 -40q42 0 65 12q0 291 -1 432q-1 207 -3 377q-2 260 -2 367h287q0 -31 -1.5 -101.5t-2.5 -109.5q-2 -83 -2 -445
q0 -438 2 -536q1 -45 2.5 -126t1.5 -116h-285v37q0 9 1 36t1 44q-22 -25 -41 -43q-7 -8 -67 -68q-3 -3 -15 -8t-37 -9.5t-55 -4.5q-63 0 -109.5 18t-75 47.5t-45.5 75.5t-23.5 95.5t-6.5 113.5zM133 1565l68 192q19 54 67 56q19 0 43 -7l379 -100q30 -8 49 -8q53 0 84 55
l-67 -192q-19 -54 -68 -56q-19 0 -43 7l-379 100q-26 8 -49 8q-53 0 -84 -55z" />
    <glyph glyph-name="utilde" unicode="&#x169;" horiz-adv-x="831" 
d="M72 297q0 90 1 148t1 169q0 53 -1 141.5t-1 121.5v114h260q-2 -134 -2 -207q-2 -82 -2 -422q0 -86 28.5 -121.5t83.5 -35.5q28 0 43 4q3 1 13 4v279q0 90 -1 147t-1 164q-2 122 -2 188h268q-2 -106 -2 -162q-2 -64 -2 -333q0 -287 2 -346q0 -60 2 -150h-266v37q0 8 1 39
t1 53l-18 -21.5t-17 -19.5q-31 -38 -78 -84q-24 -20 -98 -20q-52 0 -90.5 16.5t-61.5 43.5t-37 68.5t-19 85t-5 99.5zM90 1153l68 192q19 54 67 56q19 0 43 -7l379 -100q30 -8 49 -8q53 0 84 55l-67 -192q-19 -54 -68 -56q-19 0 -43 7l-379 100q-26 8 -49 8q-53 0 -84 -55z
" />
    <glyph glyph-name="Umacron" unicode="&#x16a;" horiz-adv-x="921" 
d="M82 334q0 5 2 165q2 158 2 279q0 76 -1 226.5t-1 212.5q-2 150 -2 217h285q-2 -230 -2 -351q-2 -206 -2 -335q-1 -121 -1 -351q0 -71 36.5 -111t95.5 -40q42 0 65 12q0 291 -1 432q-1 207 -3 377q-2 260 -2 367h287q0 -31 -1.5 -101.5t-2.5 -109.5q-2 -83 -2 -445
q0 -438 2 -536q1 -45 2.5 -126t1.5 -116h-285v37q0 9 1 36t1 44q-22 -25 -41 -43q-7 -8 -67 -68q-3 -3 -15 -8t-37 -9.5t-55 -4.5q-63 0 -109.5 18t-75 47.5t-45.5 75.5t-23.5 95.5t-6.5 113.5zM125 1511l68 193q54 -2 94 -2q40 -2 242 -2q188 0 225 2q36 0 88 2l-68 -193
q-22 0 -92 2q-25 0 -106.5 1t-136.5 1q-51 0 -127 -1t-99 -1q-66 -2 -88 -2z" />
    <glyph glyph-name="umacron" unicode="&#x16b;" horiz-adv-x="831" 
d="M72 297q0 90 1 148t1 169q0 53 -1 141.5t-1 121.5v114h260q-2 -134 -2 -207q-2 -82 -2 -422q0 -86 28.5 -121.5t83.5 -35.5q28 0 43 4q3 1 13 4v279q0 90 -1 147t-1 164q-2 122 -2 188h268q-2 -106 -2 -162q-2 -64 -2 -333q0 -287 2 -346q0 -60 2 -150h-266v37q0 8 1 39
t1 53l-18 -21.5t-17 -19.5q-31 -38 -78 -84q-24 -20 -98 -20q-52 0 -90.5 16.5t-61.5 43.5t-37 68.5t-19 85t-5 99.5zM82 1089l68 193q54 -2 94 -2q40 -2 242 -2q188 0 225 2q36 0 88 2l-68 -193q-22 0 -92 2q-25 0 -106.5 1t-136.5 1q-51 0 -127 -1t-99 -1q-66 -2 -88 -2z
" />
    <glyph glyph-name="Ubreve" unicode="&#x16c;" horiz-adv-x="921" 
d="M82 334q0 5 2 165q2 158 2 279q0 76 -1 226.5t-1 212.5q-2 150 -2 217h285q-2 -230 -2 -351q-2 -206 -2 -335q-1 -121 -1 -351q0 -71 36.5 -111t95.5 -40q42 0 65 12q0 291 -1 432q-1 207 -3 377q-2 260 -2 367h287q0 -31 -1.5 -101.5t-2.5 -109.5q-2 -83 -2 -445
q0 -438 2 -536q1 -45 2.5 -126t1.5 -116h-285v37q0 9 1 36t1 44q-22 -25 -41 -43q-7 -8 -67 -68q-3 -3 -15 -8t-37 -9.5t-55 -4.5q-63 0 -109.5 18t-75 47.5t-45.5 75.5t-23.5 95.5t-6.5 113.5zM213 1702l187 121q6 -38 28 -66q46 -63 140 -63q78 0 119 36q40 34 63 80
q12 0 18 -8q-42 -144 -100 -246q-16 -15 -47 -26q-63 -25 -158 -25q-107 0 -168.5 56t-81.5 141z" />
    <glyph glyph-name="ubreve" unicode="&#x16d;" horiz-adv-x="823" 
d="M72 297q0 90 1 148t1 169q0 53 -1 141.5t-1 121.5v114h260q-2 -134 -2 -207q-2 -82 -2 -422q0 -86 28.5 -121.5t83.5 -35.5q28 0 43 4q3 1 13 4v279q0 90 -1 147t-1 164q-2 122 -2 188h268q-2 -106 -2 -162q-2 -64 -2 -333q0 -287 2 -346q0 -60 2 -150h-266v37q0 8 1 39
t1 53l-18 -21.5t-17 -19.5q-31 -38 -78 -84q-24 -20 -98 -20q-52 0 -90.5 16.5t-61.5 43.5t-37 68.5t-19 85t-5 99.5zM145 1303l187 121q6 -38 28 -66q46 -63 140 -63q78 0 119 36q40 34 63 80q12 0 18 -8q-42 -144 -100 -246q-16 -15 -47 -26q-63 -25 -158 -25
q-107 0 -168.5 56t-81.5 141z" />
    <glyph glyph-name="Uring" unicode="&#x16e;" horiz-adv-x="921" 
d="M82 334q0 5 2 165q2 158 2 279q0 76 -1 226.5t-1 212.5q-2 150 -2 217h285q-2 -230 -2 -351q-2 -206 -2 -335q-1 -121 -1 -351q0 -71 36.5 -111t95.5 -40q42 0 65 12q0 291 -1 432q-1 207 -3 377q-2 260 -2 367h287q0 -31 -1.5 -101.5t-2.5 -109.5q-2 -83 -2 -445
q0 -438 2 -536q1 -45 2.5 -126t1.5 -116h-285v37q0 9 1 36t1 44q-22 -25 -41 -43q-7 -8 -67 -68q-3 -3 -15 -8t-37 -9.5t-55 -4.5q-63 0 -109.5 18t-75 47.5t-45.5 75.5t-23.5 95.5t-6.5 113.5zM313 1661q0 112 115 170q20 12 45 12q51 0 88 -31q57 -51 57 -123
q0 -92 -96 -164q-32 -20 -63 -20q-58 0 -102 44t-44 112zM393 1695q0 -51 25.5 -81.5t68.5 -30.5q33 0 37 6q19 31 19 70q0 49 -31 80.5t-74 31.5q-18 0 -24 -6q-21 -21 -21 -70z" />
    <glyph glyph-name="uring" unicode="&#x16f;" horiz-adv-x="831" 
d="M72 297q0 90 1 148t1 169q0 53 -1 141.5t-1 121.5v114h260q-2 -134 -2 -207q-2 -82 -2 -422q0 -86 28.5 -121.5t83.5 -35.5q28 0 43 4q3 1 13 4v279q0 90 -1 147t-1 164q-2 122 -2 188h268q-2 -106 -2 -162q-2 -64 -2 -333q0 -287 2 -346q0 -60 2 -150h-266v37q0 8 1 39
t1 53l-18 -21.5t-17 -19.5q-31 -38 -78 -84q-24 -20 -98 -20q-52 0 -90.5 16.5t-61.5 43.5t-37 68.5t-19 85t-5 99.5zM266 1252q0 112 115 170q19 12 45 12q51 0 88 -31q57 -51 57 -123q0 -92 -96 -164q-32 -20 -63 -20q-58 0 -102 44t-44 112zM346 1286q0 -51 25.5 -81.5
t68.5 -30.5q32 0 37 6q19 31 19 70q0 49 -31 80.5t-74 31.5q-18 0 -24 -6q-21 -21 -21 -70z" />
    <glyph glyph-name="Uhungarumlaut" unicode="&#x170;" horiz-adv-x="921" 
d="M82 334q0 5 2 165q2 158 2 279q0 76 -1 226.5t-1 212.5q-2 150 -2 217h285q-2 -230 -2 -351q-2 -206 -2 -335q-1 -121 -1 -351q0 -71 36.5 -111t95.5 -40q42 0 65 12q0 291 -1 432q-1 207 -3 377q-2 260 -2 367h287q0 -31 -1.5 -101.5t-2.5 -109.5q-2 -83 -2 -445
q0 -438 2 -536q1 -45 2.5 -126t1.5 -116h-285v37q0 9 1 36t1 44q-22 -25 -41 -43q-7 -8 -67 -68q-3 -3 -15 -8t-37 -9.5t-55 -4.5q-63 0 -109.5 18t-75 47.5t-45.5 75.5t-23.5 95.5t-6.5 113.5zM217 1497l-58 231q24 22 41 39l105 105l108 112q15 17 43 45l58 -229
q-18 -16 -35 -33l-98 -98q-59 -55 -115 -119zM553 1497l-58 231q24 22 41 39l105 105l108 112q15 17 43 45l58 -229q-18 -16 -35 -33l-99 -98q-53 -50 -114 -119z" />
    <glyph glyph-name="uhungarumlaut" unicode="&#x171;" horiz-adv-x="831" 
d="M72 297q0 90 1 148t1 169q0 53 -1 141.5t-1 121.5v114h260q-2 -134 -2 -207q-2 -82 -2 -422q0 -86 28.5 -121.5t83.5 -35.5q28 0 43 4q3 1 13 4v279q0 90 -1 147t-1 164q-2 122 -2 188h268q-2 -106 -2 -162q-2 -64 -2 -333q0 -287 2 -346q0 -60 2 -150h-266v37q0 8 1 39
t1 53l-18 -21.5t-17 -19.5q-31 -38 -78 -84q-24 -20 -98 -20q-52 0 -90.5 16.5t-61.5 43.5t-37 68.5t-19 85t-5 99.5zM185 1053l-58 231q24 22 41 39l105 105l108 112q15 17 43 45l58 -229q-18 -16 -35 -33l-98 -98q-59 -55 -115 -119zM521 1053l-58 231q24 22 41 39
l105 105l108 112q15 17 43 45l58 -229q-18 -16 -35 -33l-99 -98q-53 -50 -114 -119z" />
    <glyph glyph-name="Uogonek" unicode="&#x172;" horiz-adv-x="921" 
d="M82 334q0 5 2 165q2 158 2 279q0 76 -1 226.5t-1 212.5q-2 150 -2 217h285q-2 -230 -2 -351q-2 -206 -2 -335q-1 -121 -1 -351q0 -71 36.5 -111t95.5 -40q42 0 65 12q0 291 -1 432q-1 207 -3 377q-2 260 -2 367h287q0 -31 -1.5 -101.5t-2.5 -109.5q-2 -83 -2 -445
q0 -438 2 -536q1 -45 2.5 -126t1.5 -116h-135q-52 0 -99 -49.5t-47 -132.5q0 -67 37.5 -106.5t91.5 -39.5q8 0 14 0.5t12 1.5t10 2t10 3.5l8.5 3.5t10.5 5t11 5q12 -5 12 -17q-19 -20 -35 -41q-11 -11 -31 -34t-26 -29q-23 -14 -63 -14q-81 0 -134 57q-53 59 -53 156
q0 93 40 146q41 55 81 83v8t0.5 18.5t1 25.5t0.5 31.5v33.5q-22 -25 -41 -43q-7 -8 -67 -68q-3 -3 -15 -8t-37 -9.5t-55 -4.5q-63 0 -109.5 18t-75 47.5t-45.5 75.5t-23.5 95.5t-6.5 113.5z" />
    <glyph glyph-name="uogonek" unicode="&#x173;" horiz-adv-x="831" 
d="M72 297q0 90 1 148t1 169q0 53 -1 141.5t-1 121.5v114h260q-2 -134 -2 -207q-2 -82 -2 -422q0 -86 28.5 -121.5t83.5 -35.5q28 0 43 4q3 1 13 4v279q0 90 -1 147t-1 164q-2 122 -2 188h268q-2 -106 -2 -162q-2 -64 -2 -333q0 -287 2 -346q0 -60 2 -150h-125
q-51 0 -94 -49.5t-43 -130.5q0 -69 36 -108.5t93 -39.5q8 0 14 0.5t12.5 1.5t9.5 2l10 3.5t8.5 3.5t10 5l10.5 5q12 -4 13 -17q-19 -20 -35 -41q-12 -11 -32 -34l-25 -29q-23 -14 -64 -14q-82 0 -135 59t-53 154q0 148 123 229v8q0 7 0.5 18.5t1 27t0.5 35.5v40l-18 -21.5
t-17 -19.5q-31 -38 -78 -84q-24 -20 -98 -20q-52 0 -90.5 16.5t-61.5 43.5t-37 68.5t-19 85t-5 99.5z" />
    <glyph glyph-name="Wcircumflex" unicode="&#x174;" horiz-adv-x="1355" 
d="M10 1434l289 10q1 -9 20 -139l18.5 -134.5t27.5 -179.5l18.5 -121l20 -133.5l14.5 -101.5l24 -164l127 770l-34 193l299 10q8 -68 18 -141q5 -30 19.5 -138.5t25.5 -173.5q51 -344 53 -356q12 -87 27 -164l27 164l59 356q11 65 26.5 170.5t20.5 136.5q18 126 20 136
l218 10q-13 -70 -41 -201q-59 -300 -84 -444q-51 -275 -95 -539l-43 -250l-311 -20q-10 62 -18 131l-39 258q-20 140 -37 225q-3 23 -16 88l-119 -682l-309 -20q-20 150 -37 260q-16 117 -80 549q-48 299 -74 442zM534 1515l-186 -10q93 133 205 318h307l95 -150
q49 -74 110 -158l-258 -10q-63 117 -144 236q-59 -87 -129 -226z" />
    <glyph glyph-name="wcircumflex" unicode="&#x175;" horiz-adv-x="1216" 
d="M72 297q0 5 1 128t1 210q0 46 -1 130t-1 116v110h262q0 -34 -1.5 -104t-2.5 -105q-4 -160 -4 -385q0 -63 36.5 -104t100.5 -41q23 0 33 4v66q0 17 1 72.5t1 92.5t-1 81t-1 53v34q0 99 -80 101q-23 0 -47 -6l211 254q60 0 111.5 -46.5t51.5 -134.5v-426q0 -76 37.5 -114.5
t102.5 -38.5q21 0 30 4v69q0 19 1 77t1 98q0 36 -1 78.5t-1 50.5v34q0 51 -23.5 76t-62.5 25q-20 0 -41 -6l207 254q17 0 40 -7t52.5 -24.5t49.5 -57t20 -94.5q-2 -60 -2 -86v-141q0 -59 1 -147.5t1 -114.5q-14 -18 -68 -74l-105 -102l-108 -103q-52 -49 -81 -69
q-55 0 -103 17t-82 46t-55.5 54t-38.5 53q-35 -35 -96 -89.5t-94 -80.5q-96 24 -168 94q-47 42 -65.5 92t-18.5 127zM436 1103l-186 -10q93 133 205 318h307l95 -150q49 -74 110 -158l-258 -10q-63 117 -144 236q-59 -87 -129 -226z" />
    <glyph glyph-name="Ycircumflex" unicode="&#x176;" horiz-adv-x="755" 
d="M254 545l-244 889h299l123 -506l109 506h215l-226 -830q0 -361 2 -432q0 -96 3 -172h-287q0 46 2 164q4 135 4 381zM225 1515l-186 -10q93 133 205 318h307l95 -150q49 -74 110 -158l-258 -10q-63 117 -144 236q-59 -87 -129 -226z" />
    <glyph glyph-name="ycircumflex" unicode="&#x177;" horiz-adv-x="862" 
d="M260 1103l-186 -10q93 133 205 318h307l95 -150q49 -74 110 -158l-258 -10q-63 117 -144 236q-59 -87 -129 -226zM94 242q0 18 2 121t2 210q0 50 -1 148t-1 135q-2 94 -2 135h264q-2 -128 -2 -203q-2 -82 -2 -450q0 -62 28.5 -92.5t71.5 -30.5q32 0 60 18q0 120 -1 302.5
t-1 240.5q-2 121 -3 215h261q-2 -102 -2 -157v-353v-450q0 -77 2 -211q-40 -56 -129.5 -140.5t-145.5 -119.5q-38 -9 -72 -9q-104 0 -187 47q-84 49 -130 113l201 195q18 -40 78.5 -79.5t123.5 -39.5v344q-26 -24 -38 -37q-57 -57 -68 -67q-46 -43 -117 -43q-75 0 -121 43
q-49 45 -60 108q-11 64 -11 107z" />
    <glyph glyph-name="Ydieresis" unicode="&#x178;" horiz-adv-x="755" 
d="M254 545l-244 889h299l123 -506l109 506h215l-226 -830q0 -361 2 -432q0 -96 3 -172h-287q0 46 2 164q4 135 4 381zM14 1601q16 16 29 33q9 11 30.5 35t31.5 37l73 90l29 -14q3 -1 26 -13l39 -20l76 -37q4 -2 17 -7.5l20 -8.5l-26 -29q-7 -9 -28 -31t-32 -35
q-14 -14 -57 -65q-9 -11 -27 -31l-31 14q-20 8 -69 35q-10 4 -33.5 16.5t-34.5 16.5q-22 10 -33 14zM416 1601q16 16 29 33q7 9 28.5 33t32.5 39l74 90l28 -14q5 -2 17 -8.5t24.5 -12.5l24.5 -12l76 -37q4 -2 17 -7.5l20 -8.5q-16 -18 -27 -29q-7 -9 -27.5 -31t-31.5 -35
q-21 -21 -58 -65l-26 -31l-31 14q-14 6 -70 35q-11 5 -34 17t-33 16q-22 10 -33 14z" />
    <glyph glyph-name="Zacute" unicode="&#x179;" horiz-adv-x="663" 
d="M580 0h-574l72 238l139 479q67 227 94 342l37 139q-99 0 -219 -6q-19 -1 -52.5 -2.5t-47.5 -1.5l84 246h522l-66 -215l-133 -441l-106 -375l-43 -157q154 0 250 4q60 1 116 6zM135 1505l66 229q28 5 55 13q48 11 143 36q105 28 150 43q29 7 59 19l-65 -227
q-24 -6 -45 -13q-129 -33 -135 -35l-158 -45z" />
    <glyph glyph-name="zacute" unicode="&#x17a;" horiz-adv-x="606" 
d="M532 0h-505l49 121q52 123 110 289l84 243l35 103q-125 0 -188 -4q-54 -2 -76 -2l70 241h469q-19 -44 -45 -112l-95 -244q-22 -54 -54 -146.5t-42 -119.5l-43 -123q156 0 191 2q16 1 45 2.5t41 1.5zM137 1104l66 229q28 5 55 13q48 11 143 36q105 28 150 43q29 7 59 19
l-65 -227q-24 -6 -45 -13q-129 -33 -135 -35l-158 -45z" />
    <glyph glyph-name="Zdotaccent" unicode="&#x17b;" horiz-adv-x="663" 
d="M580 0h-574l72 238l139 479q67 227 94 342l37 139q-99 0 -219 -6q-19 -1 -52.5 -2.5t-47.5 -1.5l84 246h522l-66 -215l-133 -441l-106 -375l-43 -157q154 0 250 4q60 1 116 6zM184 1698l193 164q21 -49 70 -105q44 -53 94 -88l-193 -164q-48 34 -94 87t-70 106z" />
    <glyph glyph-name="zdotaccent" unicode="&#x17c;" horiz-adv-x="606" 
d="M532 0h-505l49 121q52 123 110 289l84 243l35 103q-125 0 -188 -4q-54 -2 -76 -2l70 241h469q-19 -44 -45 -112l-95 -244q-22 -54 -54 -146.5t-42 -119.5l-43 -123q156 0 191 2q16 1 45 2.5t41 1.5zM141 1286l193 164q21 -49 70 -105q44 -53 94 -88l-193 -164
q-48 34 -94 87t-70 106z" />
    <glyph glyph-name="Zcaron" unicode="&#x17d;" horiz-adv-x="663" 
d="M6 1813l258 10q52 -96 143 -236q65 95 129 226l187 10l-57 -83l-46 -71l-52.5 -84l-49.5 -80h-307l-95 150q-31 47 -110 158zM586 0h-574l72 238l139 479q67 227 94 342l37 139q-99 0 -219 -6q-19 -1 -52.5 -2.5t-47.5 -1.5l84 246h522l-66 -215l-133 -441l-106 -375
l-43 -157q154 0 250 4q60 1 116 6z" />
    <glyph glyph-name="zcaron" unicode="&#x17e;" horiz-adv-x="606" 
d="M-37 1401l258 10q52 -96 143 -236q65 95 129 226l187 10l-57 -83l-46 -71l-52.5 -84l-49.5 -80h-307l-95 150q-31 47 -110 158zM532 0h-505l49 121q52 123 110 289l84 243l35 103q-125 0 -188 -4q-54 -2 -76 -2l70 241h469q-19 -44 -45 -112l-95 -244q-22 -54 -54 -146.5
t-42 -119.5l-43 -123q156 0 191 2q16 1 45 2.5t41 1.5z" />
    <glyph glyph-name="longs" unicode="&#x17f;" horiz-adv-x="516" 
d="M25 797h-37l118 155v195q52 86 118 162q71 80 124 118q14 6 23 9q21 8 69 8q28 0 64 -14q14 -7 20 -13l-57 -266q-52 39 -127 39v-391q0 -435 2 -539q0 -94 2 -260h-242q0 80 2 260q0 74 1 257t1 282q-17 0 -44.5 -1t-36.5 -1z" />
    <glyph glyph-name="uni018E" unicode="&#x18e;" horiz-adv-x="722" 
d="M21 1215l114 219h506q0 -67 -2 -225q-4 -181 -4 -492q0 -316 4 -493q2 -156 2 -224h-608l133 220q28 0 59 -3q17 0 64 -1t76 -1v379q-169 0 -207 -2q-34 0 -94 -2l112 213q15 0 55 -2q16 0 61 -1t73 -1v420q-193 0 -236 -2q-38 0 -108 -2z" />
    <glyph glyph-name="uni018F" unicode="&#x18f;" horiz-adv-x="679" 
d="M41 274q0 67 6 95q110 85 187 151q17 0 44.5 -1t36.5 -1h37q2 13 2 59q0 105 -31 139q-32 35 -85 35q-100 0 -160 -88q-17 0 -23 13q5 21 46 130t55 136q12 16 69 39q54 22 127 22q141 0 204 -91t63 -273q0 -101 -7 -213.5t-16 -182.5t-14 -75q-52 -48 -134 -101
t-151 -84q-93 0 -139 28q-48 30 -76 69q-29 41 -35 95t-6 99zM242 338q0 -48 23 -88q23 -39 65 -39q4 0 10 1t8 1h4q2 34 2 51v115q-64 0 -110 -6q-2 -7 -2 -35z" />
    <glyph glyph-name="florin" unicode="&#x192;" horiz-adv-x="763" 
d="M20 692l68 213q34 -2 53 -2q15 0 59 -1t70 -1q-2 54 -2 184q0 28 -2 62q45 85 114 162q70 76 126 116q8 3 26 9q32 10 70 10q20 0 62 -14l18 -15l-55 -264q-51 39 -127 39q0 -18 -2 -76q-4 -65 -4 -213q143 0 174 2q29 0 75 2l-67 -213q-17 0 -55 2q-15 0 -58 1t-69 1
v-149q0 -425 2 -508q1 -42 2.5 -111t1.5 -90q-45 -86 -114 -162q-70 -76 -126 -116q-14 -7 -27 -11q-26 -8 -69 -8q-41 0 -62 15q-9 5 -18 14l55 264q51 -39 127 -39q0 59 2 221q4 185 4 531v149q-43 -2 -174 -2q-28 0 -78 -2z" />
    <glyph glyph-name="uni01B5" unicode="&#x1b5;" horiz-adv-x="663" 
d="M580 0h-574l57 195q34 109 123 417q-31 -2 -116 -2h-52l68 213q26 -2 45 -2q21 -2 115 -2l43 157.5l30 113.5l29 108q-99 0 -219 -6q-19 -1 -52.5 -2.5t-47.5 -1.5l84 246h522l-62 -197q-20 -60 -124 -418q22 0 60.5 1t53.5 1q21 0 55 2l-67 -213h-55q-85 0 -109 2
l-38.5 -141t-33.5 -121q-11 -37 -28 -104q154 0 250 4q60 1 116 6z" />
    <glyph glyph-name="uni01B6" unicode="&#x1b6;" horiz-adv-x="606" 
d="M532 0h-505l49 121q52 123 110 289l7 20h-43q-17 0 -46 -1t-38 -1h-37l121 156h98l41 123l16 49q-125 0 -188 -4q-54 -2 -76 -2l70 241h469q-19 -44 -45 -112l-95 -244l-20 -51h117q19 0 49 2l-140 -156h-81l-46 -133q-11 -29 -18 -51q156 0 191 2q16 1 45 2.5t41 1.5z
" />
    <glyph glyph-name="Aringacute" unicode="&#x1fa;" horiz-adv-x="884" 
d="M240 10l-230 -20q14 79 33 160q4 18 72 376l54 314l48 293l49 301l346 10l52 -303l51 -296l57 -319q48 -263 70 -354q29 -150 32 -162l-292 -20q-16 96 -23 145l-43 271h-225q-8 -48 -20.5 -146t-14.5 -115q-2 -23 -7.5 -68t-8.5 -67zM205 1866l66 229q28 5 55 13
q48 11 143 36q105 28 150 43q29 7 59 19l-65 -227q-24 -6 -45 -13q-129 -33 -135 -35l-158 -45zM291 1661q0 112 115 170q20 12 45 12q51 0 88 -31q57 -51 57 -123q0 -92 -96 -164q-32 -20 -63 -20q-58 0 -102 44t-44 112zM399 1102l-77 -492h165zM371 1695
q0 -51 25.5 -81.5t68.5 -30.5q33 0 37 6q19 31 19 70q0 49 -31 80.5t-74 31.5q-18 0 -24 -6q-21 -21 -21 -70z" />
    <glyph glyph-name="aringacute" unicode="&#x1fb;" 
d="M61 352q0 204 12 311q11 105 15 132q34 44 133 116q57 45 148 90q4 1 24 5q32 6 70 6q86 0 184 -33l111 22q-2 -98 -2 -155q-2 -62 -2 -334q0 -291 2 -354q0 -60 2 -158h-271q2 18 2 35q0 63 3 94q-6 -6 -26 -27.5l-30 -31.5l-61 -64q-41 -22 -111 -22q-48 0 -82 14.5
t-63 53t-43.5 113.5t-14.5 187zM205 1466l66 229q28 5 55 13q48 11 143 36q105 28 150 43q29 7 59 19l-65 -227q-24 -6 -45 -13q-129 -33 -135 -35l-158 -45zM291 1262q0 112 115 170q20 12 45 12q51 0 88 -31q57 -51 57 -123q0 -92 -96 -164q-32 -20 -63 -20q-58 0 -102 44
t-44 112zM309 496q0 -63 4 -107t16 -90t38.5 -70t66.5 -24q37 0 62 10q0 11 2 61q0 15 1 92.5t1 143.5q0 47 -1 112.5t-1 84.5q-2 52 -2 71l-23 13q-36 14 -67 14q-37 0 -58 -8q-11 -4 -20 -6q-19 -131 -19 -297zM371 1296q0 -51 25.5 -81.5t68.5 -30.5q33 0 37 6
q19 31 19 70q0 49 -31 80.5t-74 31.5q-18 0 -24 -6q-21 -21 -21 -70z" />
    <glyph glyph-name="AEacute" unicode="&#x1fc;" horiz-adv-x="1038" 
d="M240 6l-230 -16q14 79 33 160q4 18 72 376l54 314l48 293l49 301h740l-134 -220q-30 0 -61 3q-17 0 -63 1t-76 1v-379q171 0 209 2q36 0 94 2l-113 -213q-17 0 -57 2q-16 0 -60.5 1t-72.5 1v-420q194 0 237 2q39 0 109 2l-115 -219h-506q2 68 2 117q0 212 2 289h-110
q-8 -47 -20 -145t-15 -118l-8.5 -72t-7.5 -65zM401 1112l-79 -502h81v107q0 317 -2 395zM387 1546l66 229q28 5 55 13q48 11 143 36q105 28 150 43q29 7 59 19l-65 -227q-24 -6 -45 -13q-129 -33 -135 -35l-158 -45z" />
    <glyph glyph-name="aeacute" unicode="&#x1fd;" horiz-adv-x="1101" 
d="M51 297q0 80 6 119q6 40 15 71q27 35 137 117q58 47 147 90q15 4 17 4q17 4 55 4q40 0 57 -4v15q-3 40 -39 67t-108 27q-69 0 -116 -37q-49 -39 -68 -70q-22 0 -29 15q4 22 41 113t53 120q78 64 209 64q164 0 242 -82q47 31 135 74q93 0 139 -28q48 -30 76 -69
q29 -41 35 -95t6 -99q0 -67 -6 -95q-110 -85 -187 -151q-16 0 -44 1t-38 1h-36q-2 -13 -2 -59q0 -104 32 -139t84 -35q98 0 160 88q15 0 23 -13q-5 -21 -46 -130t-55 -136q-11 -15 -68 -38q-55 -23 -128 -23q-191 0 -244 174q-20 -27 -74 -83.5t-76 -68.5q-41 -23 -102 -22
q-46 0 -80.5 13.5t-63.5 47t-44 96.5t-15 156zM297 348q0 -145 129 -145q36 0 66 14q-9 70 -9 131q0 96 2 123q-39 27 -96 27q-38 0 -55 -9l-19 -6q-18 -59 -18 -135zM432 1104l66 229q28 5 55 13q48 11 143 36q105 28 150 43q29 7 59 19l-65 -227q-24 -6 -45 -13
q-129 -33 -135 -35l-158 -45zM748 723v-115q64 0 110 6q2 7 2 35q0 50 -22 88q-22 39 -66 39q-4 0 -10 -1t-8 -1h-4q-2 -34 -2 -51z" />
    <glyph glyph-name="circumflex" unicode="&#x2c6;" horiz-adv-x="798" 
d="M227 1126l-186 -10q93 133 205 318h307l95 -150q49 -74 110 -158l-258 -10q-63 117 -144 236q-59 -87 -129 -226z" />
    <glyph glyph-name="caron" unicode="&#x2c7;" horiz-adv-x="798" 
d="M41 1434l258 10q52 -96 143 -236q65 95 129 226l187 10l-57 -83l-46 -71l-52.5 -84l-49.5 -80h-307l-95 150q-31 47 -110 158z" />
    <glyph glyph-name="breve" unicode="&#x2d8;" horiz-adv-x="657" 
d="M61 1313l187 121q6 -38 28 -66q46 -63 140 -63q79 0 119 36q40 34 63 80q12 0 18 -8q-42 -144 -100 -246q-16 -15 -47 -26q-63 -25 -158 -25q-107 0 -168.5 56t-81.5 141z" />
    <glyph glyph-name="dotaccent" unicode="&#x2d9;" horiz-adv-x="468" 
d="M61 1309l193 164q21 -49 70 -105q44 -53 94 -88l-193 -164q-48 34 -94 87t-70 106z" />
    <glyph glyph-name="ring" unicode="&#x2da;" horiz-adv-x="425" 
d="M51 1262q0 112 115 170q20 12 45 12q51 0 88 -31q57 -51 57 -123q0 -92 -96 -164q-32 -20 -63 -20q-58 0 -102 44t-44 112zM131 1296q0 -51 25.5 -81.5t68.5 -30.5q33 0 37 6q19 31 19 70q0 49 -31 80.5t-74 31.5q-18 0 -24 -6q-21 -21 -21 -70z" />
    <glyph glyph-name="ogonek" unicode="&#x2db;" horiz-adv-x="421" 
d="M59 -266q0 150 95 286h84q-58 -137 -58 -229q0 -119 92 -119q17 0 31.5 3.5t19.5 5.5t25 12q12 -5 12 -17q-12 -13 -34 -41q-10 -10 -30 -33t-28 -30q-23 -14 -63 -14q-76 0 -111 49t-35 127z" />
    <glyph glyph-name="tilde" unicode="&#x2dc;" horiz-adv-x="772" 
d="M41 1186l68 192q19 54 67 56q19 0 43 -7l379 -100q30 -8 49 -8q53 0 84 55l-67 -192q-19 -54 -68 -56q-19 0 -43 7l-379 100q-26 8 -49 8q-53 0 -84 -55z" />
    <glyph glyph-name="hungarumlaut" unicode="&#x2dd;" horiz-adv-x="813" 
d="M119 1104l-58 231q24 22 41 39l105 105l108 112q15 17 43 45l58 -229q-18 -16 -35 -33l-98 -98q-59 -55 -115 -119zM455 1104l-58 231q24 22 41 39l105 105l108 112q15 17 43 45l58 -229q-18 -16 -35 -33l-99 -98q-53 -50 -114 -119z" />
    <glyph glyph-name="pi" unicode="&#x3c0;" horiz-adv-x="1093" 
d="M78 778h-47l73 213h963l-74 -213h-37q-71 0 -98 2q0 -2 -1 -50t-2 -135.5t-1 -184.5q0 -254 2 -301q0 -45 2 -109h-264q0 27 2 109q0 28 1 127.5t1 173.5q0 63 -0.5 123.5t-1 102t-1 73.5t-1 50t-0.5 21h-123q0 -3 -0.5 -21t-1 -50t-1 -73.5t-1 -102t-0.5 -123.5
q0 -254 2 -301q0 -45 2 -109h-264q0 27 2 109q0 28 1 127.5t1 173.5q0 63 -0.5 122.5t-1 101.5t-1 74t-1 50.5t-0.5 21.5q-31 0 -74.5 -1t-54.5 -1z" />
    <glyph glyph-name="uni2000" unicode="&#x2000;" horiz-adv-x="1103" 
 />
    <glyph glyph-name="uni2001" unicode="&#x2001;" horiz-adv-x="2206" 
 />
    <glyph glyph-name="uni2002" unicode="&#x2002;" horiz-adv-x="1103" 
 />
    <glyph glyph-name="uni2003" unicode="&#x2003;" horiz-adv-x="2206" 
 />
    <glyph glyph-name="uni2004" unicode="&#x2004;" horiz-adv-x="735" 
 />
    <glyph glyph-name="uni2005" unicode="&#x2005;" horiz-adv-x="551" 
 />
    <glyph glyph-name="uni2006" unicode="&#x2006;" horiz-adv-x="367" 
 />
    <glyph glyph-name="uni2007" unicode="&#x2007;" horiz-adv-x="367" 
 />
    <glyph glyph-name="uni2008" unicode="&#x2008;" horiz-adv-x="275" 
 />
    <glyph glyph-name="uni2009" unicode="&#x2009;" horiz-adv-x="441" 
 />
    <glyph glyph-name="uni200A" unicode="&#x200a;" horiz-adv-x="122" 
 />
    <glyph glyph-name="uni2010" unicode="&#x2010;" horiz-adv-x="722" 
d="M41 362l125 199q15 24 32.5 32.5t53.5 8.5h297q52 0 77 4q28 5 56 31l-125 -199q-15 -24 -32.5 -32.5t-53.5 -8.5h-297q-52 0 -76 -4q-29 -5 -57 -31z" />
    <glyph glyph-name="uni2011" unicode="&#x2011;" horiz-adv-x="722" 
d="M41 362l125 199q15 24 32.5 32.5t53.5 8.5h297q52 0 77 4q28 5 56 31l-125 -199q-15 -24 -32.5 -32.5t-53.5 -8.5h-297q-52 0 -76 -4q-29 -5 -57 -31z" />
    <glyph glyph-name="figuredash" unicode="&#x2012;" horiz-adv-x="722" 
d="M41 362l125 199q15 24 32.5 32.5t53.5 8.5h297q52 0 77 4q28 5 56 31l-125 -199q-15 -24 -32.5 -32.5t-53.5 -8.5h-297q-52 0 -76 -4q-29 -5 -57 -31z" />
    <glyph glyph-name="endash" unicode="&#x2013;" horiz-adv-x="1282" 
d="M51 393l135 213q84 -2 146 -2q62 -2 377 -2t376 2q60 0 146 2l-135 -213q-36 0 -146 2q-39 0 -165 1t-212 1t-212 -1t-164 -1q-110 -2 -146 -2z" />
    <glyph glyph-name="emdash" unicode="&#x2014;" horiz-adv-x="1568" 
d="M51 393l135 213q104 -2 179 -2q77 -2 487 -2q408 0 485 2q73 0 181 2l-136 -213q-46 0 -180 2q-46 0 -209 1t-276 1q-114 0 -278 -1t-210 -1q-134 -2 -178 -2z" />
    <glyph glyph-name="quoteleft" unicode="&#x2018;" horiz-adv-x="346" 
d="M33 1163q17 78 82 157t157 124q-41 -84 -41 -182q15 -72 86 -129l-192 -164q-92 92 -92 194z" />
    <glyph glyph-name="quoteright" unicode="&#x2019;" horiz-adv-x="346" 
d="M29 1280l192 164q92 -92 92 -195q-16 -76 -82.5 -159t-156.5 -121q41 84 41 182q-15 70 -86 129z" />
    <glyph glyph-name="quotesinglbase" unicode="&#x201a;" horiz-adv-x="346" 
d="M29 168l192 164q92 -92 92 -195q-17 -78 -83 -160t-156 -120q41 84 41 182q-15 70 -86 129z" />
    <glyph glyph-name="quotedblleft" unicode="&#x201c;" horiz-adv-x="671" 
d="M33 1163q17 78 82 157t157 124q-41 -84 -41 -182q15 -72 86 -129l-192 -164q-92 92 -92 194zM358 1163q17 78 82.5 157t157.5 124q-41 -84 -41 -182q16 -74 86 -129l-192 -164q-93 93 -93 194z" />
    <glyph glyph-name="quotedblright" unicode="&#x201d;" horiz-adv-x="671" 
d="M29 1280l192 164q92 -92 92 -195q-16 -76 -82.5 -159t-156.5 -121q41 84 41 182q-15 70 -86 129zM354 1280l193 164q92 -92 92 -195q-16 -76 -83 -159t-157 -121q41 84 41 182q-15 72 -86 129z" />
    <glyph glyph-name="quotedblbase" unicode="&#x201e;" horiz-adv-x="671" 
d="M29 168l192 164q92 -92 92 -195q-17 -78 -83 -160t-156 -120q41 84 41 182q-15 70 -86 129zM354 168l193 164q92 -92 92 -195q-17 -77 -83.5 -159.5t-156.5 -120.5q41 84 41 182q-15 72 -86 129z" />
    <glyph glyph-name="dagger" unicode="&#x2020;" horiz-adv-x="747" 
d="M10 803l66 192q30 -2 53 -2q24 -2 141 -2q0 72 -1 179t-1 141v123l213 10q-2 -74 -2 -125q0 -33 -1 -143t-1 -185q156 0 187 2q27 0 73 2l-65 -192q-34 2 -56 2q-101 0 -139 2v-244q0 -626 2 -743q0 -115 2 -269l-213 -10q0 65 2 273q0 71 1 321.5t1 427.5v244
q-53 -2 -188 -2q-30 0 -74 -2z" />
    <glyph glyph-name="daggerdbl" unicode="&#x2021;" horiz-adv-x="747" 
d="M10 403l66 193q34 -2 55 -2q24 -2 141 -2v215q-53 -2 -188 -2q-30 0 -74 -2l66 192q30 -2 53 -2q24 -2 141 -2q0 72 -1 179t-1 141v123l213 10q-2 -74 -2 -125q0 -33 -1 -143t-1 -185q156 0 187 2q27 0 73 2l-65 -192q-34 2 -56 2q-101 0 -139 2v-215q156 0 187 2
q27 0 73 2l-65 -193q-30 2 -56 3q-101 0 -139 2q0 -531 2 -629q0 -96 2 -228l-213 -10q2 134 2 232q0 454 2 635q-53 -2 -188 -2q-41 0 -74 -3z" />
    <glyph glyph-name="bullet" unicode="&#x2022;" horiz-adv-x="454" 
d="M49 547l193 164q21 -49 70 -105q46 -55 94 -88l-193 -164q-47 33 -93.5 87.5t-70.5 105.5z" />
    <glyph glyph-name="ellipsis" unicode="&#x2026;" horiz-adv-x="1458" 
d="M41 168l192 164q21 -49 70 -105q44 -53 94 -88l-192 -164q-47 33 -93.5 87.5t-70.5 105.5zM551 168l192 164q21 -49 70 -105q44 -53 94 -88l-192 -164q-47 33 -94 88t-70 105zM1061 168l192 164q21 -49 70 -105q44 -53 94 -88l-192 -164q-47 33 -94 88t-70 105z" />
    <glyph glyph-name="uni202F" unicode="&#x202f;" horiz-adv-x="441" 
 />
    <glyph glyph-name="perthousand" unicode="&#x2030;" horiz-adv-x="2078" 
d="M80 1055q0 129 18 223l6 33q1 0 11.5 8.5t37.5 27.5t62 39q51 29 84 46l25 12h10q175 0 227 -113q31 -63 31 -237q0 -74 -5 -146q-5 -65 -9 -74q-7 -11 -46.5 -43.5t-66.5 -50.5l-61 -40q-34 -22 -58 -27h-12q-168 0 -221 121q-16 34 -24 98q-9 63 -9 123zM262 1090
q0 -46 3.5 -78.5t13 -65.5t31.5 -50t55 -17q17 0 28 4q19 19 19 190q0 28 -1 46t-3.5 44.5t-10 43.5t-18.5 34t-30 25t-44 8q-18 0 -29 -4q-1 -6 -8 -43q-6 -43 -6 -137zM485 -102l-163 -11l127 287l121 284l128 310l217 537l93 231l159 10l-102 -235l-229 -543l-128 -309
l-112 -281zM881 322q0 120 18 224l6 32q1 0 11 8t37.5 27t62.5 40q57 33 84 45l24 13h11q172 0 227 -113q31 -63 31 -238q0 -74 -5 -146q-6 -65 -10 -73q-7 -11 -46.5 -44t-65.5 -50l-62 -40q-31 -22 -57 -27h-12q-166 0 -222 120q-17 34 -24 99q-8 67 -8 123zM1063 356
q0 -45 3.5 -77.5t13 -65.5t31 -50.5t54.5 -17.5q14 0 29 5q18 18 18 190q0 28 -0.5 45.5t-3.5 44.5t-10 44t-18 34t-30 25t-44 8q-18 0 -29 -4q-1 -6 -8 -43q-6 -44 -6 -138zM1487 322q0 120 18 224l6 32q1 0 11.5 8t37.5 27t62 40q57 33 84 45l25 13h10q175 0 227 -113
q31 -63 31 -238q0 -74 -5 -146q-4 -64 -9 -73q-7 -11 -46.5 -43.5t-66.5 -50.5l-61 -40q-31 -22 -58 -27h-12q-168 0 -221 120q-16 34 -24 99q-9 63 -9 123zM1669 356q0 -45 3.5 -77.5t13 -65.5t31.5 -50.5t55 -17.5q15 0 28 5q19 19 19 190q0 28 -1 46t-3.5 44.5t-10 43.5
t-18.5 33.5t-30 25t-44 8.5q-18 0 -29 -4q-1 -6 -8 -43q-6 -44 -6 -138z" />
    <glyph glyph-name="guilsinglleft" unicode="&#x2039;" horiz-adv-x="552" 
d="M72 410v204q224 139 399 267v-246q-123 -57 -225 -123q102 -66 225 -123v-246q-175 128 -399 267z" />
    <glyph glyph-name="guilsinglright" unicode="&#x203a;" horiz-adv-x="552" 
d="M82 143v246q123 57 225 123q-102 66 -225 123v246q167 -123 399 -267v-204q-232 -144 -399 -267z" />
    <glyph glyph-name="fraction" unicode="&#x2044;" horiz-adv-x="927" 
d="M246 -102l-246 -11l127 287l121 284l129 310l217 537l92 231l242 10l-103 -235l-229 -543l-128 -309l-112 -281z" />
    <glyph glyph-name="uni205F" unicode="&#x205f;" horiz-adv-x="551" 
 />
    <glyph glyph-name="zerosuperior" unicode="&#x2070;" horiz-adv-x="505" 
d="M41 1053q0 151 25 272q21 26 76.5 65t97.5 54q47 0 76.5 -6t56.5 -25q73 -55 88 -194q4 -35 4 -121q0 -95 -16 -189q-6 -34 -17 -75q-21 -25 -62.5 -61.5t-62.5 -49.5q-26 -12 -69 -12q-59 0 -100.5 36.5t-61 94.5t-27.5 109.5t-8 101.5zM188 1122q0 -272 101 -272
q12 0 18 2q15 141 15 225q0 100 -26 164t-83 64h-10q-15 -92 -15 -183z" />
    <glyph glyph-name="foursuperior" unicode="&#x2074;" horiz-adv-x="462" 
d="M203 942h-174v111l11 22.5t15 32.5l60 125l31.5 69.5t29.5 67.5l27 64l147 6q-2 -78 -2 -123v-252h62q10 0 28 2l-39 -125h-51v-154q0 -27 2 -65h-149v65q0 18 1 70t1 84zM203 1292l-103 -225q14 -2 27 -2h76v31q0 8 1 30t1 37q0 16 -1 46.5t-1 41.5v41z" />
    <glyph glyph-name="fivesuperior" unicode="&#x2075;" horiz-adv-x="403" 
d="M39 1063v63q0 18 1 65t1 73q0 24 -1 63t-1 53v54h289l-56 -121h-51q-14 0 -51.5 1t-58.5 1v-117q9 2 16 6q21 8 47 8q93 0 139.5 -56t46.5 -152q0 -93 -28 -175q-22 -26 -133 -112q-26 -12 -70 -12q-64 0 -88 24l14 123q53 -37 107 -37q26 0 55 12q10 39 10 113
q0 71 -26 106t-84 35q-49 0 -78 -18z" />
    <glyph glyph-name="sixsuperior" unicode="&#x2076;" horiz-adv-x="477" 
d="M43 1022q0 170 45 303q70 76 158 111q11 2 39 2q50 0 86 -27l-45 -113q-37 25 -80 25q-27 0 -37 -6q-21 -63 -27 -182q6 6 72 57q23 14 45 14q36 0 63 -14q32 -15 52 -61t20 -115q0 -125 -43 -213q-18 -18 -59.5 -49t-65.5 -45q-4 -4 -30 -4q-64 0 -105 36
q-49 42 -68.5 99.5t-19.5 181.5zM180 1073q0 -124 15 -168q20 -73 77 -71q9 0 15 2q0 1 1.5 10t2.5 16q6 38 6 78q0 57 -20.5 101t-59.5 44q-23 0 -37 -12z" />
    <glyph glyph-name="sevensuperior" unicode="&#x2077;" horiz-adv-x="395" 
d="M25 1288l45 146h286q-11 -39 -22 -97q-34 -156 -47 -231q-9 -50 -24 -142l-19 -118l-19 -129l-125 -6q14 62 23 110q29 146 43 234q7 36 17 96.5l14 83.5q7 38 12 76q-5 2 -39 2q-82 0 -145 -25z" />
    <glyph glyph-name="eightsuperior" unicode="&#x2078;" horiz-adv-x="475" 
d="M45 901q0 42 10 100q16 24 72 68q-24 10 -44 33t-26 51q-6 27 -6 57q0 48 17 119q68 59 112 88q34 21 92 21q69 0 108.5 -32t39.5 -95q0 -53 -14 -97q-25 -29 -74 -59q42 -22 70 -72t28 -116q0 -44 -12 -111q-7 -25 -12 -41l-123 -108q-10 -2 -17 -2h-53q-45 0 -86.5 24
t-63.5 72q-18 46 -18 100zM176 1284q0 -47 23.5 -72.5t72.5 -35.5q0 4 2 10.5t2 9.5q5 22 5 53q0 94 -74 94q-10 0 -25 -4q-6 -16 -6 -55zM193 934q0 -44 13 -80q13 -37 54 -37q9 0 21 4q4 31 4 33q4 28 4 96q0 48 -28 71t-62 28q0 -4 -1.5 -16.5l-2.5 -20.5q-2 -14 -2 -78z
" />
    <glyph glyph-name="ninesuperior" unicode="&#x2079;" horiz-adv-x="475" 
d="M43 1124q0 104 25 166q11 34 24 53q4 3 34 28t52.5 41.5t36.5 23.5q3 2 25 2q100 0 146 -80t46 -262q0 -102 -24 -189q-13 -49 -23 -73q-15 -23 -64 -65t-75 -54q-24 -10 -60 -10q-55 0 -86 20l-2 125q49 -33 119 -33q33 0 55 12q12 82 15 113q2 42 2 62q-14 -13 -29 -23
q-32 -26 -51 -39q-16 -6 -41 -6q-55 0 -90 49.5t-35 138.5zM176 1204q0 -29 2.5 -50.5t10 -46t25 -37.5t44.5 -13q19 0 33 10q2 9 2 49q0 80 -20 140q-21 57 -72 57q-13 0 -15 -2q-10 -48 -10 -107z" />
    <glyph glyph-name="zeroinferior" unicode="&#x2080;" horiz-adv-x="505" 
d="M41 -116q0 151 25 272q21 26 76.5 65t97.5 54q47 0 76.5 -6t56.5 -25q73 -55 88 -194q4 -35 4 -121q0 -95 -16 -189q-6 -34 -17 -75q-21 -25 -62.5 -61.5t-62.5 -49.5q-26 -12 -69 -12q-59 0 -100.5 36.5t-61 94.5t-27.5 109.5t-8 101.5zM188 -47q0 -272 101 -272
q12 0 18 2q15 141 15 225q0 100 -26 164t-83 64h-10q-15 -92 -15 -183z" />
    <glyph glyph-name="oneinferior" unicode="&#x2081;" horiz-adv-x="356" 
d="M102 269l152 10q-2 -68 -2 -109q-2 -43 -2 -237q0 -215 2 -262q0 -45 2 -119h-152q0 33 2 119q0 32 1 121.5t1 140.5q0 43 -1 121.5t-1 107.5q-2 74 -2 107z" />
    <glyph glyph-name="twoinferior" unicode="&#x2082;" horiz-adv-x="450" 
d="M61 142q16 24 25 36q23 37 39 56q39 45 104 45q103 0 129 -88q23 -69 23 -193q0 -95 -27 -194q-57 -72 -133 -138h31q43 0 57 3q19 0 60 12q4 2 26 10l-22 -139h-301l8 110q47 11 92 53q46 43 57 117q7 62 7 103q0 63 -7 112q-10 109 -88 109q-40 0 -65 -27q-15 1 -15 13
z" />
    <glyph glyph-name="threeinferior" unicode="&#x2083;" horiz-adv-x="417" 
d="M63 -114l33 41q7 7 26 31.5t28 31.5q13 7 34 12l21 4q12 32 12 80q0 39 -18.5 57.5t-48.5 18.5q-34 0 -58 -24q-6 0 -11 6t-5 10l26 37q7 11 21.5 28t17.5 21q30 39 97 39q120 0 120 -131q0 -38 -19 -70.5t-36.5 -46.5t-44.5 -31q34 -7 63.5 -28.5t40.5 -57.5
q13 -37 13 -94q0 -93 -21 -156q-34 -34 -139 -106q-31 -16 -68 -16q-57 0 -77 24l12 117q43 -31 96 -31q34 0 53 12q9 38 9 91q0 55 -19 92t-82 37q-31 0 -61 -15q-4 0 -9.5 6.5t-5.5 10.5z" />
    <glyph glyph-name="fourinferior" unicode="&#x2084;" horiz-adv-x="462" 
d="M29 -229v111l11 22.5t15 32.5l60 125l31.5 69.5t29.5 67.5l27 64l147 6q-2 -78 -2 -123v-252h62q10 0 28 2l-39 -125h-51v-154q0 -27 2 -65h-149v65q0 18 1 70t1 84h-174zM203 121l-103 -225q14 -2 27 -2h76v31q0 9 1 31t1 36q0 16 -1 46.5t-1 41.5v41z" />
    <glyph glyph-name="fiveinferior" unicode="&#x2085;" horiz-adv-x="403" 
d="M39 -100v63q0 18 1 65t1 73q0 24 -1 62.5t-1 53.5v54h289l-56 -121h-51q-14 0 -51.5 1t-58.5 1v-117q9 2 16 6q21 8 47 8q93 0 139.5 -56t46.5 -152q0 -93 -28 -175q-22 -26 -133 -112q-26 -12 -70 -12q-64 0 -88 24l14 123q53 -37 107 -37q26 0 55 12q10 39 10 113
q0 71 -26 106t-84 35q-49 0 -78 -18z" />
    <glyph glyph-name="sixinferior" unicode="&#x2086;" horiz-adv-x="477" 
d="M43 -141q0 170 45 303q70 76 158 111q11 2 39 2q50 0 86 -27l-45 -113q-37 25 -80 25q-27 0 -37 -6q-21 -63 -27 -182q6 6 72 57q23 14 45 14q36 0 63 -14q32 -15 52 -61t20 -115q0 -125 -43 -213q-18 -18 -59.5 -49t-65.5 -45q-4 -4 -30 -4q-64 0 -105 36
q-49 42 -68.5 99.5t-19.5 181.5zM180 -90q0 -124 15 -168q20 -73 77 -71q9 0 15 2q0 1 1.5 10t2.5 16q6 38 6 78q0 57 -20.5 101t-59.5 44q-23 0 -37 -12z" />
    <glyph glyph-name="seveninferior" unicode="&#x2087;" horiz-adv-x="395" 
d="M25 123l45 146h286q-11 -39 -22 -97q-34 -156 -47 -231q-9 -50 -24 -142l-19 -118l-19 -129l-125 -6q14 62 23 110q29 146 43 234q7 36 17 96.5l14 83.5q7 38 12 76q-5 2 -39 2q-82 0 -145 -25z" />
    <glyph glyph-name="eightinferior" unicode="&#x2088;" horiz-adv-x="475" 
d="M45 -262q0 42 10 100q16 24 72 68q-24 10 -44 33t-26 51q-6 27 -6 57q0 48 17 119q68 59 112 88q34 21 92 21q69 0 108.5 -32t39.5 -95q0 -53 -14 -97q-25 -29 -74 -59q42 -22 70 -72t28 -116q0 -44 -12 -111q-7 -25 -12 -41l-123 -108q-10 -2 -17 -2h-53q-45 0 -86.5 24
t-63.5 72q-18 46 -18 100zM176 121q0 -47 23.5 -72.5t72.5 -35.5q0 3 2 9.5t2 10.5q5 22 5 53q0 94 -74 94q-10 0 -25 -4q-6 -16 -6 -55zM195 -151q-2 -14 -2 -78q0 -44 13 -80q13 -37 54 -37q9 0 21 4q4 31 4 33q4 28 4 96q0 48 -28 71t-62 28q0 -4 -1.5 -16.5z" />
    <glyph glyph-name="nineinferior" unicode="&#x2089;" horiz-adv-x="475" 
d="M43 -39q0 104 25 166q11 34 24 53q4 3 34 28t52.5 41.5t36.5 23.5q3 2 25 2q100 0 146 -80t46 -262q0 -102 -24 -189q-13 -49 -23 -73q-15 -23 -64 -65t-75 -54q-24 -10 -60 -10q-55 0 -86 20l-2 125q49 -33 119 -33q33 0 55 12q12 82 15 113q2 42 2 62q-14 -13 -29 -23
q-32 -26 -51 -39q-16 -6 -41 -6q-55 0 -90 49.5t-35 138.5zM176 41q0 -29 2.5 -50.5t10 -46t25 -37.5t44.5 -13q19 0 33 10q2 9 2 49q0 80 -20 140q-21 57 -72 57q-13 0 -15 -2q-10 -48 -10 -107z" />
    <glyph glyph-name="Euro" unicode="&#x20ac;" horiz-adv-x="1021" 
d="M12 426l68 213q24 -2 41 -2q10 0 45 -1t55 -1v61q-38 -2 -147 -2q-26 0 -62 -2l68 213q30 -2 47 -2q13 0 50 -1t63 -1q12 103 27 183q13 76 20 94q4 15 64 67.5t126 97.5q145 101 209 101q60 0 124 -14q61 -15 114 -76q59 -74 59 -176v-13l-276 -139q2 9 2 35
q0 48 -15 81t-39.5 47.5t-45 19.5t-42.5 5q-4 0 -11 -1t-9 -1h-6q-6 -40 -15 -90q-12 -84 -20 -221q131 0 160 2q27 0 69 2l-67 -213h-52q-14 0 -52 1t-64 1v-59q135 0 164 2q25 0 71 2l-67 -213q-11 0 -41 2q-12 0 -47 1t-56 1q15 -54 41.5 -93t51.5 -57.5t61 -28.5
t55.5 -11.5t50.5 -1.5q100 0 179 75q1 1 15 -6q13 -7 11 -12q-3 -4 -25.5 -46.5t-53 -95t-54.5 -83.5q-41 -56 -93 -75.5t-138 -19.5q-94 0 -172 41t-125 115q-74 109 -99 299q-40 -2 -151 -2q-24 0 -66 -2z" />
    <glyph glyph-name="trademark" unicode="&#x2122;" horiz-adv-x="1110" 
d="M63 1323h-43l52 111h372l-61 -111h-27q-7 0 -25.5 1t-29.5 1q-2 -52 -2 -84v-199v-221q0 -36 2 -104h-143v104q0 29 1 104t1 117q0 43 -1 109.5t-1 89.5v84q-17 0 -49.5 -1t-45.5 -1zM551 721l-115 -10q6 80 10 116l10 112.5t11 145.5q2 35 5.5 118.5t6.5 119.5
q5 57 6 111l156 6l21 -97l19.5 -90.5t20.5 -91.5q7 -36 19.5 -86t15.5 -63q7 -31 15 -58q1 6 6 26l8 32q3 17 16.5 66t20.5 83l41 178q4 17 10.5 49l9.5 46l178 6q0 -33 2 -113q1 -21 3.5 -106t5.5 -136q2 -34 5.5 -123t6.5 -128q1 -17 3.5 -55.5t4.5 -57.5l-145 -10
q0 28 -2 96q-2 29 -3.5 95.5t-2.5 98.5q-3 34 -5.5 84.5t-3.5 65.5l-2.5 33t-1.5 26q-4 -19 -14 -59l-12.5 -54l-14.5 -63q-36 -159 -39 -168l-20 -82l8 -63l-147 -6q-8 30 -19 86q-27 127 -39 178q-11 42 -30 137q-8 37 -15 62l-8 -199q-4 -80 -4 -174q-2 -58 -2 -84z" />
    <glyph glyph-name="Omega" unicode="&#x2126;" horiz-adv-x="1116" 
d="M76 0l-45 254q25 -12 51 -21q53 -19 117 -26q14 -2 39 -2q-123 154 -123 389q0 222 32 436q13 94 33 168q34 30 53 45q82 67 119 94q52 40 115 78q12 7 53 29q465 0 465 -592q0 -248 -43 -455q-17 -86 -41 -151q-6 -10 -37 -41q37 0 70 4q67 9 110 31q25 10 52 24
l-45 -264h-430v184q23 45 41 117q43 172 43 430q0 451 -271 451q-4 0 -13.5 -44.5t-19.5 -164.5t-10 -277q0 -196 35 -311t100 -201v-184h-450z" />
    <glyph glyph-name="onethird" unicode="&#x2153;" horiz-adv-x="1247" 
d="M297 717h-152q0 33 2 119q0 32 1.5 121.5t1.5 140.5q0 43 -1.5 121.5t-1.5 107.5q-2 74 -2 107l152 10q-2 -68 -2 -109q-2 -43 -2 -237q0 -215 2 -262q0 -45 2 -119zM317 -102l-163 -11l127 287l121 284l128 310l218 537l92 231l159 10l-102 -235l-229 -543l-128 -309
l-112 -281zM813 336l33 41q9 10 27.5 33t25.5 30q16 9 35 13l20 4q13 34 13 80q0 75 -68 75q-33 0 -57 -24q-6 0 -11.5 6t-5.5 10q18 26 27 37q7 11 21.5 28t17.5 21q30 39 96 39q121 0 121 -131q0 -90 -100 -147q34 -7 63.5 -29t40.5 -57q12 -34 12 -95q0 -97 -20 -155
q-14 -14 -39.5 -33.5l-58 -43t-41.5 -30.5q-31 -16 -68 -16q-59 0 -78 24l12 117q43 -31 97 -31q32 0 53 13q8 34 8 90q0 55 -19 92t-81 37q-30 0 -62 -15q-4 0 -9 6.5t-5 10.5z" />
    <glyph glyph-name="twothirds" unicode="&#x2154;" horiz-adv-x="1275" 
d="M61 1307q16 24 25 36q23 37 39 56q39 45 104 45q103 0 129 -88q23 -69 23 -193q0 -95 -27 -194q-57 -72 -133 -138h31q43 0 57 3q19 0 60 12q4 2 26 10l-22 -139h-301l8 110q46 11 92 54q47 44 57 116q7 62 7 103q0 63 -7 112q-10 109 -88 109q-40 0 -65 -27
q-15 2 -15 13zM346 -102l-164 -11l127 287l121 284l129 310l217 537l92 231l160 10l-102 -235l-230 -543l-128 -309l-111 -281zM842 336l18 23t14 18q9 10 28 33t26 30q16 9 35 13l20 4q12 31 12 80q0 75 -67 75q-32 0 -58 -24q-6 0 -11 6t-5 10q18 26 27 37q6 8 39 49
q30 39 96 39q121 0 121 -131q0 -94 -101 -147q33 -7 63 -29t42 -57q12 -34 12 -95q0 -97 -20 -155q-14 -14 -38.5 -33l-60 -44.5t-41.5 -29.5q-31 -16 -67 -16q-58 0 -78 24l12 117q43 -31 96 -31q30 0 54 13q8 34 8 90q0 55 -19 92t-81 37q-30 0 -62 -15q-4 0 -9 6.5
t-5 10.5z" />
    <glyph glyph-name="oneeighth" unicode="&#x215b;" horiz-adv-x="1306" 
d="M297 717h-152q0 33 2 119q0 32 1.5 121.5t1.5 140.5q0 43 -1.5 121.5t-1.5 107.5q-2 74 -2 107l152 10q-2 -68 -2 -109q-2 -43 -2 -237q0 -215 2 -262q0 -45 2 -119zM317 -102l-163 -11l127 287l121 284l128 310l218 537l92 231l159 10l-102 -235l-229 -543l-128 -309
l-112 -281zM786 186q0 33 11 101q6 9 12.5 16.5t15 15l13.5 12t15.5 12.5l14.5 11q-24 10 -43.5 33.5t-25.5 50.5t-6 58q0 51 16 118q69 60 113 88q34 21 92 21q69 0 108 -31.5t39 -95.5q0 -54 -14 -96q-24 -27 -74 -60q42 -22 70 -72t28 -116q0 -44 -12 -111
q-7 -25 -12 -41l-123 -108q-10 -2 -16 -2h-54q-45 0 -87 24t-62 72q-19 48 -19 100zM918 569q0 -47 23.5 -72.5t72.5 -35.5q0 3 1.5 9.5l2.5 10.5q4 17 4 54q0 94 -74 94q-9 0 -24 -4q-6 -16 -6 -56zM934 219q0 -41 14 -80q13 -37 53 -37q9 0 21 4q4 31 4 33q4 28 4 97
q0 48 -27.5 70.5t-62.5 27.5q0 -4 -1.5 -16.5l-2.5 -20.5q-2 -14 -2 -78z" />
    <glyph glyph-name="threeeighths" unicode="&#x215c;" horiz-adv-x="1409" 
d="M150 1051l18 23t14 18q7 7 26 31.5t28 31.5q13 7 34 12l21 4q12 31 12 80q0 39 -18.5 57.5t-48.5 18.5q-34 0 -58 -24q-6 0 -11 6t-5 10l26 37q7 11 21.5 28t17.5 21q30 39 97 39q120 0 120 -131q0 -38 -19 -70.5t-36.5 -46.5t-44.5 -31q34 -7 63.5 -28.5t41.5 -57.5
q12 -34 12 -94q0 -98 -21 -156q-34 -34 -139 -106q-31 -16 -68 -16q-57 0 -77 24l12 117q43 -31 96 -31q34 0 53 12q9 38 9 91q0 55 -19 92t-82 37q-31 0 -61 -15q-4 0 -9 6.5t-5 10.5zM420 -102l-164 -11l127 287l121 284l129 310l217 537l92 231l160 10l-103 -235
l-229 -543l-128 -309l-112 -281zM889 186q0 39 10 101q6 9 12 16.5t16 16l13 11l17 13.5l14 10q-24 10 -44 33.5t-26 50.5t-6 58q0 51 16 118q69 60 113 88q34 21 92 21q69 0 108.5 -31.5t39.5 -95.5q0 -51 -15 -96q-18 -21 -73 -60q42 -22 70 -72t28 -116q0 -44 -12 -111
q-7 -27 -13 -41l-123 -108q-10 -2 -16 -2h-53q-45 0 -86.5 24t-63.5 72q-18 46 -18 100zM1020 569q0 -47 23.5 -72.5t72.5 -35.5q0 3 2 10t2 10q4 17 4 54q0 94 -73 94q-10 0 -25 -4q-6 -16 -6 -56zM1036 219q0 -41 14 -80q13 -37 54 -37q9 0 20 4q4 31 4 33q5 35 5 97
q0 48 -28.5 70.5t-62.5 27.5q0 -4 -1.5 -16.5l-2.5 -20.5q-2 -14 -2 -78z" />
    <glyph glyph-name="fiveeighths" unicode="&#x215d;" horiz-adv-x="1411" 
d="M143 1063v63q0 18 1 65t1 73q0 24 -1 63t-1 53v54h289l-55 -121h-51q-14 0 -51.5 1t-59.5 1v-117q9 2 16 6q21 8 48 8q93 0 139.5 -56t46.5 -152q0 -95 -29 -175q-22 -26 -133 -112q-26 -12 -70 -12q-63 0 -88 24l15 123q53 -37 106 -37q26 0 56 12q10 39 10 113
q0 71 -26 106t-85 35q-46 0 -78 -18zM422 -102l-164 -11l127 287l121 284l129 310l217 537l92 231l160 10l-103 -235l-229 -543l-128 -309l-112 -281zM891 186q0 39 10 101q6 9 12 16.5t16 16l13 11l17 13.5l14 10q-24 10 -44 33.5t-26 50.5t-6 58q0 51 16 118q69 60 113 88
q34 21 92 21q69 0 108.5 -31.5t39.5 -95.5q0 -51 -15 -96q-18 -21 -73 -60q42 -22 70 -72t28 -116q0 -44 -12 -111q-7 -27 -13 -41l-123 -108q-10 -2 -16 -2h-53q-45 0 -86.5 24t-63.5 72q-18 46 -18 100zM1022 569q0 -47 23.5 -72.5t72.5 -35.5q0 3 2 10t2 10q4 17 4 54
q0 94 -73 94q-10 0 -25 -4q-6 -16 -6 -56zM1038 219q0 -41 14 -80q13 -37 54 -37q9 0 20 4q4 31 4 33q5 35 5 97q0 48 -28.5 70.5t-62.5 27.5q0 -4 -1.5 -16.5l-2.5 -20.5q-2 -14 -2 -78z" />
    <glyph glyph-name="seveneighths" unicode="&#x215e;" horiz-adv-x="1323" 
d="M82 1288l45 146h287q-14 -51 -23 -97q-34 -156 -47 -231q-9 -50 -24 -142l-19 -118q-11 -68 -18 -129l-125 -6q9 39 22 110q29 146 43 234l31 180q7 38 12 76q-5 2 -39 2q-81 0 -145 -25zM334 -102l-164 -11l127 287l121 284l129 310l217 537l92 231l160 10l-103 -235
l-229 -543l-128 -309l-112 -281zM803 186q0 39 10 101q6 9 12 16.5t16 16l13 11l17 13.5l14 10q-24 10 -44 33.5t-26 50.5t-6 58q0 51 16 118q69 60 113 88q34 21 92 21q69 0 108.5 -31.5t39.5 -95.5q0 -51 -15 -96q-18 -21 -73 -60q42 -22 70 -72t28 -116q0 -44 -12 -111
q-7 -27 -13 -41l-123 -108q-10 -2 -16 -2h-53q-45 0 -86.5 24t-63.5 72q-18 46 -18 100zM934 569q0 -47 23.5 -72.5t72.5 -35.5q1 3 2.5 9.5t1.5 10.5q4 17 4 54q0 94 -73 94q-10 0 -25 -4q-6 -16 -6 -56zM950 219q0 -41 14 -80q13 -37 54 -37q9 0 20 4q4 31 4 33q5 35 5 97
q0 48 -28.5 70.5t-62.5 27.5q0 -4 -1.5 -16.5l-2.5 -20.5q-2 -14 -2 -78z" />
    <glyph glyph-name="partialdiff" unicode="&#x2202;" horiz-adv-x="813" 
d="M53 426q0 189 26 358l5 35l15 12q15 12 53.5 39t87.5 56q76 46 108 61q29 -6 47 -18l-47 78l-88 140l-158 247l275 10l53 -92l98 -166l187 -312q57 -104 57 -364q0 -70 -3.5 -141.5t-7.5 -113.5t-7 -50q-6 -16 -61 -60.5t-99 -72.5q-130 -87 -160 -92q-16 -5 -45 -5
q-34 0 -67.5 5t-80 20t-86.5 51.5t-63 91.5q-39 86 -39 283zM307 483q0 -137 34 -204.5t112 -67.5q29 0 45 6q5 15 12.5 95.5t7.5 156.5q0 66 -1.5 97t-10.5 70t-27 66q-17 29 -49.5 47.5t-73.5 18.5q-23 0 -28 -2q-7 -39 -11 -74q-10 -94 -10 -209z" />
    <glyph glyph-name="increment" unicode="&#x2206;" horiz-adv-x="1030" 
d="M1008 0h-988q32 145 46 217l96 479l96 523l37 215l428 10l41 -221l45.5 -245.5l52.5 -281.5q53 -286 99 -479zM291 205h371q-27 186 -60 372l-61 334q-34 171 -72 334l-66 -334q-33 -176 -58 -335q-30 -183 -54 -371z" />
    <glyph glyph-name="product" unicode="&#x220f;" horiz-adv-x="1050" 
d="M377 0h-295q0 42 2 186q4 164 4 551q0 378 -4 531q-2 130 -2 166h887q0 -8 -1.5 -68l-2.5 -98q-2 -77 -2 -531q0 -468 2 -551l2.5 -109t1.5 -77h-287q0 37 2 219q4 208 4 772v228h-319v-228q0 -564 4 -772q0 -40 1 -81l2 -81t1 -57z" />
    <glyph glyph-name="summation" unicode="&#x2211;" horiz-adv-x="876" 
d="M20 1434h832l-100 -236q-5 0 -27 1.5l-37 2.5q-88 6 -192 6h-107q7 -26 21 -57q27 -81 59 -158q27 -73 66 -157q18 -42 30 -74l-45 -107l-71 -174l-101 -256h164h59q63 0 115 4q53 4 117 25q26 7 53 20l-119 -274h-696l53 121l115 268l33.5 79.5t31 80t21.5 55.5l33 82
l-45 117l-97 241q-84 198 -112 269q-26 63 -54 121z" />
    <glyph glyph-name="minus" unicode="&#x2212;" horiz-adv-x="837" 
d="M51 537l74 213q58 -2 96 -2q63 -3 246 -3q186 0 229 3q38 0 90 2l-73 -213q-25 0 -97 2q-27 0 -108.5 1t-136.5 1q-51 0 -128.5 -1t-101.5 -1q-68 -2 -90 -2z" />
    <glyph glyph-name="radical" unicode="&#x221a;" horiz-adv-x="1040" 
d="M10 604l271 21q8 -41 18 -80q5 -18 19.5 -74.5t23.5 -87.5q8 -33 27 -92.5t20 -63.5l23 -73q33 92 69 204l168 512l150 486l53 180l188 10l-92 -280l-88 -268l-90 -281l-89 -279l-85 -266l-86 -274l-272 -11q-14 51 -33 111q-8 25 -33.5 110.5t-42.5 137.5
q-75 225 -82 248q-30 87 -37 110z" />
    <glyph glyph-name="infinity" unicode="&#x221e;" horiz-adv-x="1083" 
d="M72 633q0 32 8.5 58.5t17.5 40.5t25 34q66 79 133 135q42 10 111 10q198 0 241 -131q36 52 86 92q34 13 90 13q106 0 167 -52.5t61 -158.5q0 -80 -47 -137q-62 -74 -136 -136q-48 -10 -122 -10q-75 0 -138 25q-66 25 -100 106q-31 -49 -88 -94q-54 -14 -98 -14
q-106 0 -158.5 52t-52.5 167zM219 702q0 -61 47 -85q46 -25 109 -25q34 0 51 4q9 1 20 6q0 80 -48 115q-49 35 -109 35q-41 -2 -64 -11q-6 -18 -6 -39zM631 700q1 -90 53 -120q50 -31 125 -31q27 0 49 6q6 13 6 39q0 63 -47 93t-108 30q-34 0 -58 -8q-13 -5 -20 -9z" />
    <glyph glyph-name="integral" unicode="&#x222b;" horiz-adv-x="638" 
d="M20 -328l56 265q44 -39 104 -39h17q4 0 6 2q0 88 2 284q2 132 3 284q1 105 1 310q0 339 -4 510q-2 150 -2 205q45 85 114 162q67 76 125 117q4 1 8 2.5t9.5 3t9.5 2.5q32 10 70 10q25 0 61 -14l18 -15l-55 -264q-44 39 -104 39q-4 0 -9.5 -1t-7.5 -1h-6q0 -29 -1.5 -105
t-2.5 -120q-2 -93 -2 -531q0 -467 2 -573q1 -50 2.5 -138.5t1.5 -125.5q-44 -84 -113 -162q-69 -77 -126 -117q-10 -5 -27 -10q-26 -8 -70 -8q-41 0 -61 14q-7 4 -19 14z" />
    <glyph glyph-name="approxequal" unicode="&#x2248;" horiz-adv-x="987" 
d="M51 447l68 192q19 54 68 56q19 0 43 -7l573 -151q30 -8 49 -8q53 0 84 55l-67 -193q-19 -55 -68 -55q-17 0 -43 6l-573 152q-30 8 -50 8q-53 0 -84 -55zM51 756l68 192q19 54 68 56q19 0 43 -7l573 -151q30 -8 49 -8q53 0 84 55l-67 -193q-19 -55 -68 -55q-17 0 -43 6
l-573 152q-30 8 -50 8q-53 0 -84 -55z" />
    <glyph glyph-name="notequal" unicode="&#x2260;" horiz-adv-x="837" 
d="M51 393l74 213q34 -2 57 -2q26 -2 148 -2l16 45q1 4 3.5 12.5t4.5 12.5l4 12q-51 0 -124.5 -1t-96.5 -1q-62 -2 -86 -2l74 213q50 -2 84 -2q37 -2 219 -2q6 21 12.5 40.5t13.5 38t9 25.5l12 39l156 6q-7 -21 -15 -41q-8 -18 -38 -108q125 0 151 2q25 0 57 2l-73 -213
q-34 2 -58 2q-109 0 -149 2q0 -1 -1.5 -4.5t-2.5 -5.5q-2 -3 -5 -13t-5 -16t-5.5 -18t-5.5 -15q-1 -8 -4 -10q184 0 221 2q36 0 88 2l-73 -213q-24 0 -86 2q-23 0 -96.5 1t-122.5 1l-35 -106q-8 -25 -11 -37l-157 -6q12 33 14 39l17 48l22 62q-42 -2 -149 -2q-24 0 -58 -2z
" />
    <glyph glyph-name="lessequal" unicode="&#x2264;" horiz-adv-x="827" 
d="M51 -4l74 213q58 -2 96 -2q42 -2 246 -2q191 0 229 2q38 0 90 2l-73 -213q-25 0 -97 2q-27 0 -108.5 1t-136.5 1q-51 0 -128.5 -1t-101.5 -1q-68 -2 -90 -2zM125 541v204q378 162 588 267v-203l-379 -125q199 -73 379 -123v-287q-210 105 -588 267z" />
    <glyph glyph-name="greaterequal" unicode="&#x2265;" horiz-adv-x="827" 
d="M41 -4l74 213q58 -2 96 -2q42 -2 246 -2q191 0 229 2q38 0 90 2l-74 -213q-26 0 -96 2q-27 0 -109 1t-137 1q-51 0 -128 -1t-101 -1q-68 -2 -90 -2zM115 274v203l379 125q-214 78 -379 123v287q238 -118 587 -267v-204q-394 -169 -587 -267z" />
    <glyph glyph-name="lozenge" unicode="&#x25ca;" horiz-adv-x="1048" 
d="M41 686q22 44 49 113l50.5 119.5l52.5 125.5l104 269l45 121h406q21 -67 40 -121q45 -138 97 -269q38 -100 86 -210l37 -86q-16 -33 -50 -113q-13 -29 -102 -246l-104 -268q-21 -63 -45 -121h-406l-41 121q-58 171 -96 268q-11 28 -42.5 103t-43.5 106zM285 748l45 -119
q58 -151 96 -240l109 -260q21 46 110 260l33.5 79.5t31 80t21.5 55.5l33 82l-45 117l-96 241l-111 259l-109 -259l-48.5 -119t-39.5 -96q-18 -45 -30 -81z" />
    <glyph glyph-name="uni25FC" unicode="&#x25fc;" horiz-adv-x="1003" 
d="M1004 0h-1004v1004h1004v-1004z" />
    <glyph glyph-name="apple" unicode="&#xf8ff;" horiz-adv-x="1376" 
d="M82 45v1219q0 34 33 45l553 159q6 2 20 5q6 0 21 -5l553 -159q33 -11 32 -45v-1219q0 -17 -12.5 -31t-32.5 -14q-4 0 -14 2l-547 158l-547 -158q-10 -2 -14 -2q-19 0 -32 14t-13 31zM170 948v-844l473 138v417q-151 12 -275 89q-124 76 -198 200zM643 1370l-471 -137
q12 -191 146.5 -329t324.5 -154v620zM733 659v-417l473 -138v844q-77 -124 -199.5 -200t-273.5 -89zM733 1370v-620q190 17 324.5 155t146.5 328z" />
    <glyph glyph-name="zero.tn" horiz-adv-x="1331" 
d="M275 662q0 157 13 299q14 147 36 243q47 60 138.5 134.5t176.5 105.5q75 0 130 -11q51 -12 106 -53q144 -103 172 -389q10 -105 10 -239q0 -197 -23 -379q-7 -77 -20 -150q-50 -54 -125.5 -125t-116.5 -98q-58 -25 -139 -25q-69 0 -124.5 27t-92 69.5t-64 105t-42 122
t-23 132t-10.5 123.5t-2 108zM535 799q0 -110 9.5 -202.5t30.5 -177t63 -133t100 -48.5q24 0 34 6q10 68 21 177q10 104 10 288q0 95 -11 176t-35.5 149.5t-68 108t-102.5 39.5q-18 0 -23 -2q-28 -173 -28 -381z" />
    <glyph glyph-name="one.tn" horiz-adv-x="1331" 
d="M799 0h-267q0 68 2 238q5 242 5 520q0 248 -5 456q-2 148 -2 209l267 21q0 -32 -1.5 -104.5t-2.5 -112.5q-3 -131 -3 -469q0 -412 3 -520q1 -46 2.5 -126t1.5 -112z" />
    <glyph glyph-name="two.tn" horiz-adv-x="1331" 
d="M361 1180l49 67q51 74 80 109q35 42 77.5 65t106.5 23q87 0 149.5 -37.5t94.5 -138.5q18 -59 27.5 -129.5t11.5 -122t2 -131.5q0 -204 -51 -410q-58 -87 -263 -270h60q65 0 114 4q59 4 117 24q28 8 53 21l-43 -254h-567l14 197q49 9 94.5 30.5t89.5 59.5t74.5 102
t40.5 146q11 118 13 227q0 103 -13 229q-20 217 -176 217q-80 0 -131 -51q-22 4 -24 23z" />
    <glyph glyph-name="three.tn" horiz-adv-x="1331" 
d="M383 659l65 82q12 14 36 44.5l40.5 50t30.5 32.5q21 14 70 25q19 4 41 6q26 73 26 162q0 75 -39.5 116.5t-99.5 41.5q-29 0 -53 -8.5t-35.5 -17.5t-26.5 -24q-24 0 -24 25l55 72l29.5 37l30.5 38l18 23q34 44 75.5 62t100.5 18q27 0 52.5 -4.5t58 -21t56 -44t40 -77.5
t16.5 -117q0 -169 -174 -291q52 -13 105 -56q51 -42 69 -114q19 -80 19 -191q0 -94 -10 -174q-10 -76 -25 -133q-112 -112 -244 -215q-46 -31 -135 -31q-109 0 -156 50l25 215q84 -59 190 -60q59 0 109 23q12 61 12 180q0 60 -8 106.5t-28.5 88t-61 64t-98.5 22.5
q-69 0 -134 -29q-18 5 -18 24z" />
    <glyph glyph-name="four.tn" horiz-adv-x="1331" 
d="M401 459h-94v200l55 113l117 248l123 276l53 127l246 11q-2 -162 -2 -248q-2 -99 -2 -500q99 0 123 2q23 0 57 2l-78 -231h-30q-8 0 -32.5 1t-39.5 1q0 -261 2 -320q0 -55 2 -141h-266q0 41 2 141q0 40 1 148t1 172q-53 0 -133 -1t-105 -1zM639 1139l-207 -451
q30 -2 55 -2h152v59q0 16 1 62t1 74q0 33 -1 92t-1 82v84z" />
    <glyph glyph-name="five.tn" horiz-adv-x="1331" 
d="M393 694q0 37 2 127q0 35 1 128t1 147q0 45 -1 124.5t-1 108.5q-2 74 -2 105h545l-109 -220q-41 0 -92 3q-26 0 -99.5 1t-115.5 1q-2 -16 -2 -31v-92v-97q0 -16 2 -34q16 8 33 14q59 14 94 14q340 0 340 -430q0 -184 -58 -348q-33 -42 -110 -111.5t-123 -101.5
q-16 -10 -58 -19q-45 -8 -83 -8q-104 0 -158 50l27 223q96 -68 196 -68q11 0 22 1t19 2.5t19 4.5l16.5 4.5t18.5 6t18 6.5q20 79 20 225q0 301 -223 301q-78 0 -139 -37z" />
    <glyph glyph-name="six.tn" horiz-adv-x="1331" 
d="M332 612q0 174 21 344.5t57 272.5q53 56 124 113q74 58 168 96q33 6 78 6q98 0 172 -53l-88 -207q-71 49 -162 49q-44 0 -73 -12q-43 -129 -54 -383q37 31 146 112q44 31 90 31q41 0 92 -23q65 -32 104 -125t39 -235q0 -281 -69 -424q-42 -42 -117 -104.5t-115 -85.5
q-13 -7 -61 -9q-117 0 -182 48q-101 73 -135.5 197.5t-34.5 391.5zM573 729q0 -240 27 -352q37 -160 158 -160q15 0 26 4q8 49 11 62q10 78 10 163q0 56 -6.5 105t-23 98t-49 78t-79.5 29q-44 0 -74 -27z" />
    <glyph glyph-name="seven.tn" horiz-adv-x="1331" 
d="M334 1159l88 275h541q-23 -91 -45 -193q-61 -272 -92 -463l-45 -271q-22 -134 -39 -251l-39 -256l-217 -10q1 4 43 221l88 465l61 371q14 97 25 159q-25 4 -78 4q-101 0 -166 -12t-125 -39z" />
    </font>
</defs>
</svg>
